<svg xmlns="http://www.w3.org/2000/svg" xmlns:xlink="http://www.w3.org/1999/xlink" width="220" height="110" viewBox="0 0 220 110">
  <defs>
    <clipPath id="clip-path">
      <rect id="Rectangle_6387" data-name="Rectangle 6387" width="220" height="110" transform="translate(780 4551)" fill="#fff" stroke="#707070" stroke-width="1"/>
    </clipPath>
    <clipPath id="clip-croda-logo">
      <rect width="220" height="110"/>
    </clipPath>
  </defs>
  <g id="croda-logo" clip-path="url(#clip-croda-logo)">
    <g id="Mask_Group_726" data-name="Mask Group 726" transform="translate(-780 -4551)" clip-path="url(#clip-path)">
      <rect id="Rectangle_6385" data-name="Rectangle 6385" width="116.717" height="25.876" transform="translate(831.334 4593)" fill="none"/>
      <g id="Group_18453" data-name="Group 18453" transform="translate(819.416 4590)">
        <g id="Group_18451" data-name="Group 18451">
          <path id="Path_26951" data-name="Path 26951" d="M841.285,739.716l-.144-3.18a12.418,12.418,0,0,0-3.341-1.572,12.744,12.744,0,0,0-3.646-.519,10.419,10.419,0,0,0-7.748,2.94,10.687,10.687,0,0,0-2.911,7.867,12.625,12.625,0,0,0,1.48,6.164,10.934,10.934,0,0,0,4.207,4.284,11.325,11.325,0,0,0,5.758,1.576,20.448,20.448,0,0,0,4.754-.557A9.694,9.694,0,0,0,843.228,755l.377.357q-.378.825-.7,1.666a20.869,20.869,0,0,1-4.224,1.565,17.771,17.771,0,0,1-4.278.526,16.871,16.871,0,0,1-7.758-1.7,12.34,12.34,0,0,1-5.138-4.7,12.959,12.959,0,0,1-1.794-6.782,12.782,12.782,0,0,1,1.81-6.762,12.147,12.147,0,0,1,5.119-4.623,18.21,18.21,0,0,1,8.131-1.64,25.453,25.453,0,0,1,5.916.829q1.686.4,2.743.593a15.615,15.615,0,0,0-.945,5.4Z" transform="translate(-819.714 -732.898)" fill="#221e1f"/>
          <path id="Path_26952" data-name="Path 26952" d="M861.907,745.843q1.753,2.527,4.347,5.876l3.435,4.461a6.384,6.384,0,0,0,1.216,1.307,1.325,1.325,0,0,0,.627.161H872v1.117q-1.489-.113-2.6-.115-1.022,0-2.151.115l-6.327-8.554q-1.771-2.364-3.789-4.619l.179-.61c.691.061,1.2.09,1.537.09a6.672,6.672,0,0,0,4.673-1.54,5.309,5.309,0,0,0,1.689-4.121,4.633,4.633,0,0,0-1.429-3.609,5.932,5.932,0,0,0-4.127-1.3,10.985,10.985,0,0,0-3.769.688q-.215,2.852-.214,6.094v8.659q0,6.326.3,7.016t1.968.689h1.4v1.117q-2.98-.113-4.934-.115-1.543,0-5.579.115v-1.117h1.347q1.544,0,1.832-.672t.287-7.067v-8.615q0-5.551-.333-6.214t-2.163-.665h-.97V733.3q3.332.115,5.087.115,1.181,0,3.4-.085,2.578-.087,3.707-.086a13.039,13.039,0,0,1,4.7.654,4.916,4.916,0,0,1,3.269,4.843,6.316,6.316,0,0,1-1.816,4.456A9.694,9.694,0,0,1,861.907,745.843Z" transform="translate(-822.14 -732.927)" fill="#221e1f"/>
          <path id="Path_26953" data-name="Path 26953" d="M877.774,745.994a12.481,12.481,0,0,1,3.8-9.494q3.8-3.6,10.121-3.6,6.2,0,9.719,3.343a11.668,11.668,0,0,1,3.519,8.876,13.421,13.421,0,0,1-4.084,9.98,14.094,14.094,0,0,1-10.3,4.012,13.487,13.487,0,0,1-6.7-1.576,11.238,11.238,0,0,1-4.442-4.6A14.4,14.4,0,0,1,877.774,745.994Zm3.638-1.468a16.629,16.629,0,0,0,1.388,7.046,10.279,10.279,0,0,0,3.716,4.494,9.629,9.629,0,0,0,5.319,1.494,9.109,9.109,0,0,0,4.854-1.27,8.606,8.606,0,0,0,3.269-3.8,14.324,14.324,0,0,0,1.191-6.143,14.671,14.671,0,0,0-1.316-6.49,9.3,9.3,0,0,0-3.609-4.055,10.436,10.436,0,0,0-5.427-1.362,9.715,9.715,0,0,0-4.944,1.2,8.279,8.279,0,0,0-3.26,3.518A11.647,11.647,0,0,0,881.412,744.527Z" transform="translate(-824.552 -732.898)" fill="#221e1f"/>
          <path id="Path_26954" data-name="Path 26954" d="M913.7,756.954q.287-2.772.287-9.693v-5.187q0-3.186-.215-5.492a3.605,3.605,0,0,0-.333-1.556,3.436,3.436,0,0,0-1.48-.394l-1.437-.215V733.3q2.953.115,3.974.115l4.816-.046,3.922-.1a22.949,22.949,0,0,1,4.852.466,11.116,11.116,0,0,1,4.512,2.012,9.836,9.836,0,0,1,3.079,3.794,12.431,12.431,0,0,1,1.056,5.269,13.348,13.348,0,0,1-4.071,10,14.62,14.62,0,0,1-10.637,3.954l-2.2-.05q-3.24-.121-4.1-.122-1.449,0-3.686.229v-.888Zm3.882-.09a29.4,29.4,0,0,0,4.253.357q5,0,7.774-2.576,3.34-3.132,3.34-9.125,0-5.225-2.778-7.963t-8.141-2.737a31.307,31.307,0,0,0-4.449.376,31.563,31.563,0,0,0-.215,3.9v11.7Q917.366,754.038,917.581,756.864Z" transform="translate(-827.281 -732.929)" fill="#221e1f"/>
          <path id="Path_26955" data-name="Path 26955" d="M962.126,750.159h-10.35l-1.216,2.893a14.713,14.713,0,0,0-1.2,3.509.712.712,0,0,0,.222.591,2.71,2.71,0,0,0,1.137.286l1.719.2v1.117q-1.719-.113-3.866-.115-2.575,0-4.524.115v-1.117l.537-.018a3.843,3.843,0,0,0,1.616-.259,2.577,2.577,0,0,0,.777-1.1q1.271-2.578,2.592-5.568l4.916-11.156q1.966-4.443,2.68-6.447H958.4l9.059,21.076a20.8,20.8,0,0,0,1.217,2.587,1.8,1.8,0,0,0,.7.627,5.809,5.809,0,0,0,1.772.259v1.117q-2.328-.113-4.439-.115-1.969,0-5.246.115v-1.117l1.772-.107a3.152,3.152,0,0,0,1.128-.2.6.6,0,0,0,.269-.5,7.142,7.142,0,0,0-.537-1.683Zm-9.686-1.461h9.02l-4.512-10.767Z" transform="translate(-830.075 -732.914)" fill="#221e1f"/>
        </g>
        <g id="Group_18452" data-name="Group 18452" transform="translate(0.106 29.404)">
          <rect id="Rectangle_6386" data-name="Rectangle 6386" width="140.861" height="1.833" fill="#221e1f"/>
        </g>
      </g>
    </g>
  </g>
</svg>
