<svg xmlns="http://www.w3.org/2000/svg" xmlns:xlink="http://www.w3.org/1999/xlink" width="220" height="110" viewBox="0 0 220 110">
  <defs>
    <clipPath id="clip-path">
      <rect id="Rectangle_6381" data-name="Rectangle 6381" width="220" height="110" transform="translate(340 4551)" fill="#fff" stroke="#707070" stroke-width="1"/>
    </clipPath>
    <clipPath id="clip-evoalk-logo">
      <rect width="220" height="110"/>
    </clipPath>
  </defs>
  <g id="evoalk-logo" clip-path="url(#clip-evoalk-logo)">
    <g id="Mask_Group_723" data-name="Mask Group 723" transform="translate(-340 -4551)" clip-path="url(#clip-path)">
      <g id="Ebene_1" data-name="Ebene 1" transform="translate(368.417 4585)">
        <g id="Group_18444" data-name="Group 18444" transform="translate(0)">
          <g id="Group_18435" data-name="Group 18435" transform="translate(64.658 33.854)">
            <path id="Path_26921" data-name="Path 26921" d="M638.8,822.076h.153c.991-.076,1.372-.076,1.83-.076a3.573,3.573,0,0,1,2.059.457,2.183,2.183,0,0,1,.991,1.906c0,1.449-1.068,2.287-2.9,2.287H640.4v2.516h-1.6Zm1.6,3.2h.381c1.067,0,1.449-.3,1.449-.991s-.381-.991-1.22-.991h-.61Z" transform="translate(-638.8 -821.847)" fill="#991a81"/>
            <path id="Path_26922" data-name="Path 26922" d="M653.539,825.46c0,2.287-1.372,3.736-3.507,3.736a3.247,3.247,0,0,1-3.431-3.584c0-2.364,1.372-3.812,3.507-3.812A3.347,3.347,0,0,1,653.539,825.46Zm-5.261.076c0,1.449.61,2.364,1.754,2.364,1.067,0,1.754-.839,1.754-2.364,0-1.449-.61-2.364-1.754-2.364C648.964,823.172,648.277,824.087,648.277,825.536Z" transform="translate(-640.653 -821.8)" fill="#991a81"/>
            <path id="Path_26923" data-name="Path 26923" d="M658.23,821.976c.381,1.754.381,2.059.839,3.965a6.26,6.26,0,0,1,.3,1.525v.763l.076-.763a10.393,10.393,0,0,1,.3-1.525,4.727,4.727,0,0,0,.229-.839l.381-1.6.3-1.449h1.906l.153.839.457,2.211.381,1.6a8.064,8.064,0,0,1,.229,1.525,5.843,5.843,0,0,1,.229-1.525l.381-1.6.534-2.364.153-.763h1.6c-.61,2.593-1.067,4.27-1.982,7.091h-2.059l-.457-1.906a19.479,19.479,0,0,1-.686-4.117,17.056,17.056,0,0,1-.763,4.117l-.457,1.83H658.23l-.3-1.068c-.305-1.144-.762-2.9-1.068-4.117L656.4,821.9l1.83.076Z" transform="translate(-642.98 -821.824)" fill="#991a81"/>
            <path id="Path_26924" data-name="Path 26924" d="M671.9,822h4.422v1.372H673.5v1.372h2.745v1.372H673.5v1.525h2.9v1.372h-4.5Z" transform="translate(-646.662 -821.847)" fill="#991a81"/>
            <path id="Path_26925" data-name="Path 26925" d="M679.8,822.076h.153a17.346,17.346,0,0,1,1.83-.076,3.95,3.95,0,0,1,2.135.381,2.183,2.183,0,0,1,.991,1.906,1.969,1.969,0,0,1-1.22,1.906,34.285,34.285,0,0,0,2.135,2.821l.076.076h-1.982c-.381-.534-1.372-1.906-1.754-2.516l-.076-.152H681.4v2.669h-1.6v-7.015Zm1.6,3.126h.457c.991,0,1.449-.3,1.449-.991s-.458-.991-1.372-.991H681.4Z" transform="translate(-648.538 -821.847)" fill="#991a81"/>
            <path id="Path_26926" data-name="Path 26926" d="M694.711,823.449H692.5V822h5.947v1.449h-2.211v5.719h-1.6l.076-5.719Z" transform="translate(-651.555 -821.847)" fill="#991a81"/>
            <path id="Path_26927" data-name="Path 26927" d="M708.139,825.46c0,2.287-1.372,3.736-3.507,3.736a3.247,3.247,0,0,1-3.431-3.584c0-2.364,1.372-3.812,3.507-3.812A3.347,3.347,0,0,1,708.139,825.46Zm-5.261.076c0,1.449.61,2.364,1.754,2.364,1.067,0,1.754-.839,1.754-2.364,0-1.449-.61-2.364-1.754-2.364C703.564,823.172,702.877,824.087,702.877,825.536Z" transform="translate(-653.621 -821.8)" fill="#991a81"/>
            <path id="Path_26928" data-name="Path 26928" d="M721.924,828.762a5.471,5.471,0,0,1-2.211.457c-2.364,0-3.812-1.372-3.812-3.584a3.626,3.626,0,0,1,3.965-3.736,5.034,5.034,0,0,1,2.059.457v1.6a3.372,3.372,0,0,0-1.83-.534,2.169,2.169,0,0,0-2.44,2.287,2.126,2.126,0,0,0,2.364,2.211,3.621,3.621,0,0,0,1.906-.534v1.373Z" transform="translate(-657.113 -821.824)" fill="#991a81"/>
            <path id="Path_26929" data-name="Path 26929" d="M725.8,822.076h.153a17.349,17.349,0,0,1,1.83-.076,3.95,3.95,0,0,1,2.135.381,2.183,2.183,0,0,1,.991,1.906,1.969,1.969,0,0,1-1.22,1.906,34.339,34.339,0,0,0,2.135,2.821l.076.076h-1.982c-.381-.534-1.372-1.906-1.754-2.516l-.076-.152H727.4v2.669h-1.6v-7.015Zm1.525,3.126h.457c.991,0,1.449-.3,1.449-.991s-.458-.991-1.372-.991h-.534Z" transform="translate(-659.464 -821.847)" fill="#991a81"/>
            <path id="Path_26930" data-name="Path 26930" d="M734.8,822h4.422v1.372H736.4v1.372h2.745v1.372H736.4v1.525h2.9v1.372h-4.5V822Z" transform="translate(-661.602 -821.847)" fill="#991a81"/>
            <path id="Path_26931" data-name="Path 26931" d="M742,829.191c.61-1.83,1.677-4.5,2.821-7.091h1.6c.991,2.364,1.677,4.27,2.592,7.091h-1.677l-.61-1.906h-2.44l-.61,1.906Zm4.346-3.279-.381-1.22a9.476,9.476,0,0,1-.3-1.22,1.34,1.34,0,0,0-.076.457,4.076,4.076,0,0,0-.3.839l-.381,1.144Z" transform="translate(-663.312 -821.871)" fill="#991a81"/>
            <path id="Path_26932" data-name="Path 26932" d="M753.011,823.449H750.8V822h5.947v1.449h-2.211v5.719h-1.6l.076-5.719Z" transform="translate(-665.403 -821.847)" fill="#991a81"/>
            <path id="Path_26933" data-name="Path 26933" d="M760.4,822h4.422v1.372H762v1.372h2.745v1.372H762v1.525h2.9v1.372h-4.5V822Z" transform="translate(-667.683 -821.847)" fill="#991a81"/>
          </g>
          <g id="Group_18443" data-name="Group 18443">
            <g id="Group_18442" data-name="Group 18442" transform="translate(47.426 7.701)">
              <g id="Group_18436" data-name="Group 18436" transform="translate(97.445 0.839)">
                <path id="Path_26934" data-name="Path 26934" d="M760.774,807.662H757.8a.521.521,0,0,1-.534-.534,8.518,8.518,0,0,0-1.83-4.88,4.934,4.934,0,0,0-.61-.686,6.005,6.005,0,0,0-4.575-2.059h-1.906v7.625a.656.656,0,0,1-.61.61H744.61a.656.656,0,0,1-.61-.61V789.21a.656.656,0,0,1,.61-.61h3.126a.6.6,0,0,1,.61.61v6.024h1.906a6.183,6.183,0,0,0,6.176-6.1.521.521,0,0,1,.534-.534h3.2a.589.589,0,0,1,.61.534,10.471,10.471,0,0,1-4.117,8.159,7.653,7.653,0,0,1,1.754,1.754,13.063,13.063,0,0,1,3.126,8.006.647.647,0,0,1-.534.61Z" transform="translate(-744 -788.6)" fill="#991a81"/>
              </g>
              <g id="Group_18437" data-name="Group 18437" transform="translate(65.726)">
                <path id="Path_26935" data-name="Path 26935" d="M717.268,792.837a14.458,14.458,0,0,0-10.522,0v14.03a.656.656,0,0,1-.61.61H703.01a.656.656,0,0,1-.61-.61V790.4a.543.543,0,0,1,.229-.457,18.952,18.952,0,0,1,18.6,0,.543.543,0,0,1,.229.457v16.393a.656.656,0,0,1-.61.61h-3.126a.656.656,0,0,1-.61-.61V792.837Z" transform="translate(-702.4 -787.5)" fill="#991a81"/>
              </g>
              <g id="Group_18438" data-name="Group 18438" transform="translate(89.057 0.839)">
                <path id="Path_26936" data-name="Path 26936" d="M733,807.052V789.21a.656.656,0,0,1,.61-.61h3.126a.656.656,0,0,1,.61.61v17.918a.656.656,0,0,1-.61.61H733.61a.668.668,0,0,1-.61-.686Z" transform="translate(-733 -788.6)" fill="#991a81"/>
              </g>
              <g id="Group_18439" data-name="Group 18439" transform="translate(20.434 0.839)">
                <path id="Path_26937" data-name="Path 26937" d="M658.021,788.6h4.117a.589.589,0,0,1,.534.61v.229l-6.862,17.842a.573.573,0,0,1-.534.381h-5.185a.573.573,0,0,1-.534-.381L643,789.362v-.152a.647.647,0,0,1,.534-.61h4.194a.573.573,0,0,1,.534.381l4.422,14.411,4.8-14.411a.573.573,0,0,1,.534-.381Z" transform="translate(-643 -788.6)" fill="#991a81"/>
              </g>
              <g id="Group_18440" data-name="Group 18440" transform="translate(0 0.839)">
                <path id="Path_26938" data-name="Path 26938" d="M634.271,807.662h-15.1a.642.642,0,0,1-.534-.3,18.132,18.132,0,0,1-2.44-9.226,18.923,18.923,0,0,1,2.44-9.226.51.51,0,0,1,.534-.3h14.335a.521.521,0,0,1,.534.534v3.2a.521.521,0,0,1-.534.534H621.461a14.555,14.555,0,0,0-.839,3.126h12.047a.521.521,0,0,1,.534.534v3.126a.589.589,0,0,1-.534.61H620.7a14.55,14.55,0,0,0,.839,3.126h12.81a.521.521,0,0,1,.534.534v3.126c-.076.381-.3.61-.61.61Z" transform="translate(-616.2 -788.6)" fill="#991a81"/>
              </g>
              <g id="Group_18441" data-name="Group 18441" transform="translate(42.622)">
                <path id="Path_26939" data-name="Path 26939" d="M686.892,792.837a14.458,14.458,0,0,0-10.522,0v10.141a15.006,15.006,0,0,0,5.261.991,15.341,15.341,0,0,0,5.261-.991V792.837Zm-5.261,15.4a18.133,18.133,0,0,1-9.226-2.44.627.627,0,0,1-.3-.457V790.4a.515.515,0,0,1,.3-.457,19,19,0,0,1,9.3-2.44,19.216,19.216,0,0,1,9.3,2.44c.152.076.229.3.305.457v14.868a.515.515,0,0,1-.305.458,19.187,19.187,0,0,1-9.378,2.516Z" transform="translate(-672.1 -787.5)" fill="#991a81"/>
              </g>
            </g>
            <g id="KNull">
              <path id="Path_26940" data-name="Path 26940" d="M571.918,781.517a13.8,13.8,0,1,0,10.446,22.874H567.877c-.153,0-.3-.076-.457-.076a9.993,9.993,0,0,1,0-17.842.966.966,0,0,1,.457-.076h8.082a2.7,2.7,0,0,1,.458.076,9.259,9.259,0,0,1,3.584,3.05.569.569,0,0,1-.458.915h-10.9a5.936,5.936,0,0,0,0,9.912h19.672a.563.563,0,0,1,.534.763,17.848,17.848,0,1,1,.991-5.795,10.22,10.22,0,0,1-.076,1.525.573.573,0,0,1-.534.534H570.012a.642.642,0,0,1-.534-.3,4.156,4.156,0,0,1-.381-1.677,3.882,3.882,0,0,1,.381-1.677.511.511,0,0,1,.534-.3h15.555A13.8,13.8,0,0,0,571.918,781.517Z" transform="translate(-554 -777.4)" fill="#991a81"/>
            </g>
          </g>
        </g>
      </g>
    </g>
  </g>
</svg>
