<svg xmlns="http://www.w3.org/2000/svg" xmlns:xlink="http://www.w3.org/1999/xlink" width="108" height="60" viewBox="0 0 108 60">
  <defs>
    <clipPath id="clip-jourerness-logo">
      <rect width="108" height="60"/>
    </clipPath>
  </defs>
  <g id="jourerness-logo" clip-path="url(#clip-jourerness-logo)">
    <g id="Group_18423" data-name="Group 18423" transform="translate(-75.249 -214.02)">
      <g id="Group_17377" data-name="Group 17377" transform="translate(75.249 214.02)">
        <g id="Group_17364" data-name="Group 17364">
          <path id="Path_25876" data-name="Path 25876" d="M219.2,214.02h-.153a4.086,4.086,0,0,0-.574.06,3.792,3.792,0,0,0,0,7.415,3.3,3.3,0,0,0,.574.073h.153a3.774,3.774,0,0,0,0-7.548Z" transform="translate(-143.928 -214.02)" fill="#f05f23" fill-rule="evenodd"/>
          <path id="Path_25877" data-name="Path 25877" d="M155.069,214.592a48.851,48.851,0,0,0-4.93,1.115,41.174,41.174,0,0,0-6.62,2.552,35.28,35.28,0,0,0-15.148,13.846c-3.5,6.155-3.425,13.043-5.26,19.7a41.7,41.7,0,0,1-9.72,17.981,35.968,35.968,0,0,1-4.791,4.233c1.692-.091,3.271-.218,4.791-.377,8.606-.94,17.81-3.748,22.82-11.334,6.1-9.231,2.715-20.363,7.307-29.925a38.02,38.02,0,0,1,6.62-9.474,55.875,55.875,0,0,1,4.93-4.634c1.023-.834,2.108-1.672,3.24-2.487.815-.6,1.69-1.2,2.576-1.77-.87.031-1.735.095-2.576.158C157.2,214.291,156.128,214.418,155.069,214.592Z" transform="translate(-91.583 -214.02)" fill="#f05f23" fill-rule="evenodd"/>
          <path id="Path_25878" data-name="Path 25878" d="M97.038,242.456a39.476,39.476,0,0,0-8.516-6.818c1.315-14.013-5.244-16.441-13.272-16.549.588,8.14,10.836,38.824,21.977,48.225.286-.362.552-.69.815-1.05C103.689,258.673,103.514,249.548,97.038,242.456Z" transform="translate(-75.249 -216.503)" fill="#f05f23" fill-rule="evenodd"/>
        </g>
        <g id="Group_17375" data-name="Group 17375" transform="translate(55.619 40.87)">
          <g id="Group_17365" data-name="Group 17365" transform="translate(28.046 0.119)">
            <path id="Path_25879" data-name="Path 25879" d="M240.3,297.723h2.494v-.431H240.3v-2.185h2.672v-.391h-3.384v5.711h3.472v-.461H240.3Z" transform="translate(-239.399 -294.53)" fill="#f05f23" fill-rule="evenodd"/>
            <path id="Path_25880" data-name="Path 25880" d="M243.063,300.435H239.22v-6.083h3.755v.762H240.3v1.813H242.8v.8H240.3V299.6h2.758Zm-3.472-.371h3.1v-.09h-2.757V297.36h2.493V297.3h-2.493v-2.554l2.672-.02h-3.015Z" transform="translate(-239.22 -294.352)" fill="#f05f23"/>
          </g>
          <g id="Group_17366" data-name="Group 17366" transform="translate(33.064 0.119)">
            <path id="Path_25881" data-name="Path 25881" d="M253.333,298.878l-3.348-4.163h-.571v5.711h.535v-4.8l3.913,4.926v-5.842h-.529Z" transform="translate(-249.231 -294.53)" fill="#f05f23" fill-rule="evenodd"/>
            <path id="Path_25882" data-name="Path 25882" d="M253.871,300.911l-3.911-4.926v4.45h-.905v-6.083h.842l.055.07,3.018,3.753v-3.823h.9Zm-4.446-.848h.165v-5.142l3.91,4.926v-5.123h-.157v4.5l-3.623-4.5h-.294Z" transform="translate(-249.055 -294.352)" fill="#f05f23"/>
          </g>
          <g id="Group_17367" data-name="Group 17367" transform="translate(39.489 0.119)">
            <path id="Path_25883" data-name="Path 25883" d="M262.665,297.71h2.559v-.458h-2.559v-2.129h2.715v-.408h-3.369v5.711h3.468v-.44h-2.814Z" transform="translate(-261.825 -294.53)" fill="#f05f23" fill-rule="evenodd"/>
            <path id="Path_25884" data-name="Path 25884" d="M265.486,300.435h-3.839v-6.083h3.74v.779h-2.714v1.758h2.557v.828h-2.557v1.907h2.812Zm-3.468-.371h3.1v-.069H262.3v-2.648h2.558v-.086H262.3v-2.5h2.715v-.036h-3Z" transform="translate(-261.647 -294.352)" fill="#f05f23"/>
          </g>
          <g id="Group_17368" data-name="Group 17368" transform="translate(44.064)">
            <path id="Path_25885" data-name="Path 25885" d="M273.154,297.225l-.391-.167a2.317,2.317,0,0,1-.829-.508.712.712,0,0,1-.212-.567,1,1,0,0,1,.341-.786,1.2,1.2,0,0,1,.857-.336,1.036,1.036,0,0,1,.582.186,1.339,1.339,0,0,1,.441.524l.263-.288a1.909,1.909,0,0,0-.6-.6,1.541,1.541,0,0,0-.777-.2,1.678,1.678,0,0,0-1.222.484,1.545,1.545,0,0,0-.494,1.168,1.209,1.209,0,0,0,.269.819,3.137,3.137,0,0,0,1.021.656l.384.141a1.83,1.83,0,0,1,.74.508.76.76,0,0,1,.2.583,1.283,1.283,0,0,1-.307.912,1,1,0,0,1-.8.334,1.314,1.314,0,0,1-.719-.2,1.415,1.415,0,0,1-.521-.579l-.311.3a1.59,1.59,0,0,0,.639.632,1.814,1.814,0,0,0,.885.208,1.694,1.694,0,0,0,1.789-1.778,1.219,1.219,0,0,0-.271-.838A2.251,2.251,0,0,0,273.154,297.225Z" transform="translate(-270.839 -294.297)" fill="#f05f23" fill-rule="evenodd"/>
            <path id="Path_25886" data-name="Path 25886" d="M272.372,300.45a1.969,1.969,0,0,1-.976-.232,1.743,1.743,0,0,1-.706-.7l-.079-.129.6-.57.112.224a1.224,1.224,0,0,0,.454.5,1.132,1.132,0,0,0,.621.169.815.815,0,0,0,.656-.268,1.107,1.107,0,0,0,.264-.79.586.586,0,0,0-.159-.466,1.7,1.7,0,0,0-.673-.454l-.371-.136a3.268,3.268,0,0,1-1.1-.709,1.378,1.378,0,0,1-.314-.941,1.724,1.724,0,0,1,.551-1.3,1.863,1.863,0,0,1,1.349-.532,1.736,1.736,0,0,1,.866.217,2.129,2.129,0,0,1,.663.664l.078.122-.543.6-.12-.248a1.165,1.165,0,0,0-.379-.454.856.856,0,0,0-.476-.15,1.021,1.021,0,0,0-.731.284.822.822,0,0,0-.283.652.534.534,0,0,0,.169.447,2.006,2.006,0,0,0,.758.457l.393.169a2.4,2.4,0,0,1,1.035.656,1.394,1.394,0,0,1,.31.953,1.874,1.874,0,0,1-1.973,1.963Zm-1.286-1a1.328,1.328,0,0,0,.482.439,1.5,1.5,0,0,0,.434.153,1.422,1.422,0,0,1-.419-.179,1.581,1.581,0,0,1-.464-.441Zm1.519-4.963a1.486,1.486,0,0,0-1.093.43,1.367,1.367,0,0,0-.437,1.036,1.024,1.024,0,0,0,.223.7,2.935,2.935,0,0,0,.96.61l.369.135a2.016,2.016,0,0,1,.826.572.939.939,0,0,1,.235.692,1.446,1.446,0,0,1-.359,1.038,1.091,1.091,0,0,1-.519.336,1.427,1.427,0,0,0,.725-.394,1.549,1.549,0,0,0,.438-1.155,1.043,1.043,0,0,0-.223-.715,2.1,2.1,0,0,0-.891-.55l-.4-.172a2.419,2.419,0,0,1-.9-.559.891.891,0,0,1-.255-.686,1.194,1.194,0,0,1,.4-.924,1.353,1.353,0,0,1,1.131-.372A1.556,1.556,0,0,0,272.606,294.49Z" transform="translate(-270.612 -294.119)" fill="#f05f23"/>
          </g>
          <g id="Group_17369" data-name="Group 17369" transform="translate(48.572)">
            <path id="Path_25887" data-name="Path 25887" d="M282.933,297.827a2.4,2.4,0,0,0-.968-.6l-.394-.167a2.393,2.393,0,0,1-.827-.508.688.688,0,0,1-.221-.55,1.09,1.09,0,0,1,.337-.814,1.216,1.216,0,0,1,.855-.335,1.135,1.135,0,0,1,.592.2,1.175,1.175,0,0,1,.424.524l.273-.288a1.827,1.827,0,0,0-.592-.6,1.457,1.457,0,0,0-.762-.2,1.707,1.707,0,0,0-1.243.484,1.611,1.611,0,0,0-.489,1.168,1.224,1.224,0,0,0,.28.819,2.917,2.917,0,0,0,1.026.656l.376.141a1.98,1.98,0,0,1,.753.508.827.827,0,0,1,.221.572,1.338,1.338,0,0,1-.31.9,1.039,1.039,0,0,1-.814.346,1.261,1.261,0,0,1-.713-.212,1.509,1.509,0,0,1-.527-.564l-.312.3a1.513,1.513,0,0,0,.624.632,1.8,1.8,0,0,0,.886.208,1.7,1.7,0,0,0,1.789-1.778A1.283,1.283,0,0,0,282.933,297.827Z" transform="translate(-279.669 -294.297)" fill="#f05f23" fill-rule="evenodd"/>
            <path id="Path_25888" data-name="Path 25888" d="M281.187,300.45a1.951,1.951,0,0,1-.977-.232,1.683,1.683,0,0,1-.695-.7l-.068-.123.588-.572.117.212a1.343,1.343,0,0,0,.464.5,1.079,1.079,0,0,0,.614.183.856.856,0,0,0,.676-.286,1.15,1.15,0,0,0,.262-.776.572.572,0,0,0-.145-.407l-.041-.059a1.782,1.782,0,0,0-.677-.444l-.368-.136a3.075,3.075,0,0,1-1.1-.711,1.409,1.409,0,0,1-.322-.939,1.8,1.8,0,0,1,.543-1.3,1.887,1.887,0,0,1,1.373-.536,1.647,1.647,0,0,1,.857.221,2.011,2.011,0,0,1,.656.664l.078.124-.57.593-.11-.259a.982.982,0,0,0-.357-.442.946.946,0,0,0-.488-.164,1.03,1.03,0,0,0-.729.284.913.913,0,0,0-.277.68.514.514,0,0,0,.176.43,2.25,2.25,0,0,0,.757.457l.4.169a2.518,2.518,0,0,1,1.037.656,1.465,1.465,0,0,1,.307.954,1.888,1.888,0,0,1-1.974,1.963Zm-1.274-.995a1.279,1.279,0,0,0,.474.438,1.563,1.563,0,0,0,.715.185,1.491,1.491,0,0,1-.688-.235,1.683,1.683,0,0,1-.458-.43Zm1.477-4.964a1.53,1.53,0,0,0-1.076.429,1.43,1.43,0,0,0-.43,1.036,1.048,1.048,0,0,0,.232.7,2.764,2.764,0,0,0,.963.61l.364.135a2.194,2.194,0,0,1,.833.566l.047.065a.932.932,0,0,1,.214.623,1.506,1.506,0,0,1-.356,1.022,1.171,1.171,0,0,1-.655.379,1.412,1.412,0,0,0,.816-.409,1.532,1.532,0,0,0,.446-1.157,1.091,1.091,0,0,0-.221-.719,2.225,2.225,0,0,0-.892-.546l-.4-.169a2.556,2.556,0,0,1-.89-.555.875.875,0,0,1-.271-.675,1.274,1.274,0,0,1,.392-.947A1.386,1.386,0,0,1,281.39,294.491Z" transform="translate(-279.447 -294.119)" fill="#f05f23"/>
          </g>
          <g id="Group_17370" data-name="Group 17370" transform="translate(21.685 0.119)">
            <path id="Path_25889" data-name="Path 25889" d="M229.543,294.83a5.606,5.606,0,0,0-1.16-.115H227.12v5.711h1.9a4.365,4.365,0,0,0,.52-.038,3.322,3.322,0,0,0,.727-.175,2.593,2.593,0,0,0,.94-.619,2.82,2.82,0,0,0,.762-1.935,2.6,2.6,0,0,0-.96-2.151A3.245,3.245,0,0,0,229.543,294.83Zm1.012,4.476a2.194,2.194,0,0,1-1.012.572,3.588,3.588,0,0,1-.906.108h-.8v-4.88h.668a3.633,3.633,0,0,1,1.042.118,2.344,2.344,0,0,1,.99.532,2.6,2.6,0,0,1,.022,3.55Z" transform="translate(-226.933 -294.53)" fill="#f05f23" fill-rule="evenodd"/>
            <path id="Path_25890" data-name="Path 25890" d="M228.843,300.435h-2.089v-6.083h1.45a5.738,5.738,0,0,1,1.2.119,3.416,3.416,0,0,1,1.55.718,2.792,2.792,0,0,1,1.026,2.292,3.008,3.008,0,0,1-.808,2.062,2.8,2.8,0,0,1-1.008.663,3.507,3.507,0,0,1-.768.186A4.782,4.782,0,0,1,228.843,300.435Zm-1.718-.371h1.718a4.458,4.458,0,0,0,.5-.036,3.255,3.255,0,0,0,.679-.163,2.408,2.408,0,0,0,.874-.575,2.612,2.612,0,0,0,.71-1.808,2.4,2.4,0,0,0-.891-2,3.034,3.034,0,0,0-1.387-.642,5.38,5.38,0,0,0-1.124-.11h-1.079Zm1.332-.069h-.989v-5.25h.853a3.668,3.668,0,0,1,1.094.126,2.5,2.5,0,0,1,1.063.573,2.614,2.614,0,0,1-1.067,4.439A3.872,3.872,0,0,1,228.457,299.994Zm-.618-.371h.618a3.47,3.47,0,0,0,.859-.1,2,2,0,0,0,.926-.523,2.418,2.418,0,0,0-.013-3.283,2.124,2.124,0,0,0-.917-.49,3.343,3.343,0,0,0-.991-.112h-.482Z" transform="translate(-226.754 -294.352)" fill="#f05f23"/>
          </g>
          <g id="Group_17371" data-name="Group 17371" transform="translate(16.116 0.119)">
            <path id="Path_25891" data-name="Path 25891" d="M218.3,297.729h.109c.124,0,.228,0,.331-.007a2.221,2.221,0,0,0,.979-.409,1.228,1.228,0,0,0,.5-1.016,1.4,1.4,0,0,0-.577-1.166,2.457,2.457,0,0,0-.9-.355c-.133-.022-.282-.033-.44-.043a1.627,1.627,0,0,0-.294-.018h-1.8v5.711h.734v-5.295h.933c.165,0,.3.02.427.029a1.417,1.417,0,0,1,.44.126,1.575,1.575,0,0,1,.26.15.86.86,0,0,1,.411.791.982.982,0,0,1-.378.829,1.482,1.482,0,0,1-.292.2,1.074,1.074,0,0,1-.44.131h-1.068l1.068,1.537.44.626.615.88h.819l-1.434-1.943-.44-.591-.113-.163h.113Z" transform="translate(-216.016 -294.53)" fill="#f05f23" fill-rule="evenodd"/>
            <path id="Path_25892" data-name="Path 25892" d="M220.358,300.435h-1.284l-2.13-3.057v3.057h-1.105v-6.083h1.985a1.847,1.847,0,0,1,.326.021,4.409,4.409,0,0,1,.44.044,2.638,2.638,0,0,1,.972.384,1.6,1.6,0,0,1,.658,1.319,1.412,1.412,0,0,1-.57,1.163,2.412,2.412,0,0,1-1.061.445c-.08,0-.15.006-.223.008Zm-1.089-.371h.354l-1.951-2.673H217.4Zm-3.06,0h.363v-5.295h1.118c.112,0,.21.009.3.017.046.005.091.009.137.012a1.64,1.64,0,0,1,.513.144,1.912,1.912,0,0,1,.287.169,1.039,1.039,0,0,1,.486.939,1.167,1.167,0,0,1-.445.97,1.634,1.634,0,0,1-.332.223.977.977,0,0,1-.352.123c.094,0,.178,0,.263,0a2.029,2.029,0,0,0,.88-.375,1.042,1.042,0,0,0,.42-.866,1.219,1.219,0,0,0-.507-1.018,2.272,2.272,0,0,0-.823-.321c-.118-.02-.261-.029-.411-.039a1.566,1.566,0,0,0-.284-.017h-1.615Zm.735-3.044h1.174a.924.924,0,0,0,.338-.1,1.246,1.246,0,0,0,.268-.178.8.8,0,0,0,.319-.692.678.678,0,0,0-.337-.642,1.417,1.417,0,0,0-.229-.133,1.356,1.356,0,0,0-.388-.108c-.03,0-.08-.005-.132-.01-.08-.007-.167-.016-.266-.016h-.746Z" transform="translate(-215.839 -294.352)" fill="#f05f23"/>
          </g>
          <g id="Group_17372" data-name="Group 17372" transform="translate(10.223 0.094)">
            <path id="Path_25893" data-name="Path 25893" d="M208.488,298.5a1.851,1.851,0,0,1-.342,1.252.906.906,0,0,1-.862.379c-.149,0-.412.015-.649,0a1.405,1.405,0,0,1-.447-.073,1.192,1.192,0,0,1-.507-.409,1.216,1.216,0,0,1-.252-.5,3.258,3.258,0,0,1-.069-.8V294.7h-.7v3.646a4.234,4.234,0,0,0,.092,1.027,1.42,1.42,0,0,0,.355.578,1.88,1.88,0,0,0,.718.444,4.132,4.132,0,0,0,.814.123c.236.006.477.024.626.024a1.78,1.78,0,0,0,1.367-.494,1.9,1.9,0,0,0,.464-1.368V294.7l-.6-.019Z" transform="translate(-204.468 -294.487)" fill="#f05f23" fill-rule="evenodd"/>
            <path id="Path_25894" data-name="Path 25894" d="M207.082,300.541c-.084,0-.2-.006-.321-.012-.1-.005-.2-.011-.311-.013a4.017,4.017,0,0,1-.871-.134,2.045,2.045,0,0,1-.784-.486,1.6,1.6,0,0,1-.4-.651,4.309,4.309,0,0,1-.1-1.085v-3.831h1.076v3.842a3.033,3.033,0,0,0,.065.752,1.028,1.028,0,0,0,.212.424,1.044,1.044,0,0,0,.442.359,1.223,1.223,0,0,0,.381.057c.164.011.338.006.475,0l.164,0a.733.733,0,0,0,.724-.315,1.683,1.683,0,0,0,.3-1.131V294.3l.974.03v4.159a2.077,2.077,0,0,1-.516,1.5A1.97,1.97,0,0,1,207.082,300.541Zm-2.422-5.84v3.459a4.137,4.137,0,0,0,.085.977,1.238,1.238,0,0,0,.308.495,1.7,1.7,0,0,0,.647.4,3.784,3.784,0,0,0,.771.115c.1,0,.206.007.307.012.117.006.222.011.3.011a1.6,1.6,0,0,0,1.23-.431,1.734,1.734,0,0,0,.416-1.246v-3.8l-.233-.008v3.631a2.031,2.031,0,0,1-.385,1.369,1.084,1.084,0,0,1-1.006.447l-.154,0c-.147,0-.334.008-.505,0a1.569,1.569,0,0,1-.512-.089,1.367,1.367,0,0,1-.584-.473,1.382,1.382,0,0,1-.28-.558,3.527,3.527,0,0,1-.074-.843V294.7Z" transform="translate(-204.289 -294.304)" fill="#f05f23"/>
          </g>
          <g id="Group_17373" data-name="Group 17373" transform="translate(3.063)">
            <path id="Path_25895" data-name="Path 25895" d="M195.466,295.321a2.309,2.309,0,0,0-.914-.614,2.5,2.5,0,0,0-1.061-.225h-.02a2.643,2.643,0,0,0-1.091.225,2.469,2.469,0,0,0-.919.614,2.987,2.987,0,0,0-.633.969,2.954,2.954,0,0,0-.21,1.17,3.154,3.154,0,0,0,.21,1.185,2.707,2.707,0,0,0,.633.958,2.981,2.981,0,0,0,.919.632,2.857,2.857,0,0,0,1.091.208h.02a2.745,2.745,0,0,0,1.061-.208,2.967,2.967,0,0,0,.928-.632,2.812,2.812,0,0,0,.627-.958,3.181,3.181,0,0,0,.218-1.185,2.974,2.974,0,0,0-.218-1.17A2.876,2.876,0,0,0,195.466,295.321Zm-.557,4.171a1.715,1.715,0,0,1-1.418.593h-.013a1.789,1.789,0,0,1-1.414-.643,3.585,3.585,0,0,1,0-3.964,1.881,1.881,0,0,1,1.427-.663h.014a1.806,1.806,0,0,1,1.4.712,3.076,3.076,0,0,1,.6,1.978A3.122,3.122,0,0,1,194.909,299.492Z" transform="translate(-190.434 -294.297)" fill="#f05f23" fill-rule="evenodd"/>
            <path id="Path_25896" data-name="Path 25896" d="M193.314,300.45h-.02a3.046,3.046,0,0,1-1.161-.221,3.159,3.159,0,0,1-.979-.672,2.9,2.9,0,0,1-.674-1.023,3.313,3.313,0,0,1-.222-1.252,3.129,3.129,0,0,1,.894-2.268,2.63,2.63,0,0,1,.988-.659,2.81,2.81,0,0,1,1.155-.236,2.718,2.718,0,0,1,1.158.241,2.484,2.484,0,0,1,.976.659,3.048,3.048,0,0,1,.673,1.024,3.136,3.136,0,0,1,.233,1.24,3.313,3.313,0,0,1-.232,1.254,2.949,2.949,0,0,1-.669,1.02,3.133,3.133,0,0,1-.982.67A2.933,2.933,0,0,1,193.314,300.45Zm-.695-5.874a2.988,2.988,0,0,0-.344.123,2.283,2.283,0,0,0-.857.575,2.735,2.735,0,0,0-.79,2.009,2.98,2.98,0,0,0,.195,1.115,2.493,2.493,0,0,0,.591.9,2.784,2.784,0,0,0,.863.593,2.38,2.38,0,0,0,.571.159,1.865,1.865,0,0,1-1.105-.666,3.762,3.762,0,0,1,0-4.193A2,2,0,0,1,192.619,294.576Zm1.453.032a2.07,2.07,0,0,1,.808.628,3.251,3.251,0,0,1,.636,2.091,3.31,3.31,0,0,1-.636,2.1,1.724,1.724,0,0,1-.489.418,2.821,2.821,0,0,0,.779-.551,2.6,2.6,0,0,0,.586-.9,2.959,2.959,0,0,0,.208-1.115,2.776,2.776,0,0,0-.205-1.1,2.67,2.67,0,0,0-.6-.909,2.124,2.124,0,0,0-.848-.572A2.057,2.057,0,0,0,194.072,294.608Zm-.758.03,0,.184a1.714,1.714,0,0,0-1.287.6,3.4,3.4,0,0,0,0,3.73,1.6,1.6,0,0,0,1.268.572,1.543,1.543,0,0,0,1.287-.522,2.949,2.949,0,0,0,.557-1.872,2.9,2.9,0,0,0-.557-1.861,1.615,1.615,0,0,0-1.26-.644Z" transform="translate(-190.257 -294.119)" fill="#f05f23"/>
          </g>
          <g id="Group_17374" data-name="Group 17374" transform="translate(0 0.119)">
            <path id="Path_25897" data-name="Path 25897" d="M185.544,299.717a1.809,1.809,0,0,1-.077.589.536.536,0,0,1-.124.226.82.82,0,0,1-.676.242h-.051v.348h.122a2.693,2.693,0,0,0,.729-.083,1.15,1.15,0,0,0,.508-.274,1.617,1.617,0,0,0,.345-1.146v-4.9h-.776Z" transform="translate(-184.431 -294.53)" fill="#f05f23" fill-rule="evenodd"/>
            <path id="Path_25898" data-name="Path 25898" d="M184.561,301.129h-.307v-.717h.235a.672.672,0,0,0,.531-.17.381.381,0,0,0,.086-.146,1.69,1.69,0,0,0,.074-.555v-5.188h1.147v5.09a1.78,1.78,0,0,1-.394,1.274,1.335,1.335,0,0,1-.589.324A2.84,2.84,0,0,1,184.561,301.129Zm.99-6.405v4.816a1.944,1.944,0,0,1-.087.65.6.6,0,0,1-.131.253.856.856,0,0,1-.523.31,1.96,1.96,0,0,0,.429-.068.989.989,0,0,0,.426-.225,1.458,1.458,0,0,0,.291-1.017v-4.718Z" transform="translate(-184.254 -294.352)" fill="#f05f23"/>
          </g>
        </g>
        <g id="Group_17376" data-name="Group 17376" transform="translate(63.733 16.908)">
          <path id="Path_25899" data-name="Path 25899" d="M254.551,264.283h-5.473a4.781,4.781,0,0,0-.8.055c-1.675.272-2.921,1.3-2.921,2.55v5.021c0,1.236,1.246,2.279,2.921,2.546a7.934,7.934,0,0,0,.8.057h5.473c2.047,0,3.726-1.174,3.726-2.6v-5.021C258.277,265.447,256.6,264.283,254.551,264.283Zm-.092,8.566c0,.663-.683,1.063-1.483,1.063h-2.305c-.817,0-1.484-.4-1.484-1.063v-6.9c0-.668.667-1.077,1.484-1.077h2.305c.818,0,1.483.408,1.483,1.077Z" transform="translate(-222.295 -255.545)" fill="#f05f23" fill-rule="evenodd"/>
          <path id="Path_25900" data-name="Path 25900" d="M234.986,265.323a.851.851,0,0,1,.213-.621,1.231,1.231,0,0,1,.676-.216l.307-.04v-.224H229.8v.224l.385.054a.879.879,0,0,1,.577.228,1.074,1.074,0,0,1,.214.629l.024.65v6.679l-.024.643a.917.917,0,0,1-.233.614.977.977,0,0,1-.558.239,1.955,1.955,0,0,1-.394.04v.229l3.5-.013h2.885v-.216c-.427-.028-.634.03-.964-.243a.841.841,0,0,1-.221-.634l-.029-.63V265.98Z" transform="translate(-214.669 -255.514)" fill="#f05f23" fill-rule="evenodd"/>
          <path id="Path_25901" data-name="Path 25901" d="M212.5,268.986c1.019.159,1.049-1.628,1.017-2.21-.054-1.062-.271-1.963-1.326-2.347a8.774,8.774,0,0,0-2.947-.3h-9.093v.231c1.748-.059,1.8.916,1.8.916v7.866c0,1.194-1.795,1-1.795,1v.231s8,0,10.723-.061c1.357-.028,2.424-.533,2.632-1.956C213.661,271.406,213.779,269.217,212.5,268.986Zm-4.031,4.16c-1.09.02-2.386-.007-2.386-.007v-3.448a17.256,17.256,0,0,1,3.121.135c.633.209,1.031.464,1.031,1.723S209.566,273.122,208.473,273.145Zm0-4.5c-1.09.021-2.386-.006-2.386-.006v-3.447a17.426,17.426,0,0,1,3.121.134c.633.21,1.031.463,1.031,1.724S209.566,268.628,208.473,268.647Z" transform="translate(-200.156 -255.47)" fill="#f05f23"/>
          <path id="Path_25902" data-name="Path 25902" d="M236.07,250.238a1.626,1.626,0,0,0-1.6-1.654,1.526,1.526,0,0,0-.605.126,1.585,1.585,0,0,0-3.17,0,1.525,1.525,0,0,0-.606-.126,1.658,1.658,0,0,0-.43,3.24,1.691,1.691,0,0,0-.234.854,1.624,1.624,0,0,0,1.594,1.653,1.58,1.58,0,0,0,1.262-.65,1.576,1.576,0,0,0,1.261.65,1.624,1.624,0,0,0,1.592-1.653,1.666,1.666,0,0,0-.235-.854A1.643,1.643,0,0,0,236.07,250.238Z" transform="translate(-214.036 -247.157)" fill="#f05f23"/>
        </g>
      </g>
    </g>
  </g>
</svg>
