<svg xmlns="http://www.w3.org/2000/svg" xmlns:xlink="http://www.w3.org/1999/xlink" width="20" height="20" viewBox="0 0 20 20">
  <defs>
    <clipPath id="clip-icon-phone">
      <rect width="20" height="20"/>
    </clipPath>
  </defs>
  <g id="icon-phone" clip-path="url(#clip-icon-phone)">
    <path id="Path_27092" data-name="Path 27092" d="M733.281,412.7a16.792,16.792,0,0,0-3.509-2.348c-1.052-.505-1.437-.495-2.182.042-.62.448-1.02.864-1.734.708a14.657,14.657,0,0,1-6.061-6.061c-.151-.719.265-1.114.708-1.734.536-.745.552-1.13.042-2.182a16.457,16.457,0,0,0-2.348-3.509c-.765-.766-.937-.6-1.359-.448a7.728,7.728,0,0,0-1.244.661A3.753,3.753,0,0,0,714.1,399.4c-.3.64-.64,1.833,1.109,4.947a27.6,27.6,0,0,0,4.853,6.472l.005.005.005.005a27.725,27.725,0,0,0,6.472,4.853c3.114,1.749,4.306,1.406,4.947,1.109a3.688,3.688,0,0,0,1.578-1.494,7.738,7.738,0,0,0,.661-1.244C733.88,413.633,734.052,413.461,733.281,412.7Z" transform="translate(-713.857 -397.035)" fill="#f05f23"/>
  </g>
</svg>
