<svg xmlns="http://www.w3.org/2000/svg" xmlns:xlink="http://www.w3.org/1999/xlink" width="890" height="327" viewBox="0 0 890 327">
  <defs>
    <linearGradient id="linear-gradient" x1="0.638" y1="0.52" x2="0.016" y2="0.53" gradientUnits="objectBoundingBox">
      <stop offset="0" stop-color="#f05f23"/>
      <stop offset="1"/>
    </linearGradient>
    <clipPath id="clip-icon-product-intro-2">
      <rect width="890" height="327"/>
    </clipPath>
  </defs>
  <g id="icon-product-intro-2" clip-path="url(#clip-icon-product-intro-2)">
    <g id="Group_18457" data-name="Group 18457" transform="translate(-259 -1785.592)">
      <path id="Path_27034" data-name="Path 27034" d="M-7683.712,333h49.379V632.571h-49.379" transform="translate(8662.671 1458.201)" fill="none" stroke="#f05f23" stroke-linejoin="bevel" stroke-width="2"/>
      <rect id="Rectangle_6385" data-name="Rectangle 6385" width="47.498" height="217.933" rx="23.749" transform="translate(1005 1833)" fill="#f05f23"/>
      <path id="Path_27067" data-name="Path 27067" d="M8.56-1.9H11.9V-2.88H8.56V-4.224H7.376V-2.88H4.112V-1.9H7.376v1.68H2.016V.784H14.08V-.224H8.56ZM5.12-6.88h5.808v1.136H5.12Zm5.808-3.968v1.072H5.12v-1.072ZM5.12-8.88h5.808v1.1H5.12Zm10.1,4.144V-5.744H12.128v-5.1h2.4v-.992h-2.4v-1.536h-1.2v1.536H5.12v-1.536H3.952v1.536H1.52v.992H3.952v5.1H.784v1.008H4.24A9.291,9.291,0,0,1,.624-2.064a4.154,4.154,0,0,1,.768.912A10.947,10.947,0,0,0,5.568-4.736h5.008A9.783,9.783,0,0,0,14.64-1.36a4.65,4.65,0,0,1,.784-.912,8.846,8.846,0,0,1-3.6-2.464Zm15.952-5.952v-1.088h-5.6a6.912,6.912,0,0,0-.912-1.632l-1.152.336a6.331,6.331,0,0,1,.7,1.3h-6.24V-7.2c0,2.3-.112,5.536-1.408,7.808a5.155,5.155,0,0,1,.992.672c1.376-2.4,1.584-6,1.584-8.48v-3.488ZM23.088.672h4.144V-.3H23.088ZM22.1-5.744V-8.176c1.088-.032,2.24-.112,3.376-.208.048.928.144,1.792.272,2.64Zm8.688,1.072V-5.744H26.912A20.822,20.822,0,0,1,26.64-8.5a33.751,33.751,0,0,0,3.44-.512l-.9-.88a56.5,56.5,0,0,1-8.224.816v6.8c0,.592-.272.816-.48.9a5.841,5.841,0,0,1,.448,1.024c.3-.192.8-.368,4.24-1.248-.016-.24-.032-.688-.016-1.008l-3.056.72V-4.672H25.92c.688,3.344,2.032,5.68,3.728,5.68,1.024,0,1.424-.608,1.6-2.848a2.9,2.9,0,0,1-.96-.544c-.064,1.568-.208,2.272-.56,2.272-.992,0-2.048-1.824-2.624-4.56Zm13.568,2v.912H38.1v-.912ZM38.1-.1v-.928h6.256V-.1ZM36.944,1.216H38.1V.7h6.256v.48h1.184V-3.472H36.944Zm1.04-8.176A9.367,9.367,0,0,1,39.12-5.232l.752-.432A7.109,7.109,0,0,0,38.72-7.328Zm5.04,1.728a12.183,12.183,0,0,0,1.184-1.712l-.768-.4A14.332,14.332,0,0,1,42.352-5.6Zm1.952-5.152H35.408V-11.7h9.568Zm-5.3,2.032a6.524,6.524,0,0,0-.752-1.072h4.528a11.435,11.435,0,0,1-.72,1.072Zm5.312,3.408H41.664V-7.6h3.328ZM37.312-7.6h3.232v2.656H37.312Zm8.848-5.056H34.224v4.64c0,2.544-.128,6.048-1.648,8.544a3.947,3.947,0,0,1,1.04.608c1.568-2.592,1.792-6.48,1.792-9.152V-9.424h3.28l-.736.272a4.847,4.847,0,0,1,.576.8h-2.32v4.16h9.936v-4.16H43.888c.208-.256.416-.528.624-.8l-.864-.272H46.16Z" transform="translate(911.543 2097.96)" fill="#777"/>
      <path id="Path_27063" data-name="Path 27063" d="M13.712-7.632H9.472v-1.52h4.24Zm0,2.432H9.472V-6.752h4.24Zm0,2.448H9.472V-4.3h4.24ZM8.416-10.1v8.288h6.368V-10.1H11.792c.144-.464.288-.992.416-1.5h2.944v-1.024H7.984V-11.6h3.008c-.064.48-.176,1.024-.272,1.5Zm-6.16.912h1.68v1.568H2.256Zm0-2.464h1.68V-10.1H2.256ZM6.56-10.1h-1.7v-1.552h1.7Zm0,2.48h-1.7V-9.184h1.7ZM7.888-1.552C7.472-1.936,5.712-3.28,4.944-3.824V-4.24h2.88V-5.312H4.944v-1.36H7.568v-5.92H1.3v5.92h2.56v1.36H.848V-4.24h2.72A11,11,0,0,1,.544-.7,5.315,5.315,0,0,1,1.12.368,11.633,11.633,0,0,0,3.856-2.976V1.216H4.944V-2.736A27.909,27.909,0,0,1,7.184-.624Zm2.048.064A9.354,9.354,0,0,1,6.864.5a5.316,5.316,0,0,1,.8.784A10.967,10.967,0,0,0,10.944-.9Zm2.224.656a19.243,19.243,0,0,1,2.48,2.08l.912-.64A17.08,17.08,0,0,0,13.04-1.424ZM27.776-10.96a18.832,18.832,0,0,0-.8-2.448l-1.088.272a19.11,19.11,0,0,1,.768,2.512Zm3.056.464H23.088v1.12h7.744Zm-4.56,8.864a64.626,64.626,0,0,0-1.28-6.752L24-8.128A63,63,0,0,1,25.152-1.28Zm-4.32-10.7a22.94,22.94,0,0,1-1.1,3.408l.768.288c.432-.832.928-2.24,1.344-3.344Zm-3.264,3.36a27.908,27.908,0,0,0-.9-3.36l-.864.208a27.61,27.61,0,0,1,.848,3.392ZM18.24-6a11.842,11.842,0,0,1-1.712,4.128A9.8,9.8,0,0,1,17.088-.7a14.233,14.233,0,0,0,1.936-5.04Zm4.48-.928v-1.12H20.4v-5.328H19.3v5.328H16.752v1.12H19.3v8.16h1.1v-8.16Zm-2.1,1.392c.32.608,1.168,2.528,1.44,3.312l.8-.9c-.208-.464-1.312-2.448-1.6-2.864ZM28.24-.576C28.832-2.7,29.472-5.84,29.872-8.3l-1.2-.192a66.168,66.168,0,0,1-1.488,7.92H22.448V.592H31.28V-.576Zm16.112-2.1v.912H38.1v-.912ZM38.1-.1v-.928h6.256V-.1ZM36.944,1.216H38.1V.7h6.256v.48h1.184V-3.472H36.944Zm1.04-8.176A9.367,9.367,0,0,1,39.12-5.232l.752-.432A7.109,7.109,0,0,0,38.72-7.328Zm5.04,1.728a12.183,12.183,0,0,0,1.184-1.712l-.768-.4A14.332,14.332,0,0,1,42.352-5.6Zm1.952-5.152H35.408V-11.7h9.568Zm-5.3,2.032a6.524,6.524,0,0,0-.752-1.072h4.528a11.435,11.435,0,0,1-.72,1.072Zm5.312,3.408H41.664V-7.6h3.328ZM37.312-7.6h3.232v2.656H37.312Zm8.848-5.056H34.224v4.64c0,2.544-.128,6.048-1.648,8.544a3.947,3.947,0,0,1,1.04.608c1.568-2.592,1.792-6.48,1.792-9.152V-9.424h3.28l-.736.272a4.847,4.847,0,0,1,.576.8h-2.32v4.16h9.936v-4.16H43.888c.208-.256.416-.528.624-.8l-.864-.272H46.16Z" transform="translate(911.543 1868.85)" fill="#777"/>
      <path id="Path_27068" data-name="Path 27068" d="M6.86-6.92A28.673,28.673,0,0,1,3.4-4.16,13.11,13.11,0,0,1,1.28-7.7H8.6V-8.98H.7v-1.78H7.08V-12H.7v-1.68H7.98v-1.28H.7v-1.78H-.78v1.78H-7.84v1.28H-.78V-12H-6.82v1.24H-.78v1.78H-8.62V-7.7h6.6A21.131,21.131,0,0,1-9.2-3.68a6.024,6.024,0,0,1,.96,1.2A24.106,24.106,0,0,0-4.8-4.1v2.96A1.356,1.356,0,0,1-5.56.16a5.267,5.267,0,0,1,.64,1.36C-4.46,1.2-3.74.96,1.8-.82A9.774,9.774,0,0,1,1.56-2.1L-3.28-.64V-5.06A17.8,17.8,0,0,0-.16-7.7,13.349,13.349,0,0,0,8.26.86,6.2,6.2,0,0,1,9.24-.42,12.228,12.228,0,0,1,4.22-3.28,32.5,32.5,0,0,0,8.08-6.06ZM5.08,19.46a11.122,11.122,0,0,1-3.72,4.56,12.645,12.645,0,0,1-3.7-4.56ZM-5.52,17.9V14.42h5.3v3.64h-5.3ZM6.12,18l-.28.06H1.3V14.42H6.4a27.254,27.254,0,0,1-1.14,2.56l1.36.42a31.23,31.23,0,0,0,1.84-4.18l-1.12-.3-.28.06H1.3V10.24H-.22v2.74H-6.98v4.9c0,2.9-.24,6.82-2.36,9.6a5.05,5.05,0,0,1,1.18.98c1.94-2.52,2.5-6.1,2.62-9h1.66a14.7,14.7,0,0,0,3.96,5.4,20.815,20.815,0,0,1-6.34,2.3,6.013,6.013,0,0,1,.86,1.36,21.637,21.637,0,0,0,6.72-2.7,18.645,18.645,0,0,0,6.86,2.76,6.471,6.471,0,0,1,.94-1.38,17.775,17.775,0,0,1-6.48-2.32A13.543,13.543,0,0,0,7.1,18.56ZM5.44,50.66V51.8H-2.38V50.66Zm-7.82,3.22V52.72H5.44v1.16Zm-1.44,1.64h1.44v-.64H5.44v.6H6.92V49.66H-3.82Zm1.3-10.22A11.709,11.709,0,0,1-1.1,47.46l.94-.54A8.886,8.886,0,0,0-1.6,44.84Zm6.3,2.16a15.229,15.229,0,0,0,1.48-2.14l-.96-.5A17.916,17.916,0,0,1,2.94,47Zm2.44-6.44H-5.74V39.38H6.22ZM-.4,43.56a8.155,8.155,0,0,0-.94-1.34H4.32a14.293,14.293,0,0,1-.9,1.34Zm6.64,4.26H2.08V44.5H6.24Zm-9.6-3.32H.68v3.32H-3.36ZM7.7,38.18H-7.22v5.8c0,3.18-.16,7.56-2.06,10.68a4.934,4.934,0,0,1,1.3.76c1.96-3.24,2.24-8.1,2.24-11.44V42.22h4.1l-.92.34a6.059,6.059,0,0,1,.72,1h-2.9v5.2H7.68v-5.2H4.86c.26-.32.52-.66.78-1l-1.08-.34H7.7ZM-5.34,77.04V70.5h2V69.12h-2V64.5H-6.72v4.62H-8.84V70.5h2.12v7.04c-.9.32-1.7.62-2.38.82l.48,1.48c1.6-.62,3.64-1.44,5.54-2.22l-.26-1.32Zm11.06-.92v1.66H-.12V76.12ZM-.12,80.38v-1.5H5.72v1.5Zm-1.38,2.1H-.12v-.94H5.72v.94H7.14v-7.5H-1.5Zm.36-17.64a15.887,15.887,0,0,1,1.4,2.32l1.28-.62A9.713,9.713,0,0,0,.1,64.32Zm.46,4.28A10.523,10.523,0,0,1,.68,71.98l.9-.38a11.417,11.417,0,0,0-1.4-2.8Zm5.22,2.9a30.666,30.666,0,0,0,1.82-2.84L5.34,68.8a17.594,17.594,0,0,1-1.56,2.9Zm2.26.66H3.36V68.22H6.8Zm-8.1-4.46H2.2v4.46H-1.3Zm6.64-1.06c.54-.7,1.14-1.58,1.68-2.4L5.5,64.22a18.073,18.073,0,0,1-1.7,2.94H-2.54v6.58H8.08V67.16ZM8.8,93.68V92.32H-7.32v5.82c0,3.14-.16,7.5-1.92,10.62a4.97,4.97,0,0,1,1.26.74c1.86-3.24,2.12-8.04,2.12-11.34V93.68ZM-2.64,98H5.38v1.34H-2.64Zm0-2.24H5.38v1.28H-2.64Zm9.48,4.6v-5.6H-4.04v5.6Zm2.2,4.38H2.28v-.38A21.727,21.727,0,0,0,7.1,102.2l-.9-.78-.32.08H-4.1v1.08H4.08a22.261,22.261,0,0,1-3.24,1.16v1H-5.72v1.2H.84v1.92c0,.26-.1.34-.42.34-.32.02-1.52.02-2.78-.02a7.214,7.214,0,0,1,.52,1.22,13.449,13.449,0,0,0,3.3-.2c.62-.2.82-.54.82-1.3v-1.96H9.04Z" transform="translate(1029 1896)" fill="#fff"/>
      <path id="Path_27064" data-name="Path 27064" d="M8.928-3.328V-5.552H12.72v2.224ZM7.776-5.552v2.224H4.048a13.7,13.7,0,0,0,.208-2.224Zm1.712-5.9a14.14,14.14,0,0,1-1.12,1.7H4.256a16.188,16.188,0,0,0,1.36-1.7ZM4.256-8.688h3.52v2.112H4.256ZM12.72-6.576H8.928V-8.688H12.72ZM13.872-9.76H9.664a14.32,14.32,0,0,0,1.456-2.224l-.8-.528-.192.064H6.272c.144-.256.288-.512.432-.752l-1.3-.224A13.972,13.972,0,0,1,.96-8.416a3.618,3.618,0,0,1,.864.848A16.463,16.463,0,0,0,3.1-8.608v2.816C3.1-3.76,2.848-1.3.592.448a3.727,3.727,0,0,1,.816.848,6.981,6.981,0,0,0,2.4-3.584H12.72V-.3c0,.32-.112.416-.448.416-.352.032-1.6.032-2.9-.016A4.144,4.144,0,0,1,9.84,1.248a12.972,12.972,0,0,0,3.248-.208c.592-.176.784-.56.784-1.328Zm14.48,7.088v.912H22.1v-.912ZM22.1-.1v-.928h6.256V-.1ZM20.944,1.216H22.1V.7h6.256v.48h1.184V-3.472H20.944Zm1.04-8.176A9.368,9.368,0,0,1,23.12-5.232l.752-.432A7.109,7.109,0,0,0,22.72-7.328Zm5.04,1.728a12.183,12.183,0,0,0,1.184-1.712l-.768-.4A14.332,14.332,0,0,1,26.352-5.6Zm1.952-5.152H19.408V-11.7h9.568Zm-5.3,2.032a6.524,6.524,0,0,0-.752-1.072h4.528a11.434,11.434,0,0,1-.72,1.072Zm5.312,3.408H25.664V-7.6h3.328ZM21.312-7.6h3.232v2.656H21.312Zm8.848-5.056H18.224v4.64c0,2.544-.128,6.048-1.648,8.544a3.947,3.947,0,0,1,1.04.608c1.568-2.592,1.792-6.48,1.792-9.152V-9.424h3.28l-.736.272a4.847,4.847,0,0,1,.576.8h-2.32v4.16h9.936v-4.16H27.888c.208-.256.416-.528.624-.8l-.864-.272H30.16Z" transform="translate(911.543 1832.528)" fill="#777"/>
      <path id="Path_27065" data-name="Path 27065" d="M12.064-6.032A8.9,8.9,0,0,1,9.088-2.384a10.116,10.116,0,0,1-2.96-3.648ZM3.584-7.28v-2.784h4.24v2.912H3.584ZM12.9-7.2l-.224.048H9.04v-2.912h4.08a21.8,21.8,0,0,1-.912,2.048L13.3-7.68a24.984,24.984,0,0,0,1.472-3.344l-.9-.24-.224.048H9.04v-2.192H7.824v2.192H2.416V-7.3c0,2.32-.192,5.456-1.888,7.68a4.04,4.04,0,0,1,.944.784c1.552-2.016,2-4.88,2.1-7.2H4.9a11.758,11.758,0,0,0,3.168,4.32A16.652,16.652,0,0,1,2.992.128,4.81,4.81,0,0,1,3.68,1.216,17.309,17.309,0,0,0,9.056-.944a14.916,14.916,0,0,0,5.488,2.208A5.177,5.177,0,0,1,15.3.16,14.22,14.22,0,0,1,10.112-1.7,10.834,10.834,0,0,0,13.68-6.752Zm5.872-1.872a15.785,15.785,0,0,1,1.776,1.984L21.3-7.68v1.488c-.96.624-1.92,1.216-2.608,1.6.064-.928.08-1.808.08-2.592ZM21.3-11.7v3.984a15.128,15.128,0,0,0-1.888-2l-.64.5V-11.7Zm1.056-1.1H17.776v5.632c0,2.32-.1,5.44-1.184,7.664a3.109,3.109,0,0,1,.816.688,15.956,15.956,0,0,0,1.28-5.68l.528.9c.64-.48,1.36-1.008,2.08-1.568v4.9c0,.224-.1.3-.3.32-.208,0-.88.016-1.648-.016a3.646,3.646,0,0,1,.336,1.1A5.742,5.742,0,0,0,21.824.912c.384-.192.528-.528.528-1.168Zm7.024,5.76a9.119,9.119,0,0,0,1.712-.112c-.048-.256-.08-.7-.128-1.024a12.884,12.884,0,0,1-1.648.1H25.44c-.672,0-.832-.224-.832-.8v-1.488H30.5v-1.04H24.608v-1.856H23.44v4.352c0,1.36.464,1.872,2,1.872Zm-.032,2.256v1.632H24.736V-4.784ZM24.736-.464V-2.176h4.608V-.464Zm-1.12,1.68h1.12V.56h4.608v.592h1.168V-5.792h-6.9ZM44.272-9.92h1.072v-1.12H47.28v-.992H45.344V-13.36H44.272v1.328H43.024v.992h1.248Zm-4.032.048h1.088v-1.152H42.56v-1.008H41.328v-1.28H40.24v1.28H38.224v1.008H40.24Zm-5.552.784a17.308,17.308,0,0,1,1.36,1.856l.592-.4v1.808c-.768.5-1.472.928-2.032,1.248.064-.928.08-1.808.08-2.576Zm1.952-2.624v3.776a16.406,16.406,0,0,0-1.328-1.68l-.624.4v-2.5Zm3.408,5.12H45.04v1.136H40.048Zm0-1.968H45.04v1.136H40.048Zm7.04,6.176v-1.04h-4.08c.064-.368.128-.768.16-1.168h3.008V-9.424H38.96v4.832H42a11.461,11.461,0,0,1-.16,1.168H38.208v1.04h3.344C41.024-1.072,39.936-.208,37.6.336a2.584,2.584,0,0,0,.048-.528V-12.8h-4v5.664c0,2.288-.08,5.424-1.088,7.68a3.316,3.316,0,0,1,.832.736,16.828,16.828,0,0,0,1.216-5.712l.416.848L36.64-4.816V-.208c0,.224-.08.3-.288.3-.192,0-.816.016-1.52-.016a5.314,5.314,0,0,1,.32,1.056A4.687,4.687,0,0,0,37.136.928.777.777,0,0,0,37.6.352a3.01,3.01,0,0,1,.592.9c2.768-.672,3.984-1.84,4.56-3.632Zm-4.352.928A43.333,43.333,0,0,1,46.656,1.2l.72-.88c-.912-.672-2.672-1.776-3.952-2.528Z" transform="translate(911.543 1799)" fill="#777"/>
      <g id="Group_18478" data-name="Group 18478" transform="translate(496.631 1790)">
        <path id="Path_27039" data-name="Path 27039" d="M0,0H405.133" transform="translate(0.699)" fill="none" stroke="#777" stroke-width="3"/>
        <g id="Group_18471" data-name="Group 18471" transform="translate(0.369 12)">
          <g id="Group_18408" data-name="Group 18408" transform="translate(0 26.098)">
            <path id="Path_26913" data-name="Path 26913" d="M.71,10.712C7.691,8.168,14.607,7.58,21.588,7.45c6.981.065,13.9.652,20.878,3.262-6.981,2.61-13.9,3.2-20.878,3.262C14.607,13.844,7.691,13.257.71,10.712Z" transform="translate(-0.71 -7.45)" fill="#c5c5c5"/>
          </g>
          <g id="Group_18409" data-name="Group 18409" transform="translate(55.131 26.098)">
            <path id="Path_26914" data-name="Path 26914" d="M9.16,10.712c6.981-2.545,13.9-3.132,20.878-3.262,6.981.065,13.9.652,20.878,3.262-6.981,2.61-13.9,3.2-20.878,3.262C23.057,13.844,16.076,13.257,9.16,10.712Z" transform="translate(-9.16 -7.45)" fill="#c5c5c5"/>
          </g>
          <g id="Group_18410" data-name="Group 18410" transform="translate(103.415 26.098)">
            <path id="Path_26915" data-name="Path 26915" d="M17.6,10.712C24.581,8.168,31.5,7.58,38.478,7.45c6.981.065,13.9.652,20.878,3.262-6.981,2.61-13.9,3.2-20.878,3.262C31.562,13.844,24.581,13.257,17.6,10.712Z" transform="translate(-17.6 -7.45)" fill="#c5c5c5"/>
          </g>
          <g id="Group_18411" data-name="Group 18411" transform="translate(155.153 26.098)">
            <path id="Path_26916" data-name="Path 26916" d="M26.05,10.712c6.981-2.545,13.9-3.132,20.878-3.262,6.981.065,13.9.652,20.878,3.262-6.981,2.61-13.9,3.2-20.878,3.262C39.947,13.844,33.031,13.257,26.05,10.712Z" transform="translate(-26.05 -7.45)" fill="#c5c5c5"/>
          </g>
          <g id="Group_18412" data-name="Group 18412" transform="translate(206.891 26.098)">
            <path id="Path_26917" data-name="Path 26917" d="M34.5,10.712C41.481,8.168,48.4,7.58,55.378,7.45c6.981.065,13.9.652,20.878,3.262-6.981,2.61-13.9,3.2-20.878,3.262C48.4,13.844,41.416,13.257,34.5,10.712Z" transform="translate(-34.5 -7.45)" fill="#c5c5c5"/>
          </g>
          <g id="Group_18413" data-name="Group 18413" transform="translate(258.629 26.098)">
            <path id="Path_26918" data-name="Path 26918" d="M42.95,10.712c6.981-2.545,13.9-3.132,20.878-3.262,6.981.065,13.9.652,20.878,3.262-6.981,2.61-13.9,3.2-20.878,3.262C56.847,13.844,49.866,13.257,42.95,10.712Z" transform="translate(-42.95 -7.45)" fill="#c5c5c5"/>
          </g>
          <g id="Group_18414" data-name="Group 18414" transform="translate(306.912 26.098)">
            <path id="Path_26919" data-name="Path 26919" d="M51.39,10.712c6.981-2.545,13.9-3.132,20.878-3.262,6.981.065,13.9.652,20.878,3.262-6.981,2.61-13.9,3.2-20.878,3.262C65.287,13.844,58.371,13.257,51.39,10.712Z" transform="translate(-51.39 -7.45)" fill="#c5c5c5"/>
          </g>
          <g id="Group_18415" data-name="Group 18415" transform="translate(362.043 26.098)">
            <path id="Path_26920" data-name="Path 26920" d="M59.84,10.712c6.981-2.545,13.9-3.132,20.878-3.262,6.981.065,13.9.652,20.878,3.262-6.981,2.61-13.9,3.2-20.878,3.262C73.737,13.844,66.821,13.257,59.84,10.712Z" transform="translate(-59.84 -7.45)" fill="#c5c5c5"/>
          </g>
          <g id="Group_18425" data-name="Group 18425" transform="translate(26.098 13.049)">
            <path id="Path_26930" data-name="Path 26930" d="M4.71,8.712c6.981-2.545,13.9-3.132,20.878-3.262,6.981.065,13.9.652,20.878,3.262-6.981,2.61-13.9,3.2-20.878,3.262C18.607,11.844,11.691,11.257,4.71,8.712Z" transform="translate(-4.71 -5.45)" fill="#c5c5c5"/>
          </g>
          <g id="Group_18426" data-name="Group 18426" transform="translate(76.229 13.049)">
            <path id="Path_26931" data-name="Path 26931" d="M13.16,8.712c6.981-2.545,13.9-3.132,20.878-3.262,6.981.065,13.9.652,20.878,3.262-6.981,2.61-13.9,3.2-20.878,3.262C27.057,11.844,20.076,11.257,13.16,8.712Z" transform="translate(-13.16 -5.45)" fill="#c5c5c5"/>
          </g>
          <g id="Group_18427" data-name="Group 18427" transform="translate(127.906 13.049)">
            <path id="Path_26932" data-name="Path 26932" d="M21.6,8.712C28.581,6.168,35.5,5.58,42.478,5.45c6.981.065,13.9.652,20.878,3.262-6.981,2.61-13.9,3.2-20.878,3.262C35.562,11.844,28.581,11.257,21.6,8.712Z" transform="translate(-21.6 -5.45)" fill="#c5c5c5"/>
          </g>
          <g id="Group_18428" data-name="Group 18428" transform="translate(179.644 13.049)">
            <path id="Path_26933" data-name="Path 26933" d="M30.05,8.712c6.981-2.545,13.9-3.132,20.878-3.262,6.981.065,13.9.652,20.878,3.262-6.981,2.61-13.9,3.2-20.878,3.262C43.947,11.844,37.031,11.257,30.05,8.712Z" transform="translate(-30.05 -5.45)" fill="#c5c5c5"/>
          </g>
          <g id="Group_18429" data-name="Group 18429" transform="translate(231.382 13.049)">
            <path id="Path_26934" data-name="Path 26934" d="M38.5,8.712C45.481,6.168,52.4,5.58,59.378,5.45c6.981.065,13.9.652,20.878,3.262-6.981,2.61-13.9,3.2-20.878,3.262C52.4,11.844,45.416,11.257,38.5,8.712Z" transform="translate(-38.5 -5.45)" fill="#c5c5c5"/>
          </g>
          <g id="Group_18430" data-name="Group 18430" transform="translate(283.12 13.049)">
            <path id="Path_26935" data-name="Path 26935" d="M46.95,8.712c6.981-2.545,13.9-3.132,20.878-3.262,6.981.065,13.9.652,20.878,3.262-6.981,2.61-13.9,3.2-20.878,3.262C60.847,11.844,53.866,11.257,46.95,8.712Z" transform="translate(-46.95 -5.45)" fill="#c5c5c5"/>
          </g>
          <g id="Group_18431" data-name="Group 18431" transform="translate(333.01 13.049)">
            <path id="Path_26936" data-name="Path 26936" d="M55.39,8.712c6.981-2.545,13.9-3.132,20.878-3.262,6.981.065,13.9.652,20.878,3.262-6.981,2.61-13.9,3.2-20.878,3.262C69.287,11.844,62.371,11.257,55.39,8.712Z" transform="translate(-55.39 -5.45)" fill="#c5c5c5"/>
          </g>
          <g id="Group_18441" data-name="Group 18441" transform="translate(0 0)">
            <path id="Path_26946" data-name="Path 26946" d="M.71,6.712C7.691,4.168,14.607,3.58,21.588,3.45c6.981.065,13.9.652,20.878,3.262-6.981,2.61-13.9,3.2-20.878,3.262C14.607,9.844,7.691,9.257.71,6.712Z" transform="translate(-0.71 -3.45)" fill="#c5c5c5"/>
          </g>
          <g id="Group_18442" data-name="Group 18442" transform="translate(55.131 0)">
            <path id="Path_26947" data-name="Path 26947" d="M9.16,6.712c6.981-2.545,13.9-3.132,20.878-3.262,6.981.065,13.9.652,20.878,3.262-6.981,2.61-13.9,3.2-20.878,3.262C23.057,9.844,16.076,9.257,9.16,6.712Z" transform="translate(-9.16 -3.45)" fill="#c5c5c5"/>
          </g>
          <g id="Group_18443" data-name="Group 18443" transform="translate(103.415 0)">
            <path id="Path_26948" data-name="Path 26948" d="M17.6,6.712C24.581,4.168,31.5,3.58,38.478,3.45c6.981.065,13.9.652,20.878,3.262-6.981,2.61-13.9,3.2-20.878,3.262C31.562,9.844,24.581,9.257,17.6,6.712Z" transform="translate(-17.6 -3.45)" fill="#c5c5c5"/>
          </g>
          <g id="Group_18444" data-name="Group 18444" transform="translate(155.153 0)">
            <path id="Path_26949" data-name="Path 26949" d="M26.05,6.712c6.981-2.545,13.9-3.132,20.878-3.262,6.981.065,13.9.652,20.878,3.262-6.981,2.61-13.9,3.2-20.878,3.262C39.947,9.844,33.031,9.257,26.05,6.712Z" transform="translate(-26.05 -3.45)" fill="#c5c5c5"/>
          </g>
          <g id="Group_18445" data-name="Group 18445" transform="translate(206.891 0)">
            <path id="Path_26950" data-name="Path 26950" d="M34.5,6.712C41.481,4.168,48.4,3.58,55.378,3.45c6.981.065,13.9.652,20.878,3.262-6.981,2.61-13.9,3.2-20.878,3.262C48.4,9.844,41.416,9.257,34.5,6.712Z" transform="translate(-34.5 -3.45)" fill="#c5c5c5"/>
          </g>
          <g id="Group_18446" data-name="Group 18446" transform="translate(258.629 0)">
            <path id="Path_26951" data-name="Path 26951" d="M42.95,6.712c6.981-2.545,13.9-3.132,20.878-3.262,6.981.065,13.9.652,20.878,3.262-6.981,2.61-13.9,3.2-20.878,3.262C56.847,9.844,49.866,9.257,42.95,6.712Z" transform="translate(-42.95 -3.45)" fill="#c5c5c5"/>
          </g>
          <g id="Group_18447" data-name="Group 18447" transform="translate(306.912 0)">
            <path id="Path_26952" data-name="Path 26952" d="M51.39,6.712c6.981-2.545,13.9-3.132,20.878-3.262,6.981.065,13.9.652,20.878,3.262-6.981,2.61-13.9,3.2-20.878,3.262C65.287,9.844,58.371,9.257,51.39,6.712Z" transform="translate(-51.39 -3.45)" fill="#c5c5c5"/>
          </g>
          <g id="Group_18448" data-name="Group 18448" transform="translate(362.043 0)">
            <path id="Path_26953" data-name="Path 26953" d="M59.84,6.712c6.981-2.545,13.9-3.132,20.878-3.262,6.981.065,13.9.652,20.878,3.262-6.981,2.61-13.9,3.2-20.878,3.262C73.737,9.844,66.821,9.257,59.84,6.712Z" transform="translate(-59.84 -3.45)" fill="#c5c5c5"/>
          </g>
        </g>
        <g id="Group_18472" data-name="Group 18472" transform="translate(9.369 55)">
          <ellipse id="Ellipse_350" data-name="Ellipse 350" cx="8.482" cy="8.482" rx="8.482" ry="8.482" transform="translate(61.46 17.661)" fill="#c5c5c5"/>
          <ellipse id="Ellipse_351" data-name="Ellipse 351" cx="8.482" cy="8.482" rx="8.482" ry="8.482" transform="translate(0 17.661)" fill="#c5c5c5"/>
          <ellipse id="Ellipse_352" data-name="Ellipse 352" cx="8.482" cy="8.482" rx="8.482" ry="8.482" transform="translate(122.92 17.661)" fill="#c5c5c5"/>
          <ellipse id="Ellipse_353" data-name="Ellipse 353" cx="8.482" cy="8.482" rx="8.482" ry="8.482" transform="translate(184.381 17.661)" fill="#c5c5c5"/>
          <ellipse id="Ellipse_354" data-name="Ellipse 354" cx="8.482" cy="8.482" rx="8.482" ry="8.482" transform="translate(245.841 17.661)" fill="#c5c5c5"/>
          <ellipse id="Ellipse_355" data-name="Ellipse 355" cx="8.482" cy="8.482" rx="8.482" ry="8.482" transform="translate(307.301 17.661)" fill="#c5c5c5"/>
          <ellipse id="Ellipse_356" data-name="Ellipse 356" cx="8.482" cy="8.482" rx="8.482" ry="8.482" transform="translate(368.761 17.661)" fill="#c5c5c5"/>
          <ellipse id="Ellipse_366" data-name="Ellipse 366" cx="8.482" cy="8.482" rx="8.482" ry="8.482" transform="translate(30.73 0)" fill="#c5c5c5"/>
          <ellipse id="Ellipse_368" data-name="Ellipse 368" cx="8.482" cy="8.482" rx="8.482" ry="8.482" transform="translate(92.19 0)" fill="#c5c5c5"/>
          <ellipse id="Ellipse_369" data-name="Ellipse 369" cx="8.482" cy="8.482" rx="8.482" ry="8.482" transform="translate(153.65 0)" fill="#c5c5c5"/>
          <ellipse id="Ellipse_371" data-name="Ellipse 371" cx="8.482" cy="8.482" rx="8.482" ry="8.482" transform="translate(215.111 0)" fill="#c5c5c5"/>
          <ellipse id="Ellipse_373" data-name="Ellipse 373" cx="8.482" cy="8.482" rx="8.482" ry="8.482" transform="translate(276.571 0)" fill="#c5c5c5"/>
          <ellipse id="Ellipse_374" data-name="Ellipse 374" cx="8.482" cy="8.482" rx="8.482" ry="8.482" transform="translate(338.031 0)" fill="#c5c5c5"/>
        </g>
        <g id="Group_18473" data-name="Group 18473" transform="translate(1.398 269.92)">
          <path id="Path_27011" data-name="Path 27011" d="M30.713,81.78H10.624L.58,64.375,10.624,46.97H30.713L40.757,64.375Z" transform="translate(-0.58 -29.601)" fill="none" stroke="#c5c5c5" stroke-linecap="round" stroke-miterlimit="10" stroke-width="3"/>
          <path id="Path_27012" data-name="Path 27012" d="M39.043,86.544H18.954L8.91,69.139,18.954,51.77H39.043L49.087,69.139Z" transform="translate(21.295 -51.77)" fill="none" stroke="#c5c5c5" stroke-linecap="round" stroke-miterlimit="10" stroke-width="3"/>
          <path id="Path_27013" data-name="Path 27013" d="M47.363,81.78H27.274L17.23,64.375,27.274,46.97H47.363L57.407,64.375Z" transform="translate(43.144 -29.601)" fill="none" stroke="#c5c5c5" stroke-linecap="round" stroke-miterlimit="10" stroke-width="3"/>
          <path id="Path_27014" data-name="Path 27014" d="M55.693,86.544H35.6L25.56,69.139,35.6,51.77H55.693L65.737,69.139Z" transform="translate(65.019 -51.77)" fill="none" stroke="#c5c5c5" stroke-linecap="round" stroke-miterlimit="10" stroke-width="3"/>
          <path id="Path_27015" data-name="Path 27015" d="M64.013,81.78H43.924L33.88,64.375,43.924,46.97H64.013L74.057,64.375Z" transform="translate(86.868 -29.601)" fill="none" stroke="#c5c5c5" stroke-linecap="round" stroke-miterlimit="10" stroke-width="3"/>
          <path id="Path_27016" data-name="Path 27016" d="M72.343,86.544H52.254L42.21,69.139,52.254,51.77H72.343L82.387,69.139Z" transform="translate(108.743 -51.77)" fill="none" stroke="#c5c5c5" stroke-linecap="round" stroke-miterlimit="10" stroke-width="3"/>
          <path id="Path_27042" data-name="Path 27042" d="M72.343,86.544H52.254L42.21,69.139,52.254,51.77H72.343L82.387,69.139Z" transform="translate(289.746 -51.77)" fill="none" stroke="#c5c5c5" stroke-linecap="round" stroke-miterlimit="10" stroke-width="3"/>
          <path id="Path_27017" data-name="Path 27017" d="M80.663,81.78H60.574L50.53,64.375,60.574,46.97H80.663l10.08,17.405Z" transform="translate(130.592 -29.601)" fill="none" stroke="#c5c5c5" stroke-linecap="round" stroke-miterlimit="10" stroke-width="3"/>
          <path id="Path_27040" data-name="Path 27040" d="M80.663,81.78H60.574L50.53,64.375,60.574,46.97H80.663l10.08,17.405Z" transform="translate(311.595 -29.601)" fill="none" stroke="#c5c5c5" stroke-linecap="round" stroke-miterlimit="10" stroke-width="3"/>
          <path id="Path_27018" data-name="Path 27018" d="M88.993,86.544H68.9L58.86,69.139,68.9,51.77H88.993L99.037,69.139Z" transform="translate(152.467 -51.77)" fill="none" stroke="#c5c5c5" stroke-linecap="round" stroke-miterlimit="10" stroke-width="3"/>
          <path id="Path_27019" data-name="Path 27019" d="M97.323,81.78H77.234L67.19,64.375,77.234,46.97H97.323l10.044,17.405Z" transform="translate(174.342 -29.601)" fill="none" stroke="#c5c5c5" stroke-linecap="round" stroke-miterlimit="10" stroke-width="3"/>
          <path id="Path_27020" data-name="Path 27020" d="M105.679,86.544H85.554L75.51,69.139,85.554,51.77h20.125l10.044,17.369Z" transform="translate(196.191 -51.77)" fill="none" stroke="#c5c5c5" stroke-linecap="round" stroke-miterlimit="10" stroke-width="3"/>
          <path id="Path_27021" data-name="Path 27021" d="M113.973,81.78H93.884L83.84,64.375,93.884,46.97h20.088l10.044,17.405Z" transform="translate(218.066 -29.601)" fill="none" stroke="#c5c5c5" stroke-linecap="round" stroke-miterlimit="10" stroke-width="3"/>
        </g>
        <path id="Path_27037" data-name="Path 27037" d="M56.47,76.768c-15.562,0-41.959-5.778-52.6-22.129C-.067,48.6-.986,42.951,1.049,37.895,5.58,26.6,23.244,22.464,24.032,22.267A1.612,1.612,0,0,1,26,23.514a1.643,1.643,0,0,1-1.248,1.97c-.2,0-16.744,3.94-20.684,13.658-1.576,4.006-.722,8.668,2.561,13.724C15.5,66.459,37.887,73.091,54.959,73.485c7.748.2,11.032-.985,11.491-1.642,2.627-4.728,1.839-17.795-3.612-28.826-3.809-7.683-11.1-17.27-24.3-19.24a1.649,1.649,0,0,1-1.379-1.9A1.555,1.555,0,0,1,39,20.494c11.36,1.707,20.881,9.193,26.725,21.078C71.9,54.18,72.36,67.9,69.274,73.485c-1.116,1.97-4.728,3.086-10.835,3.283Zm.2-26A11.623,11.623,0,1,0,45.044,62.387,11.644,11.644,0,0,0,56.667,50.765Zm-3.283,0a8.339,8.339,0,1,1-8.339-8.339A8.268,8.268,0,0,1,53.383,50.765ZM84.377,111.7a13.855,13.855,0,1,0-13.855,13.855A13.9,13.9,0,0,0,84.377,111.7Zm-3.283,0a10.572,10.572,0,1,1-10.572-10.572A10.565,10.565,0,0,1,81.094,111.7Zm-41.04,41.171a11.819,11.819,0,1,0-11.819,11.82A11.854,11.854,0,0,0,40.054,152.872Zm-3.283,0a8.536,8.536,0,1,1-8.536-8.536A8.519,8.519,0,0,1,36.77,152.872Zm89.434-2.167a10.047,10.047,0,1,0-10.047,10.047A10.089,10.089,0,0,0,126.2,150.705Zm-3.283,0a6.763,6.763,0,1,1-6.763-6.763A6.754,6.754,0,0,1,122.921,150.705Zm44.192-13.658a6.829,6.829,0,1,0-6.829,6.829A6.866,6.866,0,0,0,167.113,137.047Zm-3.283,0a3.546,3.546,0,1,1-3.546-3.546A3.531,3.531,0,0,1,163.83,137.047ZM159.5,90.82a11.491,11.491,0,1,0-11.491,11.491A11.5,11.5,0,0,0,159.5,90.82Zm-3.283,0a8.208,8.208,0,1,1-8.208-8.208A8.211,8.211,0,0,1,156.213,90.82ZM103.025,26.207A11.623,11.623,0,1,0,91.4,37.829,11.644,11.644,0,0,0,103.025,26.207Zm-3.283,0A8.339,8.339,0,1,1,91.4,17.867,8.268,8.268,0,0,1,99.742,26.207Zm47.8,1.642a7.354,7.354,0,1,0-7.354,7.354A7.342,7.342,0,0,0,147.545,27.848Zm-3.283,0a4.071,4.071,0,1,1-4.071-4.071A4.092,4.092,0,0,1,144.262,27.848Zm51.809,8.142a10.966,10.966,0,1,0-10.966,10.966A10.985,10.985,0,0,0,196.071,35.991Zm-3.283,0a7.683,7.683,0,1,1-7.683-7.683A7.692,7.692,0,0,1,192.788,35.991ZM96.525,67.444a1.657,1.657,0,1,0-1.839-2.758c-1.51.985-6.041,3.283-8.93,2.1-1.445-.591-2.43-2.1-2.889-4.531-2.3-11.557-13.461-34.6-18.517-39.792-.985-1.051-3.48-3.612-2.889-5.647.525-1.839,3.48-3.546,8.4-4.793,14.774-3.677,32.766-7.683,32.963-7.748l.46-.2a5.783,5.783,0,0,1,4.728-.328c1.9.854,3.283,3.283,4.005,6.96,2.561,12.607,8.6,40.318,8.6,40.318l.131.394a5.334,5.334,0,0,1,.131,4.137c-.722,1.576-2.43,2.758-5.187,3.546l-9.718,2.758a1.659,1.659,0,0,0-1.116,2.036,1.63,1.63,0,0,0,2.036,1.116l9.718-2.758c3.743-1.051,6.172-2.889,7.289-5.45a8.764,8.764,0,0,0-.131-6.7c-.525-2.364-6.107-28.038-8.536-40.121-.985-4.859-2.955-7.945-5.91-9.324a8.994,8.994,0,0,0-7.486.328c-2.036.46-18.911,4.2-32.832,7.683-6.3,1.773-9.85,4.071-10.7,7.223-1.116,3.874,2.3,7.42,3.743,8.865,4.137,4.268,15.365,26.857,17.664,38.151.722,3.546,2.364,5.844,4.859,6.895a8.317,8.317,0,0,0,3.086.591C91.994,70.464,96.328,67.575,96.525,67.444Zm44.192-6.3c.657-.2,1.576-.525,2.561-.788a28.017,28.017,0,0,0,6.566-2.43c2.3-1.379,4.728-3.677,4.2-13.921-.2-4.2-.131-7.748-.131-7.748a1.67,1.67,0,0,0-1.576-1.707,1.551,1.551,0,0,0-1.707,1.576c0,.131-.131,3.743.131,8.011.46,9.127-1.576,10.309-2.889,11.1a38.189,38.189,0,0,1-5.581,1.9c-1.051.328-2.036.591-2.692.854-2.233.788-3.94.788-4.925.131a3.218,3.218,0,0,1-1.248-2.364c-.066-.263-3.546-26-4.728-33.029a5.09,5.09,0,0,1,.657-4.137,4.268,4.268,0,0,1,2.758-1.313c.066,0,8.6-1.379,15.1-1.707,1.9-.066,3.283.263,4.005.985a2.245,2.245,0,0,1,.657,1.576v4.005a1.642,1.642,0,0,0,3.283,0V18.261a5.39,5.39,0,0,0-1.51-3.94c-1.445-1.445-3.677-2.1-6.5-1.97-6.7.328-15.1,1.707-15.234,1.707a7.069,7.069,0,0,0-4.925,2.43c-1.379,1.642-1.839,3.94-1.379,6.763,1.182,6.96,4.662,32.7,4.728,32.832a6.152,6.152,0,0,0,6.435,5.778A12.282,12.282,0,0,0,140.716,61.14Zm36.575,10.112c7.945-2.43,28.826-18.78,33.62-36.772,2.5-9.39.394-17.664-6.238-24.69a1.587,1.587,0,0,0-2.3-.066,1.645,1.645,0,0,0-.066,2.3c5.778,6.107,7.617,13.4,5.45,21.6-4.4,16.613-24.23,32.307-31.387,34.474-4.4,1.313-7.814,1.051-10.178-.854-3.546-2.889-4.99-9.718-4.2-19.83,1.51-18.583,26.266-35,26.528-35.2a1.657,1.657,0,0,0-1.839-2.758c-1.051.722-26.331,17.467-27.973,37.691-.919,11.426.919,19.043,5.384,22.654a11.239,11.239,0,0,0,7.223,2.364A18.421,18.421,0,0,0,177.291,71.252ZM78.4,135.8c6.107-.525,25.675-6.041,31.584-17.992,5.581-11.294,4.6-21.6-3.021-31.387a1.636,1.636,0,0,0-2.561,2.036c6.895,8.865,7.748,17.729,2.692,27.973-4.99,10.112-22.457,15.562-28.958,16.153-3.612.263-20.487-.328-30.468-9.521-5.122-4.728-7.617-10.9-7.617-18.386A15.694,15.694,0,0,1,45.5,92.4C58.768,80.248,91.6,82.94,91.928,82.94A1.6,1.6,0,0,0,93.7,81.43a1.632,1.632,0,0,0-1.51-1.773c-1.445-.131-34.539-2.824-48.92,10.309a19.321,19.321,0,0,0-6.5,14.709c-.066,8.471,2.889,15.5,8.6,20.75C55.025,134.289,70,135.931,76.3,135.931A15.288,15.288,0,0,0,78.4,135.8ZM47.8,171.587c5.516-3.546,9.718-8.6,10.244-12.213.722-5.056.722-11.491-5.91-15.628C46.817,140.4,36.9,131.2,30.6,107.17a1.669,1.669,0,0,0-2.036-1.182,1.69,1.69,0,0,0-1.182,2.036c6.566,25.149,17.2,34.933,22.982,38.479,4.005,2.5,5.319,6.107,4.4,12.345-.328,2.233-3.48,6.5-8.733,9.915a29.049,29.049,0,0,1-23.967,3.809C4.858,167.647,4.529,135.406,4.332,116.1v-1.116c-.066-6.829,1.445-11.82,4.4-14.38a8.755,8.755,0,0,1,6.369-1.97,1.636,1.636,0,0,0,.591-3.218,11.588,11.588,0,0,0-9,2.692c-3.809,3.283-5.713,8.93-5.647,16.941v1.116c.2,21.472.591,53.976,20.093,59.557a32.954,32.954,0,0,0,8.733,1.248A32.73,32.73,0,0,0,47.8,171.587Zm62.052,2.036c7.486-1.51,29.352-8.536,31.913-20.881,2.43-11.885-6.369-17.664-11.36-19.108a1.642,1.642,0,1,0-.919,3.152c.131,0,11.491,3.349,9,15.234-1.97,9.718-20.947,16.679-29.352,18.32-5.253,1.051-21.932,2.561-29.68-4.071-2.889-2.5-4.2-5.778-4.071-10.112.788-18.189,38.807-22.654,39.2-22.72a1.634,1.634,0,0,0,1.445-1.839,1.538,1.538,0,0,0-1.839-1.445c-1.707.2-41.171,4.859-42.091,25.806-.263,5.319,1.51,9.653,5.187,12.739,5.319,4.6,13.921,5.844,21.209,5.844A49.464,49.464,0,0,0,109.854,173.622Zm50.89-16.547c.131,0,10.375-3.021,17.335-4.728,3.021-.722,4.137-2.364,4.531-3.546,1.051-3.415-2.233-7.157-2.43-7.42a189.627,189.627,0,0,0-11.229-16.153c-5.122-6.238-11.36-4.071-11.229-4.006l-10.638,1.051c-6.96,0-9.193,2.627-9.85,4.793-.985,3.218,1.313,6.763,3.874,8.4,3.809,2.5,9.456,8.865,10.112,15.365.263,2.692,1.313,4.662,3.086,5.713a6.664,6.664,0,0,0,3.546.919A7.955,7.955,0,0,0,160.744,157.075Zm-2.3-32.766c.2-.066,4.4-1.445,8.011,2.955,4.334,5.253,10.9,15.694,11.163,16.022.788.919,2.3,3.152,1.9,4.465-.263.722-1.313,1.182-2.167,1.379-7.026,1.707-17.4,4.728-17.6,4.793,0,0-2.233.788-3.677-.131-.854-.525-1.379-1.642-1.51-3.283-.788-8.011-7.486-15.168-11.557-17.795-1.576-.985-2.955-3.218-2.5-4.728s2.955-2.43,6.763-2.43Zm-25.675-8.668h29.023c8.011,0,9.718-11.951,9.784-12.476a1.633,1.633,0,0,0-1.379-1.839,1.6,1.6,0,0,0-1.839,1.379c0,.066-1.445,9.653-6.5,9.653l-29.352.066a6.662,6.662,0,0,1-4.728-.985c-1.576-1.051-2.627-2.955-3.086-5.647-1.642-9.85-7.683-19.5-10.966-21.6-.591-.394-1.379-2.3-.919-4.334.591-2.43,2.758-3.874,6.238-4.2,9.653-.854,28.958-1.9,29.286-1.97,2.43-.328,9.324-.854,12.279.854a41.4,41.4,0,0,1,6.172,4.4s2.5,1.97,2.5,8.339a1.642,1.642,0,1,0,3.283,0c0-8.142-3.48-10.769-3.677-10.835a37.7,37.7,0,0,0-6.632-4.728c-4.465-2.561-13.4-1.445-14.249-1.313-.2,0-19.5,1.116-29.22,1.97-6.895.591-8.733,4.859-9.127,6.7-.788,3.086.263,6.566,2.3,7.88,2.1,1.379,7.945,10.112,9.521,19.371.591,3.611,2.1,6.238,4.465,7.814a9.647,9.647,0,0,0,5.516,1.642C132.246,115.707,132.837,115.641,132.771,115.641ZM32.437,93.053a6.456,6.456,0,0,0,2.692-4.4c1.051-6.3-.394-9.062-6.172-11.885-1.773-.854-4.005-1.773-6.3-2.758-3.874-1.642-8.339-3.48-9.981-4.793-1.97-1.576-5.778-3.94-8.668-2.5C1.969,67.706.984,70.136.984,73.879v6.895c-.263,3.021.854,9.193,6.829,10.638a162.586,162.586,0,0,0,16.876,2.627,12.157,12.157,0,0,0,2.692.263A8.533,8.533,0,0,0,32.437,93.053ZM10.7,71.843c1.97,1.576,6.238,3.349,10.7,5.187,2.233.985,4.4,1.9,6.107,2.692,4.268,2.036,5.253,3.218,4.4,8.339A3.385,3.385,0,0,1,30.6,90.295c-1.576,1.051-4.2.788-5.319.525A165.9,165.9,0,0,1,8.6,88.259c-4.793-1.116-4.334-6.895-4.334-7.289V73.944c0-2.3.46-3.874,1.182-4.2a1.917,1.917,0,0,1,.591-.131C7.156,69.611,8.863,70.464,10.7,71.843Zm353.666,83.393a1.587,1.587,0,0,0-1.379-1.839c-13.2-1.97-20.487-11.557-24.23-19.24-5.45-11.1-6.238-24.1-3.611-28.826.46-.591,3.809-1.839,11.491-1.642,17.073.394,39.464,7.026,48.329,20.618,3.283,5.056,4.137,9.718,2.5,13.724-3.874,9.653-20.487,13.658-20.684,13.658a1.7,1.7,0,0,0-1.248,1.97,1.661,1.661,0,0,0,1.97,1.248c.722-.2,18.386-4.4,22.982-15.628,2.036-5.122,1.116-10.7-2.823-16.744-11.1-17.073-39.464-22.588-54.5-22.129-6.107.2-9.784,1.313-10.835,3.283-3.086,5.581-2.627,19.371,3.546,31.913,5.844,11.885,15.3,19.371,26.725,21.078h.263A1.609,1.609,0,0,0,364.368,155.236Zm3.809-28.826a11.622,11.622,0,1,0-11.623,11.623A11.6,11.6,0,0,0,368.176,126.41Zm-3.283,0a8.339,8.339,0,1,1-8.339-8.339A8.351,8.351,0,0,1,364.893,126.41Zm-19.962-61a13.855,13.855,0,1,0-13.855,13.855A13.9,13.9,0,0,0,344.931,65.408Zm-3.283,0a10.572,10.572,0,1,1-10.572-10.572A10.565,10.565,0,0,1,341.648,65.408ZM385.117,24.3A11.819,11.819,0,1,0,373.3,36.122,11.854,11.854,0,0,0,385.117,24.3Zm-3.283,0a8.536,8.536,0,1,1-8.536-8.536A8.519,8.519,0,0,1,381.834,24.3Zm-86.348,2.167A10.047,10.047,0,1,0,285.44,36.516,10.089,10.089,0,0,0,295.486,26.469Zm-3.283,0a6.763,6.763,0,1,1-6.763-6.763A6.754,6.754,0,0,1,292.2,26.469ZM248.077,40.127a6.829,6.829,0,1,0-6.829,6.829A6.866,6.866,0,0,0,248.077,40.127Zm-3.283,0a3.546,3.546,0,1,1-3.546-3.546A3.531,3.531,0,0,1,244.794,40.127Zm20.159,46.227a11.491,11.491,0,1,0-11.491,11.491A11.5,11.5,0,0,0,264.952,86.355Zm-3.283,0a8.208,8.208,0,1,1-8.208-8.208A8.211,8.211,0,0,1,261.669,86.355Zm60.148,64.613a11.623,11.623,0,1,0-11.622,11.623A11.6,11.6,0,0,0,321.817,150.968Zm-3.283,0a8.339,8.339,0,1,1-8.339-8.339A8.351,8.351,0,0,1,318.534,150.968Zm-49.773-1.707a7.354,7.354,0,1,0-7.354,7.354A7.342,7.342,0,0,0,268.761,149.261Zm-3.283,0a4.071,4.071,0,1,1-4.071-4.071A4.092,4.092,0,0,1,265.478,149.261ZM211.83,80.97a7.354,7.354,0,1,0-7.354,7.354A7.342,7.342,0,0,0,211.83,80.97Zm-3.283,0a4.071,4.071,0,1,1-4.071-4.071A4.05,4.05,0,0,1,208.547,80.97Zm18.911,60.214a10.966,10.966,0,1,0-10.966,10.966A10.985,10.985,0,0,0,227.458,141.184Zm-3.283,0a7.683,7.683,0,1,1-7.683-7.683A7.693,7.693,0,0,1,224.175,141.184ZM31.255,19.9a2.233,2.233,0,1,0,2.233,2.233A2.214,2.214,0,0,0,31.255,19.9Zm70.129,42.55a2.233,2.233,0,1,0,2.233,2.233A2.256,2.256,0,0,0,101.384,62.453Zm-2.3,18.583a2.233,2.233,0,1,0,2.233,2.233A2.214,2.214,0,0,0,99.085,81.036ZM22.85,98.437a2.233,2.233,0,1,0,2.233,2.233A2.214,2.214,0,0,0,22.85,98.437Zm98.3,33.423a2.233,2.233,0,1,0,2.233,2.233A2.214,2.214,0,0,0,121.149,131.86Zm48.788-39.333a2.233,2.233,0,1,0,2.233,2.233A2.214,2.214,0,0,0,169.937,92.527ZM152.864,27.848a2.233,2.233,0,1,0,2.233,2.233A2.214,2.214,0,0,0,152.864,27.848ZM194.429,7.1a2.233,2.233,0,1,0,2.233,2.233A2.214,2.214,0,0,0,194.429,7.1ZM370.277,157.272a2.233,2.233,0,1,0-2.233-2.233A2.214,2.214,0,0,0,370.277,157.272Zm-70.129-42.55a2.233,2.233,0,1,0-2.233-2.233A2.214,2.214,0,0,0,300.148,114.722Zm2.3-18.583a2.233,2.233,0,1,0-2.233-2.233A2.174,2.174,0,0,0,302.447,96.139Zm76.236-17.4a2.233,2.233,0,1,0-2.233-2.233A2.214,2.214,0,0,0,378.682,78.738ZM280.449,45.315a2.233,2.233,0,1,0-2.233-2.233A2.214,2.214,0,0,0,280.449,45.315ZM231.6,84.648a2.233,2.233,0,1,0-2.233-2.233A2.214,2.214,0,0,0,231.6,84.648Zm17.138,64.613a2.233,2.233,0,1,0-2.233-2.233A2.214,2.214,0,0,0,248.733,149.261ZM207.1,170.076a2.233,2.233,0,1,0-2.233-2.233A2.214,2.214,0,0,0,207.1,170.076Zm92.52,5.91c2.036-.46,18.911-4.2,32.832-7.683,6.369-1.576,9.915-3.874,10.835-7.026,1.116-3.874-2.3-7.42-3.743-8.865-4.137-4.268-15.365-26.857-17.664-38.151-.722-3.546-2.364-5.844-4.859-6.895-5.056-2.1-11.688,2.233-12.017,2.43a1.618,1.618,0,0,0-.46,2.3,1.675,1.675,0,0,0,2.3.46c1.51-.985,6.041-3.349,8.93-2.1,1.445.591,2.43,2.1,2.889,4.531,2.3,11.557,13.461,34.6,18.517,39.792,1.051,1.116,3.546,3.677,2.955,5.713-.525,1.839-3.546,3.546-8.471,4.728-14.774,3.677-32.766,7.683-32.963,7.748l-.46.2a5.783,5.783,0,0,1-4.728.328c-1.9-.854-3.283-3.283-4.005-6.96-2.561-12.607-8.6-40.318-8.6-40.318l-.131-.394a5.334,5.334,0,0,1-.131-4.137c.722-1.576,2.43-2.758,5.187-3.546l9.653-2.889a1.659,1.659,0,0,0,1.116-2.036,1.63,1.63,0,0,0-2.036-1.116l-9.784,2.758c-3.743,1.051-6.172,2.889-7.289,5.384a8.764,8.764,0,0,0,.131,6.7c.525,2.364,6.107,28.038,8.536,40.055.985,4.859,2.955,7.945,5.91,9.324a7.25,7.25,0,0,0,3.218.657A9.257,9.257,0,0,0,299.623,175.986Zm-45.045-11.163c6.7-.328,15.1-1.707,15.234-1.707a7.069,7.069,0,0,0,4.925-2.43c1.379-1.642,1.839-3.94,1.379-6.763-1.182-6.96-4.662-32.7-4.728-32.832a6.382,6.382,0,0,0-2.692-4.728c-1.9-1.313-4.6-1.379-7.88-.263-.657.2-1.576.46-2.561.788a28.77,28.77,0,0,0-6.632,2.43c-2.3,1.379-4.728,3.677-4.2,13.921.2,4.2.131,7.748.131,7.748a1.67,1.67,0,0,0,1.576,1.707h.066a1.656,1.656,0,0,0,1.642-1.576c0-.131.131-3.743-.131-8.011-.46-9.127,1.576-10.309,2.889-11.1a41.191,41.191,0,0,1,5.581-1.9c1.051-.328,1.97-.591,2.692-.788,2.233-.722,3.94-.788,4.925-.131a3.218,3.218,0,0,1,1.248,2.364c.066.263,3.546,26,4.728,33.029a5.09,5.09,0,0,1-.657,4.137,4.267,4.267,0,0,1-2.758,1.313c-.066,0-8.6,1.379-15.1,1.707-1.9.066-3.283-.263-4.005-.985a2.245,2.245,0,0,1-.657-1.576v-4.006a1.642,1.642,0,1,0-3.283,0v3.874a5.39,5.39,0,0,0,1.51,3.94,7.8,7.8,0,0,0,5.778,1.97A3.1,3.1,0,0,1,254.578,164.823Zm-39.661,2.824c1.051-.722,26.331-17.467,27.973-37.691.919-11.426-.919-19.043-5.384-22.654-3.218-2.627-7.683-3.086-13.2-1.445-7.945,2.43-28.826,18.78-33.62,36.772-2.5,9.39-.394,17.664,6.238,24.69a1.626,1.626,0,0,0,2.364-2.233c-5.778-6.107-7.617-13.4-5.45-21.6,4.4-16.613,24.23-32.307,31.387-34.474,4.4-1.313,7.814-1.051,10.178.854,3.546,2.889,4.99,9.718,4.2,19.831-1.51,18.583-26.266,35-26.528,35.2a1.618,1.618,0,0,0-.46,2.3,1.713,1.713,0,0,0,1.379.722A1.508,1.508,0,0,0,214.917,167.647Zm-28.5-42.025c5.713-1.576,19.239-13.592,27.448-28.761,6.96-12.8,8.733-25.346,5.253-36.378a1.65,1.65,0,0,0-2.036-1.051,1.571,1.571,0,0,0-1.051,2.036c4.071,12.8-.525,25.412-5.056,33.817-7.945,14.643-21.012,25.937-25.478,27.185-3.152.919-4.334-.2-4.728-.591-1.642-1.642-3.743-7.026.854-25.084,5.45-21.209,25.937-36.509,26.134-36.64a1.642,1.642,0,1,0-1.97-2.627c-.854.657-21.669,16.088-27.382,38.479-3.874,15.234-3.874,24.427,0,28.235a6.687,6.687,0,0,0,4.859,1.839A11.427,11.427,0,0,0,186.418,125.622ZM358.261,87.208a19.321,19.321,0,0,0,6.5-14.709c.066-8.471-2.889-15.5-8.6-20.75-10.966-10.112-28.892-10.769-33.029-10.375-6.107.525-25.675,6.041-31.584,17.992-5.581,11.294-4.6,21.6,3.021,31.387a1.636,1.636,0,0,0,2.561-2.036c-6.895-8.865-7.748-17.729-2.692-27.973,4.99-10.112,22.457-15.562,28.892-16.153,3.546-.328,20.487.328,30.534,9.587,5.056,4.662,7.617,10.835,7.551,18.32a15.694,15.694,0,0,1-5.45,12.279c-13.264,12.148-46.03,9.521-46.424,9.456a1.6,1.6,0,0,0-1.773,1.51,1.632,1.632,0,0,0,1.51,1.773c.394.066,3.743.328,8.536.328C328.975,97.846,348.214,96.4,358.261,87.208Zm36.64-8.142c3.808-3.283,5.713-8.93,5.647-16.941V61.009c-.2-21.472-.591-53.976-20.093-59.557a32.259,32.259,0,0,0-26.66,4.2c-5.516,3.546-9.718,8.6-10.244,12.213-.722,5.056-.722,11.491,5.91,15.628C354.781,36.844,364.7,46.037,371,70.07a1.723,1.723,0,0,0,2.036,1.182,1.69,1.69,0,0,0,1.182-2.036c-6.566-25.084-17.2-34.868-22.982-38.479-4.006-2.5-5.319-6.107-4.4-12.345.328-2.233,3.48-6.5,8.733-9.915a29.107,29.107,0,0,1,23.967-3.809c17.2,4.925,17.532,37.166,17.729,56.471v1.116c.066,6.829-1.445,11.82-4.4,14.38a8.164,8.164,0,0,1-6.369,1.97,1.605,1.605,0,0,0-1.9,1.313,1.653,1.653,0,0,0,1.313,1.9c.066,0,.591.066,1.379.066A12.311,12.311,0,0,0,394.9,79.066ZM287.278,46.956c1.642-.2,41.171-4.925,42.091-25.872.263-5.319-1.51-9.653-5.187-12.739-8.8-7.551-26.463-6.041-32.5-4.793-7.486,1.51-29.352,8.536-31.913,20.881-2.43,11.885,6.369,17.664,11.36,19.108a1.642,1.642,0,1,0,.919-3.152c-.131,0-11.491-3.349-9-15.234,1.97-9.718,20.947-16.679,29.352-18.32,5.253-1.051,21.932-2.561,29.68,4.071,2.889,2.5,4.2,5.778,4.071,10.112-.788,18.123-38.807,22.654-39.2,22.72a1.634,1.634,0,0,0-1.445,1.839,1.59,1.59,0,0,0,1.642,1.445C287.147,46.956,287.213,46.956,287.278,46.956Zm-43.4,9.062L254.512,54.9c6.96,0,9.193-2.627,9.85-4.793.985-3.218-1.313-6.763-3.874-8.4-3.809-2.5-9.456-8.865-10.112-15.365-.263-2.692-1.313-4.662-3.086-5.713-2.824-1.707-6.238-.525-6.5-.46-.131,0-10.375,3.021-17.335,4.728-3.021.722-4.137,2.364-4.531,3.546-1.051,3.415,2.233,7.157,2.43,7.42A189.616,189.616,0,0,0,232.58,52.013a11,11,0,0,0,8.668,4.4A10.418,10.418,0,0,0,243.874,56.018Zm1.707-32.7c.854.525,1.379,1.642,1.51,3.283.788,8.011,7.486,15.168,11.557,17.795,1.576.985,2.955,3.218,2.5,4.728s-2.955,2.43-6.763,2.43L243.152,52.8c-.2.066-4.4,1.445-8.011-2.889-4.334-5.253-10.9-15.694-11.163-16.022-.788-.919-2.3-3.218-1.9-4.465.263-.722,1.313-1.182,2.167-1.379,7.026-1.707,17.4-4.728,17.6-4.793a5.871,5.871,0,0,1,1.9-.328A3.445,3.445,0,0,1,245.582,23.317Zm8.011,83.459c.2,0,19.5-1.116,29.22-1.97,6.895-.591,8.733-4.859,9.127-6.7.788-3.086-.263-6.566-2.3-7.88-2.1-1.379-7.945-10.112-9.521-19.371-.591-3.612-2.1-6.238-4.465-7.814a10.137,10.137,0,0,0-6.96-1.51H239.672c-8.011,0-9.718,11.951-9.784,12.476a1.633,1.633,0,0,0,1.379,1.839,1.6,1.6,0,0,0,1.839-1.379c0-.066,1.445-9.653,6.5-9.653l29.352-.066a6.689,6.689,0,0,1,4.728.985c1.576,1.051,2.627,2.955,3.086,5.647,1.642,9.85,7.683,19.5,10.966,21.6.591.394,1.379,2.3.919,4.334-.591,2.43-2.758,3.874-6.238,4.2-9.718.854-28.958,1.9-29.286,1.97-2.43.328-9.324.854-12.279-.854a41.4,41.4,0,0,1-6.172-4.4s-2.5-1.97-2.5-8.339a1.642,1.642,0,0,0-3.283,0c0,8.142,3.48,10.769,3.677,10.835a37.694,37.694,0,0,0,6.632,4.728c2.3,1.313,5.713,1.642,8.668,1.642A45.662,45.662,0,0,0,253.593,106.776Zm143.935,3.612c2.036-.985,3.02-3.415,3.02-7.157V96.336c.263-3.021-.854-9.193-6.829-10.638a162.583,162.583,0,0,0-16.876-2.627c-.46-.131-4.662-.985-7.683,1.051a6.531,6.531,0,0,0-2.758,4.4c-1.051,6.3.394,9.062,6.172,11.885,1.773.854,4.005,1.773,6.3,2.758,3.874,1.642,8.339,3.48,9.981,4.793,1.576,1.182,4.2,2.955,6.7,2.955A10.945,10.945,0,0,0,397.528,110.388Zm-21.275-24.1a165.9,165.9,0,0,1,16.679,2.561c4.793,1.116,4.334,6.895,4.334,7.289v7.026c0,2.3-.46,3.874-1.182,4.2-.985.46-3.021-.394-5.187-2.1-1.97-1.576-6.238-3.349-10.7-5.187-2.233-.919-4.4-1.839-6.107-2.692-4.268-2.036-5.253-3.218-4.4-8.339A3.386,3.386,0,0,1,371,86.814a5.78,5.78,0,0,1,3.152-.788A12.891,12.891,0,0,1,376.253,86.289Zm24.3,16.876Z" transform="translate(1.369 89.925)" fill="url(#linear-gradient)"/>
      </g>
      <g id="Group_18476" data-name="Group 18476" transform="translate(259 1882.704)">
        <g id="Union_29" data-name="Union 29" transform="translate(255.746 169.039) rotate(180)" fill="#fff">
          <path d="M 76.20600891113281 165.1911315917969 L 2.037615776062012 84.51901245117188 L 76.20600891113281 3.847785234451294 L 76.20600891113281 35.92708969116211 L 76.20600891113281 37.42708969116211 L 77.70600891113281 37.42708969116211 L 253.9200134277344 37.42708969116211 L 253.9200134277344 131.6108856201172 L 77.70600891113281 131.6108856201172 L 76.20600891113281 131.6108856201172 L 76.20600891113281 133.1108856201172 L 76.20600891113281 165.1911315917969 Z" stroke="none"/>
          <path d="M 74.70600891113281 7.695541381835938 L 4.075225830078125 84.51900482177734 L 74.70600891113281 161.3433074951172 L 74.70600891113281 133.1108856201172 L 74.70600891113281 130.1108856201172 L 77.70600891113281 130.1108856201172 L 252.4200134277344 130.1108856201172 L 252.4200134277344 38.92709350585938 L 77.70600891113281 38.92709350585938 L 74.70600891113281 38.92709350585938 L 74.70600891113281 35.92709350585938 L 74.70600891113281 7.695541381835938 M 77.70600891113281 -1.52587890625e-05 L 77.70600891113281 35.92709350585938 L 255.4200134277344 35.92709350585938 L 255.4200134277344 133.1108856201172 L 77.70600891113281 133.1108856201172 L 77.70600891113281 169.0389251708984 L 0 84.51898956298828 L 77.70600891113281 -1.52587890625e-05 Z" stroke="none" fill="#ddd"/>
        </g>
        <rect id="Rectangle_6381" data-name="Rectangle 6381" width="11.595" height="117.442" transform="translate(0 25.1)" fill="#fff"/>
        <path id="Path_27061" data-name="Path 27061" d="M-71.808-1.008c-.024-2.424-.024-4.9-.024-7.68h1.44c3.48,0,5.016,1.3,5.016,3.864,0,2.5-1.656,3.816-4.752,3.816Zm1.68-15.7c2.736,0,3.984,1.056,3.984,3.36,0,2.448-1.392,3.672-4.392,3.672h-1.3c0-2.4,0-4.728.024-7.032Zm-6.888-.984v.864l2.376.264c.048,2.328.048,4.68.048,7.032v1.176c0,2.448,0,4.848-.048,7.224l-2.376.264V0h7.272C-64.368,0-62.5-2.448-62.5-4.848c0-2.256-1.56-3.984-5.352-4.44,3.216-.624,4.392-2.3,4.392-4.152,0-2.472-1.9-4.248-5.856-4.248ZM-57-6.792-54.384-15l2.712,8.208ZM-46.992-1.1l-5.664-16.68h-1.776l-5.52,16.608-2.112.312V0h5.76V-.864l-2.5-.312,1.488-4.632h5.952l1.536,4.656L-52.3-.864V0h7.368V-.864Zm13.56-1.944a4.252,4.252,0,0,1-3.6,1.872c-2.544,0-4.344-1.944-4.344-5.376,0-3.48,1.608-5.5,3.936-5.5a3.9,3.9,0,0,1,1.272.192l.432,1.848c.168.984.672,1.488,1.512,1.488a1.2,1.2,0,0,0,1.272-1.032,4.508,4.508,0,0,0-4.68-3.432,6.309,6.309,0,0,0-6.432,6.7c0,4.128,2.52,6.648,6.1,6.648a5.064,5.064,0,0,0,5.04-3.168Zm9.768,1.368a2.825,2.825,0,0,1-1.752.744c-.96,0-1.56-.576-1.56-1.944v-8.664h3.408v-1.08h-3.384l.12-3.72H-28.56l-.816,3.672-2.328.264v.864h2.184v6.336c0,.984-.024,1.608-.024,2.328,0,2.208,1.128,3.24,3.144,3.24a3.7,3.7,0,0,0,3.216-1.512Zm4.68-14.208a1.686,1.686,0,0,0,1.752-1.68,1.667,1.667,0,0,0-1.752-1.656,1.674,1.674,0,0,0-1.776,1.656A1.693,1.693,0,0,0-18.984-15.888Zm1.392,14.856c-.024-1.344-.048-3.264-.048-4.536V-9.144l.048-3.576-.336-.24-4.392,1.368v.744l2.04.192c.048,1.152.072,2.064.072,3.552v1.536c0,1.248-.024,3.168-.048,4.536l-1.872.264V0h6.264V-.768ZM-2.016-12.624h-4.8v.816l2.064.312L-7.8-2.712l-3.264-8.832,2.136-.264v-.816h-6.5v.816l1.488.216L-9.192.144h1.2L-3.6-11.5l1.584-.312ZM1.44-7.344c.192-3.288,1.752-4.7,3.312-4.7A2.879,2.879,0,0,1,7.512-8.9c0,1.008-.264,1.56-1.368,1.56Zm8.376.936a5.007,5.007,0,0,0,.168-1.464A4.812,4.812,0,0,0,4.92-12.984a6.313,6.313,0,0,0-6.24,6.7C-1.32-2.064,1.248.36,4.872.36a5.4,5.4,0,0,0,5.04-3.048l-.48-.336A4.322,4.322,0,0,1,5.76-1.176c-2.472,0-4.272-1.656-4.344-5.232Zm23.9-10.416v-.864H28.368L22.9-3.528l-5.712-14.16H11.952v.864l2.448.312L14.352-1.2,11.88-.864V0h6.048V-.864L15.552-1.2V-9.264c0-.456-.1-3.7-.144-6.048L21.552,0H22.68l5.9-15.336-.048,7.32c-.024,2.184,0,4.56-.048,6.888l-2.256.264V0H33.72V-.864l-2.376-.264c-.072-2.352-.072-4.728-.072-7.1V-9.456c0-2.376,0-4.752.072-7.1Zm5.232.936a1.686,1.686,0,0,0,1.752-1.68,1.667,1.667,0,0,0-1.752-1.656,1.674,1.674,0,0,0-1.776,1.656A1.693,1.693,0,0,0,38.952-15.888ZM40.344-1.032C40.32-2.376,40.3-4.3,40.3-5.568V-9.144l.048-3.576-.336-.24-4.392,1.368v.744l2.04.192c.048,1.152.072,2.064.072,3.552v1.536c0,1.248-.024,3.168-.048,4.536l-1.872.264V0h6.264V-.768Zm14.688.048-3.96-5.808,3.72-4.752,1.56-.264v-.816H51.576v.816l1.848.288L50.568-7.56l-2.736-4.008,1.7-.24v-.816H43.344v.816l1.584.216L48.7-6l-3.84,4.968-1.728.264V0h5.064V-.768l-1.968-.288,3-4.152,2.832,4.2-1.968.24V0h6.576V-.768Zm2.208-4.9h6.336V-7.464H57.24Zm11.4-8.928h7.92v-2.256H67.68L67.128-9.1l.7.264a8.616,8.616,0,0,1,2.616-.36c2.424,0,3.96,1.44,3.96,4.224C74.4-2.28,72.936-.6,70.416-.6a5.446,5.446,0,0,1-1.56-.216l-.408-1.8c-.288-1.272-.7-1.7-1.488-1.7a1.309,1.309,0,0,0-1.3.888C66.1-.984,67.9.36,70.728.36c3.792,0,6.36-2.184,6.36-5.64,0-3.384-2.352-5.28-5.928-5.28a9.084,9.084,0,0,0-2.832.408Z" transform="translate(92.595 94.243)" fill="#333"/>
      </g>
      <g id="Group_18474" data-name="Group 18474" transform="translate(468.412 1930.203)">
        <path id="Path_27038" data-name="Path 27038" d="M69.211,39.784l-2.792-3.026a1.043,1.043,0,0,1,0-1.386l2.831-3.065a4.73,4.73,0,0,0-.293-6.7,5,5,0,0,0-1.464-.918L63.628,23.15a1.034,1.034,0,0,1-.605-1.21l1.191-4.022A4.737,4.737,0,0,0,61.05,12a4.617,4.617,0,0,0-1.718-.2l-4.158.293a1.04,1.04,0,0,1-1.093-.859l-.644-4.119a4.767,4.767,0,0,0-5.408-3.963,4.861,4.861,0,0,0-1.62.566L42.835,5.794a1,1,0,0,1-1.347-.312L39.126,2.046A4.733,4.733,0,0,0,32.547.835a5.09,5.09,0,0,0-1.21,1.21L28.974,5.482a1.046,1.046,0,0,1-1.347.312L24.015,3.783a4.748,4.748,0,0,0-6.462,1.757,4.464,4.464,0,0,0-.566,1.62l-.644,4.119a1.015,1.015,0,0,1-1.093.859l-4.139-.293a4.739,4.739,0,0,0-5.037,4.412,4.891,4.891,0,0,0,.2,1.679L7.46,21.959a1.032,1.032,0,0,1-.605,1.249l-3.866,1.5a4.742,4.742,0,0,0-1.738,7.614l2.792,3.065a1.043,1.043,0,0,1,0,1.386L1.251,39.843a4.746,4.746,0,0,0,.273,6.7,5.374,5.374,0,0,0,1.464.9l3.866,1.542a1.034,1.034,0,0,1,.605,1.21L6.269,54.212a4.737,4.737,0,0,0,3.163,5.915,4.617,4.617,0,0,0,1.718.2l4.158-.293a1.04,1.04,0,0,1,1.093.859l.644,4.119a4.767,4.767,0,0,0,5.408,3.963,4.861,4.861,0,0,0,1.62-.566l3.612-2.069a1,1,0,0,1,1.347.312l2.362,3.436a4.733,4.733,0,0,0,6.579,1.21,5.09,5.09,0,0,0,1.21-1.21l2.362-3.436a1.046,1.046,0,0,1,1.347-.312L46.506,68.4a4.748,4.748,0,0,0,6.462-1.757,4.464,4.464,0,0,0,.566-1.62l.644-4.119a1.015,1.015,0,0,1,1.093-.859l4.158.293a4.712,4.712,0,0,0,5-4.451,4.781,4.781,0,0,0-.2-1.659l-1.191-4.022a1.032,1.032,0,0,1,.605-1.249l3.866-1.542a4.737,4.737,0,0,0,2.655-6.15A5.533,5.533,0,0,0,69.211,39.784Z" transform="translate(0 -0.203)" fill="#f05f23"/>
        <path id="Path_27062" data-name="Path 27062" d="M6.762-15.141A38.376,38.376,0,0,0,2.835-17.3l-.861,1.113c1.281.693,3.024,1.7,3.885,2.31ZM5.691-9.471c-.924-.588-2.667-1.512-3.885-2.121L.945-10.458c1.281.672,3,1.68,3.864,2.268ZM2.751,1.323a76.185,76.185,0,0,0,3.8-6.741L5.418-6.447A60.646,60.646,0,0,1,1.449.273ZM17.157-.735H9.7V-5.061h7.455Zm2.856-9.219v-1.512H14.259V-15.1a33.585,33.585,0,0,0,4.851-1.176l-1.218-1.218A51.643,51.643,0,0,1,7.728-15.624,9.774,9.774,0,0,1,8.169-14.3c1.491-.147,3.066-.336,4.6-.567v3.4H6.72v1.512h6.048V-6.51H8.253V1.6H9.7V.714h7.455v.777h1.491v-8H14.259V-9.954Zm7.56-7.539a23.506,23.506,0,0,1-5.88,8.316,11.667,11.667,0,0,1,.882,1.554,25.091,25.091,0,0,0,2.835-3.192V1.617h1.512V-13.041a31.133,31.133,0,0,0,2.1-3.969ZM34.083-.525c-1.092,0-1.323-.252-1.323-1.365v-8.127h7.455v-1.512H32.76v-5.712H31.248V-1.932C31.248.294,31.9.9,33.978.9h3.99c2.2,0,2.625-1.344,2.877-5.229A4.239,4.239,0,0,1,39.4-5.04c-.168,3.591-.336,4.515-1.512,4.515Z" transform="translate(13.455 44.797)" fill="#fff"/>
      </g>
      <path id="Path_27066" data-name="Path 27066" d="M11.952-5.664H5.28V-7.28h6.672Zm-6.72,2.7c.032-.416.048-.8.048-1.184v-.5h6.672v1.68Zm9.76-7.248v-1.12H6.832A18,18,0,0,0,7.456-13.1l-1.184-.288a20.949,20.949,0,0,1-.7,2.064h-4.5v1.12H5.056a13.054,13.054,0,0,1-4.3,5.216,7.962,7.962,0,0,1,.752.928A13.44,13.44,0,0,0,4.1-6.512v2.336A5.969,5.969,0,0,1,2.624.384a3.811,3.811,0,0,1,.832.928A5.743,5.743,0,0,0,5.088-1.936h6.864V-.272c0,.24-.1.32-.368.336-.288,0-1.248.016-2.32-.032a4.046,4.046,0,0,1,.4,1.168A9.811,9.811,0,0,0,12.448.992C12.96.8,13.12.448,13.12-.272v-8.08H5.376c.352-.592.672-1.232.976-1.856Zm8.7,8.064c-.448-.4-2.224-1.84-2.912-2.32V-8.048h1.648V-5.68c0,.128-.032.16-.176.176-.128,0-.448,0-.928-.016a5.253,5.253,0,0,1,.336.912,3.25,3.25,0,0,0,1.44-.176c.32-.16.4-.416.4-.9V-9.04h-2.72V-10.5h2.688v-1.056H20.784v-1.824h-1.04v1.824H16.9V-10.5h2.848V-9.04H17.2v4.608h.976V-8.048h1.568v2.384a11.51,11.51,0,0,1-3.2,5.04,6.022,6.022,0,0,1,.592.992,10.361,10.361,0,0,0,2.608-3.632V1.2h1.04V-3.328c.784.688,1.792,1.632,2.224,2.112Zm4.288-5.888h1.76v2.416c0,.128-.032.176-.176.176a8.69,8.69,0,0,1-.944,0,3.633,3.633,0,0,1,.32.912A3.37,3.37,0,0,0,30.416-4.7c.3-.16.384-.432.384-.9V-9.04H27.984V-10.5H31.04v-1.056H27.984v-1.824H26.9v1.824H24V-10.5h2.9V-9.04H24.288v4.624h1.04V-8.032H26.9v2.384A9.637,9.637,0,0,1,22.624-.48a6.612,6.612,0,0,1,.752.88A10.047,10.047,0,0,0,26.9-3.52V1.2h1.088V-3.44a12.452,12.452,0,0,0,2.7,3.632A6.478,6.478,0,0,1,31.5-.72a12.025,12.025,0,0,1-3.52-4.912Zm16.368,5.36v.912H38.1v-.912ZM38.1-.1v-.928h6.256V-.1ZM36.944,1.216H38.1V.7h6.256v.48h1.184V-3.472H36.944Zm1.04-8.176A9.367,9.367,0,0,1,39.12-5.232l.752-.432A7.109,7.109,0,0,0,38.72-7.328Zm5.04,1.728a12.183,12.183,0,0,0,1.184-1.712l-.768-.4A14.332,14.332,0,0,1,42.352-5.6Zm1.952-5.152H35.408V-11.7h9.568Zm-5.3,2.032a6.524,6.524,0,0,0-.752-1.072h4.528a11.435,11.435,0,0,1-.72,1.072Zm5.312,3.408H41.664V-7.6h3.328ZM37.312-7.6h3.232v2.656H37.312Zm8.848-5.056H34.224v4.64c0,2.544-.128,6.048-1.648,8.544a3.947,3.947,0,0,1,1.04.608c1.568-2.592,1.792-6.48,1.792-9.152V-9.424h3.28l-.736.272a4.847,4.847,0,0,1,.576.8h-2.32v4.16h9.936v-4.16H43.888c.208-.256.416-.528.624-.8l-.864-.272H46.16Z" transform="translate(911.543 1975.023)" fill="#f05f23"/>
      <g id="Group_18524" data-name="Group 18524" transform="translate(949.405 1127.099)">
        <g id="Group_18265" data-name="Group 18265" transform="translate(-535 -586)">
          <circle id="Ellipse_232" data-name="Ellipse 232" cx="15" cy="15" r="15" transform="translate(655 1360)" fill="#f05f23"/>
          <path id="Path_26109" data-name="Path 26109" d="M109.772,1027.91l4.609,4.768,7.421-8.264" transform="translate(553.887 346.645)" fill="none" stroke="#fff" stroke-miterlimit="10" stroke-width="3"/>
        </g>
        <path id="Path_27069" data-name="Path 27069" d="M14-13.9a21.478,21.478,0,0,0-1.46-3l-1.34.44a21.088,21.088,0,0,1,1.36,3.08Zm5.14.68H7.82v1.4H19.14ZM7.52-8.02l-2.34.66v-3.96H7.44v-1.4H5.18v-4H3.72v4H1.02v1.4h2.7v4.34c-1.14.32-2.18.6-3.02.8l.36,1.44,2.66-.78v5.2c0,.3-.12.38-.4.4C3.08.1,2.22.1,1.26.08a4.62,4.62,0,0,1,.48,1.36,7.237,7.237,0,0,0,2.7-.28c.54-.24.74-.62.74-1.48V-5.94c.84-.24,1.68-.5,2.52-.76ZM16.74.06a.546.546,0,0,1-.36-.1c-.12-.1-.14-.4-.14-.92V-9.8H9.58v3.66A7.324,7.324,0,0,1,6.34.54a4.918,4.918,0,0,1,.98,1.14c3.12-2.08,3.72-5.3,3.72-7.8v-2.3h3.74v7.38c0,1.4.12,1.76.44,2.02a1.837,1.837,0,0,0,1.16.38h1.06A2.033,2.033,0,0,0,18.5,1.1a1.5,1.5,0,0,0,.58-.94,19.091,19.091,0,0,0,.16-2.8,4.35,4.35,0,0,1-1.12-.62c-.02,1.18-.04,2.1-.08,2.52a1.139,1.139,0,0,1-.22.68.784.784,0,0,1-.46.12Zm7.24-6.94a12.236,12.236,0,0,0,.66-1.5l-.96-.14a3.484,3.484,0,0,0,1.26-1.6H27.4v-2.76h-.94v1.8h-1.3a2.817,2.817,0,0,0,.02-.4v-2.08H24.14v2.06a2.954,2.954,0,0,1-.02.42h-1.2v-1.78h-.54A9.974,9.974,0,0,0,23.3-14h5.26c-.1,3.24-.26,4.44-.5,4.74-.12.18-.26.2-.52.18-.22,0-.78,0-1.42-.04a2.685,2.685,0,0,1,.32,1.1,11.339,11.339,0,0,0,1.66,0,1.389,1.389,0,0,0,1-.46c.4-.52.52-1.98.66-6.14.02-.2.02-.58.02-.58H24.02c.22-.44.42-.88.6-1.3l-1.26-.2A9.456,9.456,0,0,1,20.74-13a4.588,4.588,0,0,1,.9.86c.12-.1.24-.22.36-.34v2.36h1.84a3.933,3.933,0,0,1-2.52,1.7,5.011,5.011,0,0,1,.66.8,6.179,6.179,0,0,0,1.26-.6,9.848,9.848,0,0,1-2.56,3.68,4.264,4.264,0,0,1,.9.9l.34-.34v2.76h1.86A4.025,4.025,0,0,1,21.2.74a4.129,4.129,0,0,1,.66.8A4.786,4.786,0,0,0,24.9-1.22h2.52v-3.1h-.94V-2.2H25.12a3.336,3.336,0,0,0,.04-.62V-5.28H24.1v2.44a3.549,3.549,0,0,1-.04.64h-1.2V-4.3h-.64A11.889,11.889,0,0,0,23.3-5.7h5.2c-.12,3.8-.3,5.2-.6,5.58a.58.58,0,0,1-.54.2c-.26,0-.88,0-1.58-.06a3.341,3.341,0,0,1,.34,1.2c.68.02,1.4.02,1.76,0A1.458,1.458,0,0,0,28.96.68c.44-.56.6-2.26.78-7,.02-.18.02-.56.02-.56Zm12.94-.88A14.1,14.1,0,0,1,35.1-3.4a16.771,16.771,0,0,1-2.04-4.36Zm-3.04-4.68v3.4H31.94v-3.4ZM37.62-9.1l-.24.06h-2.2v-3.4H37.5a17.612,17.612,0,0,1-.5,2.12l1.16.32c.32-.9.66-2.34.96-3.58l-.94-.24-.26.06H35.18v-2.76h-1.3v2.76H30.66v5.08c0,2.78-.16,6.66-1.64,9.44a4.383,4.383,0,0,1,1.06.74c1.4-2.54,1.78-6.14,1.84-8.98a19.058,19.058,0,0,0,2.38,5.2A9.995,9.995,0,0,1,30.92.42a5.356,5.356,0,0,1,.84,1.1,11.63,11.63,0,0,0,3.36-2.7,10.524,10.524,0,0,0,3.32,2.72A7.3,7.3,0,0,1,39.38.4a9.583,9.583,0,0,1-3.44-2.68,16.519,16.519,0,0,0,2.54-6.54Z" transform="translate(160 797)" fill="#333"/>
      </g>
      <g id="Group_18525" data-name="Group 18525" transform="translate(949.405 1172.099)">
        <g id="Group_18265-2" data-name="Group 18265" transform="translate(-535 -586)">
          <circle id="Ellipse_232-2" data-name="Ellipse 232" cx="15" cy="15" r="15" transform="translate(655 1360)" fill="#f05f23"/>
          <path id="Path_26109-2" data-name="Path 26109" d="M109.772,1027.91l4.609,4.768,7.421-8.264" transform="translate(553.887 346.645)" fill="none" stroke="#fff" stroke-miterlimit="10" stroke-width="3"/>
        </g>
        <path id="Path_27070" data-name="Path 27070" d="M11.82-7.8c0,.3,0,.6-.02.92H8.9v-4.14H7.5v5.48h4.1A5.176,5.176,0,0,1,8.18-1.76a6.572,6.572,0,0,1,.9,1.1,6.7,6.7,0,0,0,3.98-4.88h4.68v-5.5H16.3v4.16H13.24c.02-.32.02-.6.02-.9v-4.38h5.48V-13.5H15.26c.62-.86,1.28-1.94,1.84-2.92l-1.52-.42a20.831,20.831,0,0,1-1.92,3.34H9.9l1.1-.58a11.835,11.835,0,0,0-1.8-2.78l-1.2.6A11.1,11.1,0,0,1,9.72-13.5H6.34v1.34h5.48Zm-6.6-5.84a26.549,26.549,0,0,0-2.36-3.08l-1.14.64a27.435,27.435,0,0,1,2.34,3.24Zm-.2,6.4-.26.04H2.86c1.04-1.34,2.42-3.42,3.2-4.6l-.98-.42-.24.1H1v1.22H3.98a36.9,36.9,0,0,1-2.3,3.28,1.885,1.885,0,0,1-.94.58A8.923,8.923,0,0,1,1.28-5.7a2,2,0,0,1,1.16-.28H4.18C3.62-2.92,2.38-.72.7.54a4.743,4.743,0,0,1,.98,1.02A8.906,8.906,0,0,0,4.1-1.56C5.68.8,8.2,1.2,12.32,1.2c2.16,0,4.68-.04,6.56-.16a4.489,4.489,0,0,1,.46-1.38c-2.02.18-4.92.26-7,.26-3.88,0-6.42-.34-7.68-2.7A20.307,20.307,0,0,0,5.68-6.96Zm25.1-5.06H26.28v-1.52h3.2v-1.14h-3.2v-1.76H25.04v4.42H23.46v-3.28H22.28v3.28H20.86v1.2h9.26ZM23.9-10.66a5.514,5.514,0,0,1-1.24,3.32,3.624,3.624,0,0,1,.62.62,4.523,4.523,0,0,0,.9-1.42c.22.34.46.66.6.92l.6-.6a9.509,9.509,0,0,0-.9-1.26,11.143,11.143,0,0,0,.26-1.5Zm4.4,3.24a14.4,14.4,0,0,0-1.28-1.64,11.4,11.4,0,0,0,.32-1.48l-.86-.12A5.032,5.032,0,0,1,25.12-7.4a4.752,4.752,0,0,1,.64.6,4.358,4.358,0,0,0,.96-1.4c.38.48.76,1.04,1,1.4ZM25.44-2.04a12.26,12.26,0,0,0-.98-1.3,11.4,11.4,0,0,0,.28-1.52l-.86-.12a5.66,5.66,0,0,1-1.24,3.4,4.754,4.754,0,0,1,.64.62,4.818,4.818,0,0,0,.88-1.46c.26.36.5.7.66.98Zm2.92.42a17.454,17.454,0,0,0-1.32-1.7,9.054,9.054,0,0,0,.3-1.5l-.82-.14a5.376,5.376,0,0,1-1.36,3.34c.18.16.52.48.64.62a5.122,5.122,0,0,0,.94-1.44c.38.5.78,1.06,1.02,1.44ZM22.64-.8V-5.3H28.4V-.8ZM28.4-6.44H22.64v-3.98h-1.1V.34H28.4v.74h1.12v-11.5H28.4Zm9.32-1.04-.2.08H30.78v1.3h6.06a27.154,27.154,0,0,1-2.76,3.96c-.56-.58-1.12-1.14-1.6-1.6l-.9.84a54.886,54.886,0,0,1,4.06,4.46l.96-1c-.44-.5-1.02-1.14-1.64-1.8a28.153,28.153,0,0,0,3.66-5.52ZM33.98-16.7a18.928,18.928,0,0,1-4.24,7c.24.24.72.76.92,1.02a16.461,16.461,0,0,0,1.56-1.9v1.22H36.6v-1.3H32.28a24.14,24.14,0,0,0,2.02-3.5,21.445,21.445,0,0,0,3.98,5.32,8.36,8.36,0,0,1,.9-1.14,17.585,17.585,0,0,1-4.32-5.42c.1-.3.22-.58.32-.86Z" transform="translate(160 797)" fill="#333"/>
      </g>
    </g>
  </g>
</svg>
