<svg xmlns="http://www.w3.org/2000/svg" xmlns:xlink="http://www.w3.org/1999/xlink" width="120" height="120" viewBox="0 0 120 120">
  <defs>
    <clipPath id="clip-path">
      <rect id="Rectangle_6397" data-name="Rectangle 6397" width="120" height="120" transform="translate(606 2556)" fill="#fff"/>
    </clipPath>
    <clipPath id="clip-icon-experience-2">
      <rect width="120" height="120"/>
    </clipPath>
  </defs>
  <g id="icon-experience-2" clip-path="url(#clip-icon-experience-2)">
    <g id="Mask_Group_731" data-name="Mask Group 731" transform="translate(-606 -2556)" clip-path="url(#clip-path)">
      <g id="Group_18539" data-name="Group 18539" transform="translate(610 2559)">
        <g id="Group_18536" data-name="Group 18536" transform="translate(40.458 0)">
          <path id="Path_27057" data-name="Path 27057" d="M1127.792-1676.765a5.561,5.561,0,0,1-5.555-5.557v-9.363h11.112v9.363A5.563,5.563,0,0,1,1127.792-1676.765Z" transform="translate(-1121.333 1787.117)" fill="#333"/>
          <ellipse id="Ellipse_296" data-name="Ellipse 296" cx="2.842" cy="2.842" rx="2.842" ry="2.842" transform="translate(0 0)" fill="#333"/>
          <ellipse id="Ellipse_297" data-name="Ellipse 297" cx="1.629" cy="1.629" rx="1.629" ry="1.629" transform="translate(4.873 34.993)" fill="#333"/>
          <ellipse id="Ellipse_298" data-name="Ellipse 298" cx="1.629" cy="1.629" rx="1.629" ry="1.629" transform="translate(19.397 22.735)" fill="#333"/>
          <ellipse id="Ellipse_299" data-name="Ellipse 299" cx="1.629" cy="1.629" rx="1.629" ry="1.629" transform="translate(12.462 17.645)" fill="#333"/>
        </g>
        <g id="Group_18538" data-name="Group 18538" transform="translate(0 2.842)">
          <path id="Path_27054" data-name="Path 27054" d="M1134.714-1720.639v-22.514h4.142" transform="translate(-1078.955 1776.354)" fill="none" stroke="#333" stroke-miterlimit="10" stroke-width="2.5"/>
          <path id="Path_27055" data-name="Path 27055" d="M1119.389-1691.543v9.481a9.064,9.064,0,0,0,8.842,9.269h0a9.064,9.064,0,0,0,8.842-9.269v-9.481" transform="translate(-1081.313 1784.296)" fill="none" stroke="#333" stroke-miterlimit="10" stroke-width="2.5"/>
          <path id="Path_27056" data-name="Path 27056" d="M1115.511-1743.153h4.475v22.514" transform="translate(-1081.91 1776.354)" fill="none" stroke="#333" stroke-miterlimit="10" stroke-width="2.5"/>
          <ellipse id="Ellipse_294" data-name="Ellipse 294" cx="6.857" cy="6.857" rx="6.857" ry="6.857" transform="translate(33.601 9.575)" fill="none" stroke="#333" stroke-miterlimit="10" stroke-width="2.5"/>
          <ellipse id="Ellipse_295" data-name="Ellipse 295" cx="4.922" cy="4.922" rx="4.922" ry="4.922" transform="translate(54.549)" fill="none" stroke="#333" stroke-miterlimit="10" stroke-width="2.5"/>
          <path id="Path_27058" data-name="Path 27058" d="M1114.435-1723.522" transform="translate(-1082.076 1779.375)" fill="none" stroke="#333" stroke-miterlimit="10" stroke-width="2.5"/>
          <path id="Path_27059" data-name="Path 27059" d="M1114.435-1691.7" transform="translate(-1082.076 1784.273)" fill="none" stroke="#333" stroke-miterlimit="10" stroke-width="2.5"/>
          <path id="Path_27060" data-name="Path 27060" d="M1117.318-1723.522h28.307a3.726,3.726,0,0,1,3.726,3.726v29.273a3.725,3.725,0,0,1-3.726,3.725h-32.07s-2.558.352-5.72-2.808l-3.424-3.425s-1.994-2.069-3.8-2.069H1095.7" transform="translate(-1084.959 1779.375)" fill="none" stroke="#333" stroke-miterlimit="10" stroke-width="2.5"/>
          <path id="Path_27061" data-name="Path 27061" d="M1095.7-1723.727h8.448s5.345-7.751,12.116-7.751h6.77" transform="translate(-1084.959 1778.151)" fill="none" stroke="#333" stroke-miterlimit="10" stroke-width="2.5"/>
          <line id="Line_995" data-name="Line 995" x2="17.078" transform="translate(47.314 83.283)" fill="none" stroke="#333" stroke-miterlimit="10" stroke-width="2.5"/>
          <line id="Line_996" data-name="Line 996" x2="14.537" transform="translate(49.856 74.309)" fill="none" stroke="#333" stroke-miterlimit="10" stroke-width="2.5"/>
          <line id="Line_997" data-name="Line 997" x2="12.618" transform="translate(51.775 65.335)" fill="none" stroke="#333" stroke-miterlimit="10" stroke-width="2.5"/>
          <line id="Line_998" data-name="Line 998" x2="17.232" transform="translate(94.896 55.577)" fill="none" stroke="#333" stroke-miterlimit="10" stroke-width="2.5"/>
          <line id="Line_999" data-name="Line 999" x2="17.232" transform="translate(94.896 75.871)" fill="none" stroke="#333" stroke-miterlimit="10" stroke-width="2.5"/>
          <line id="Line_1000" data-name="Line 1000" x2="17.232" transform="translate(94.896 96.164)" fill="none" stroke="#333" stroke-miterlimit="10" stroke-width="2.5"/>
          <path id="Path_27062" data-name="Path 27062" d="M1086.391-1727.413h10.742v36.724h-10.742" transform="translate(-1086.391 1778.776)" fill="none" stroke="#333" stroke-miterlimit="10" stroke-width="2.5"/>
          <path id="Path_27063" data-name="Path 27063" d="M1151.932-1723.287l4.712,4.712,9.152-9.152" transform="translate(-1076.305 1778.728)" fill="none" stroke="#333" stroke-miterlimit="10" stroke-width="2.5"/>
          <path id="Path_27064" data-name="Path 27064" d="M1151.932-1688.113l4.712,4.712,9.152-9.152" transform="translate(-1076.305 1784.141)" fill="none" stroke="#333" stroke-miterlimit="10" stroke-width="2.5"/>
          <g id="Group_18533" data-name="Group 18533" transform="translate(78.087 71.399)">
            <line id="Line_1001" data-name="Line 1001" x2="8.943" y2="8.943" transform="translate(0 0)" fill="none" stroke="#333" stroke-miterlimit="10" stroke-width="2.5"/>
            <line id="Line_1002" data-name="Line 1002" y1="8.943" x2="8.943" transform="translate(0 0)" fill="none" stroke="#333" stroke-miterlimit="10" stroke-width="2.5"/>
          </g>
          <line id="Line_1017" data-name="Line 1017" y2="10.109" transform="translate(46.918 45.468)" fill="none" stroke="#333" stroke-miterlimit="10" stroke-width="2.5"/>
        </g>
      </g>
    </g>
  </g>
</svg>
