<svg xmlns="http://www.w3.org/2000/svg" xmlns:xlink="http://www.w3.org/1999/xlink" width="800" height="680" viewBox="0 0 800 680">
  <defs>
    <linearGradient id="linear-gradient" x1="0.862" y1="0.75" x2="0.17" y2="0.158" gradientUnits="objectBoundingBox">
      <stop offset="0" stop-color="#fff"/>
      <stop offset="1" stop-color="#ececec"/>
    </linearGradient>
    <linearGradient id="linear-gradient-15" x1="-0.394" y1="-0.107" x2="1.213" y2="1" gradientUnits="objectBoundingBox">
      <stop offset="0" stop-color="#85e1ee"/>
      <stop offset="1" stop-color="#00637a"/>
    </linearGradient>
    <clipPath id="clip-icon-research-hex">
      <rect width="800" height="680"/>
    </clipPath>
  </defs>
  <g id="icon-research-hex" clip-path="url(#clip-icon-research-hex)">
    <g id="Group_18415" data-name="Group 18415" transform="translate(-271 -550)">
      <g id="Polygon_6" data-name="Polygon 6" transform="translate(367.536 795.254) rotate(-90)" fill="none">
        <path d="M182.962,0,243.95,105.075,182.962,210.149H60.987L0,105.075,60.987,0Z" stroke="none"/>
        <path d="M 62.71492004394531 3 L 3.468704223632813 105.0746002197266 L 62.71485900878906 207.1493377685547 L 181.2345886230469 207.1493377685547 L 240.4808197021484 105.0746688842773 L 181.2345886230469 3 L 62.71492004394531 3 M 60.98745727539063 0 L 182.9620513916016 0 L 243.9495544433594 105.0746688842773 L 182.9620513916016 210.1493377685547 L 60.98738098144531 210.1493377685547 L -1.52587890625e-05 105.0746002197266 L 60.98745727539063 0 Z" stroke="none" fill="#85e1ee"/>
      </g>
      <g id="Polygon_9" data-name="Polygon 9" transform="translate(367.536 1130.522) rotate(-90)" fill="none">
        <path d="M182.962,0,243.95,105.075,182.962,210.149H60.987L0,105.075,60.987,0Z" stroke="none"/>
        <path d="M 62.71492004394531 3 L 3.468704223632813 105.0746002197266 L 62.71485900878906 207.1493377685547 L 181.2345886230469 207.1493377685547 L 240.4808197021484 105.0746688842773 L 181.2345886230469 3 L 62.71492004394531 3 M 60.98745727539063 0 L 182.9620513916016 0 L 243.9495544433594 105.0746688842773 L 182.9620513916016 210.1493377685547 L 60.98738098144531 210.1493377685547 L -1.52587890625e-05 105.0746002197266 L 60.98745727539063 0 Z" stroke="none" fill="#0095a6"/>
      </g>
      <g id="Polygon_8" data-name="Polygon 8" transform="translate(271 963.54) rotate(-90)" fill="none">
        <path d="M182.962,0,243.95,105.075,182.962,210.149H60.987L0,105.075,60.987,0Z" stroke="none"/>
        <path d="M 62.71492004394531 3 L 3.468704223632813 105.0746002197266 L 62.71485900878906 207.1493377685547 L 181.2345886230469 207.1493377685547 L 240.4808197021484 105.0746688842773 L 181.2345886230469 3 L 62.71492004394531 3 M 60.98745727539063 0 L 182.9620513916016 0 L 243.9495544433594 105.0746688842773 L 182.9620513916016 210.1493377685547 L 60.98738098144531 210.1493377685547 L -1.52587890625e-05 105.0746002197266 L 60.98745727539063 0 Z" stroke="none" fill="#60cad9"/>
      </g>
      <g id="Polygon_10" data-name="Polygon 10" transform="translate(566.426 1229.463) rotate(-90)" fill="none">
        <path d="M182.962,0,243.95,105.075,182.962,210.149H60.987L0,105.075,60.987,0Z" stroke="none"/>
        <path d="M 62.71492004394531 3 L 3.468704223632813 105.0746002197266 L 62.71485900878906 207.1493377685547 L 181.2345886230469 207.1493377685547 L 240.4808197021484 105.0746688842773 L 181.2345886230469 3 L 62.71492004394531 3 M 60.98745727539063 0 L 182.9620513916016 0 L 243.9495544433594 105.0746688842773 L 182.9620513916016 210.1493377685547 L 60.98738098144531 210.1493377685547 L -1.52587890625e-05 105.0746002197266 L 60.98745727539063 0 Z" stroke="none" fill="#00637a"/>
      </g>
      <g id="Polygon_12" data-name="Polygon 12" transform="translate(764.314 793.95) rotate(-90)" fill="none">
        <path d="M182.962,0,243.95,105.075,182.962,210.149H60.987L0,105.075,60.987,0Z" stroke="none"/>
        <path d="M 62.71487426757813 2.999984741210938 L 3.468734741210938 105.0746536254883 L 62.71479797363281 207.1492919921875 L 181.2346343994141 207.1492919921875 L 240.4808044433594 105.0746536254883 L 181.2346343994141 2.999984741210938 L 62.71487426757813 2.999984741210938 M 60.98739624023438 -1.52587890625e-05 L 182.9620971679688 -1.52587890625e-05 L 243.9495391845703 105.0746536254883 L 182.9620971679688 210.1492919921875 L 60.98733520507813 210.1492919921875 L 0 105.0746536254883 L 60.98739624023438 -1.52587890625e-05 Z" stroke="none" fill="#182337"/>
      </g>
      <g id="Polygon_14" data-name="Polygon 14" transform="translate(764.314 1129.217) rotate(-90)" fill="none">
        <path d="M182.962,0,243.95,105.075,182.962,210.149H60.987L0,105.075,60.987,0Z" stroke="none"/>
        <path d="M 62.71487426757813 2.999984741210938 L 3.468734741210938 105.0746536254883 L 62.71479797363281 207.1492919921875 L 181.2346343994141 207.1492919921875 L 240.4808044433594 105.0746536254883 L 181.2346343994141 2.999984741210938 L 62.71487426757813 2.999984741210938 M 60.98739624023438 -1.52587890625e-05 L 182.9620971679688 -1.52587890625e-05 L 243.9495391845703 105.0746536254883 L 182.9620971679688 210.1492919921875 L 60.98733520507813 210.1492919921875 L 0 105.0746536254883 L 60.98739624023438 -1.52587890625e-05 Z" stroke="none" fill="#0e395c"/>
      </g>
      <g id="Polygon_13" data-name="Polygon 13" transform="translate(860.85 962.236) rotate(-90)" fill="none">
        <path d="M182.962,0,243.95,105.075,182.962,210.149H60.987L0,105.075,60.987,0Z" stroke="none"/>
        <path d="M 62.71487426757813 2.999984741210938 L 3.468734741210938 105.0746536254883 L 62.71479797363281 207.1492919921875 L 181.2346343994141 207.1492919921875 L 240.4808044433594 105.0746536254883 L 181.2346343994141 2.999984741210938 L 62.71487426757813 2.999984741210938 M 60.98739624023438 -1.52587890625e-05 L 182.9620971679688 -1.52587890625e-05 L 243.9495391845703 105.0746536254883 L 182.9620971679688 210.1492919921875 L 60.98733520507813 210.1492919921875 L 0 105.0746536254883 L 60.98739624023438 -1.52587890625e-05 Z" stroke="none" fill="#21314a"/>
      </g>
      <g id="Component_16_1" data-name="Component 16 – 1" transform="translate(777.34 563.55)">
        <path id="Polygon_6-2" data-name="Polygon 6" d="M162.526,0,216.7,93.338l-54.176,93.338H54.175L0,93.338,54.175,0Z" transform="translate(0 216.786) rotate(-90)" fill="url(#linear-gradient)"/>
        <path id="Polygon_7" data-name="Polygon 7" d="M155.567,0l51.856,89.342-51.856,89.342H51.856L0,89.342,51.856,0Z" transform="translate(182.597 4.566) rotate(90)" fill="url(#linear-gradient)"/>
        <text id="香氛設計_實驗室" data-name="香氛設計
實驗室" transform="translate(90.145 101.262)" fill="#333" font-size="25" font-family="NotoSerifCJKtc-SemiBold, Noto Serif CJK TC" font-weight="600"><tspan x="-50" y="0">香氛設計</tspan><tspan x="-37.5" y="35">實驗室</tspan></text>
      </g>
      <g id="Component_16_2" data-name="Component 16 – 2" transform="translate(873.896 730.679)">
        <path id="Polygon_6-3" data-name="Polygon 6" d="M162.415,0l54.139,93.275L162.415,186.55H54.139L0,93.275,54.139,0Z" transform="translate(0 216.554) rotate(-90)" fill="url(#linear-gradient)"/>
        <path id="Polygon_7-2" data-name="Polygon 7" d="M155.567,0l51.856,89.342-51.856,89.342H51.856L0,89.342,51.856,0Z" transform="translate(182.597 4.566) rotate(90)" fill="url(#linear-gradient)"/>
        <text id="皮膚檢測_實驗室" data-name="皮膚檢測
實驗室" transform="translate(90.441 100.75)" fill="#333" font-size="25" font-family="NotoSerifCJKtc-SemiBold, Noto Serif CJK TC" font-weight="600"><tspan x="-50" y="0">皮膚檢測</tspan><tspan x="-37.5" y="35">實驗室</tspan></text>
      </g>
      <g id="Component_16_3" data-name="Component 16 – 3" transform="translate(282.74 731.984)">
        <path id="Polygon_6-4" data-name="Polygon 6" d="M162.415,0l54.139,93.275L162.415,186.55H54.139L0,93.275,54.139,0Z" transform="translate(0 216.554) rotate(-90)" fill="url(#linear-gradient)"/>
        <path id="Polygon_7-3" data-name="Polygon 7" d="M155.567,0l51.856,89.342-51.856,89.342H51.856L0,89.342,51.856,0Z" transform="translate(182.597 4.566) rotate(90)" fill="url(#linear-gradient)"/>
        <text id="製程技術_實驗室" data-name="製程技術
實驗室" transform="translate(90.441 100.75)" fill="#333" font-size="25" font-family="NotoSerifCJKtc-SemiBold, Noto Serif CJK TC" font-weight="600"><tspan x="-50" y="0">製程技術</tspan><tspan x="-37.5" y="35">實驗室</tspan></text>
      </g>
      <g id="Component_16_4" data-name="Component 16 – 4" transform="translate(379.277 565.002)">
        <path id="Polygon_6-5" data-name="Polygon 6" d="M162.415,0l54.139,93.275L162.415,186.55H54.139L0,93.275,54.139,0Z" transform="translate(0 216.554) rotate(-90)" fill="url(#linear-gradient)"/>
        <path id="Polygon_7-4" data-name="Polygon 7" d="M155.567,0l51.856,89.342-51.856,89.342H51.856L0,89.342,51.856,0Z" transform="translate(182.597 4.566) rotate(90)" fill="url(#linear-gradient)"/>
        <text id="配方開發_實驗室" data-name="配方開發
實驗室" transform="translate(90.441 100.75)" fill="#333" font-size="25" font-family="NotoSerifCJKtc-SemiBold, Noto Serif CJK TC" font-weight="600"><tspan x="-50" y="0">配方開發</tspan><tspan x="-37.5" y="35">實驗室</tspan></text>
      </g>
      <g id="Component_16_5" data-name="Component 16 – 5" transform="translate(379.277 900.27)">
        <path id="Polygon_6-6" data-name="Polygon 6" d="M162.415,0l54.139,93.275L162.415,186.55H54.139L0,93.275,54.139,0Z" transform="translate(0 216.554) rotate(-90)" fill="url(#linear-gradient)"/>
        <path id="Polygon_7-5" data-name="Polygon 7" d="M155.567,0l51.856,89.342-51.856,89.342H51.856L0,89.342,51.856,0Z" transform="translate(182.597 4.566) rotate(90)" fill="url(#linear-gradient)"/>
        <text id="生物技術_實驗室" data-name="生物技術
實驗室" transform="translate(90.441 100.75)" fill="#333" font-size="25" font-family="NotoSerifCJKtc-SemiBold, Noto Serif CJK TC" font-weight="600"><tspan x="-50" y="0">生物技術</tspan><tspan x="-37.5" y="35">實驗室</tspan></text>
      </g>
      <g id="Component_16_6" data-name="Component 16 – 6" transform="translate(777.359 898.965)">
        <path id="Polygon_6-7" data-name="Polygon 6" d="M162.415,0l54.139,93.275L162.415,186.55H54.139L0,93.275,54.139,0Z" transform="translate(0 216.554) rotate(-90)" fill="url(#linear-gradient)"/>
        <path id="Polygon_7-6" data-name="Polygon 7" d="M155.567,0l51.856,89.342-51.856,89.342H51.856L0,89.342,51.856,0Z" transform="translate(182.597 4.566) rotate(90)" fill="url(#linear-gradient)"/>
        <text id="TAF_實驗室" data-name="TAF
實驗室" transform="translate(90.486 100.75)" fill="#333" font-size="25" font-family="NotoSerifCJKtc-SemiBold, Noto Serif CJK TC" font-weight="600"><tspan x="-24.575" y="0">TAF</tspan><tspan x="-37.5" y="35">實驗室</tspan></text>
      </g>
      <g id="Component_16_7" data-name="Component 16 – 7" transform="translate(578.168 1000.516)">
        <path id="Polygon_6-8" data-name="Polygon 6" d="M162.415,0l54.139,93.275L162.415,186.55H54.139L0,93.275,54.139,0Z" transform="translate(0 216.554) rotate(-90)" fill="url(#linear-gradient)"/>
        <path id="Polygon_7-7" data-name="Polygon 7" d="M155.567,0l51.856,89.342-51.856,89.342H51.856L0,89.342,51.856,0Z" transform="translate(182.597 4.566) rotate(90)" fill="url(#linear-gradient)"/>
        <text id="細胞培養_實驗室" data-name="細胞培養
實驗室" transform="translate(90.441 100.75)" fill="#333" font-size="25" font-family="NotoSerifCJKtc-SemiBold, Noto Serif CJK TC" font-weight="600"><tspan x="-50" y="0">細胞培養</tspan><tspan x="-37.5" y="35">實驗室</tspan></text>
      </g>
      <path id="Path_26832" data-name="Path 26832" d="M-.611-5.557-2.89-3.237h-3.4V-13.263h3.812v2.776h.829c2.4,0,3.812-.7,3.812-.911v-10.73h4.35v7.209a8.449,8.449,0,0,0-1.574,1.284L10-10.984l1.574-2.237h3.563v9.985H11.818L6.556-5.225v13.8H2.165V-1.372a2.805,2.805,0,0,0,1.7-.829ZM15.754,8.571H11.279V-2.035h3.853V.823h.829c1.616,0,4.019-.911,4.06-1.2V-12.393a2.947,2.947,0,0,0,1.7-.911l-4.764-3.563-2.237,2.486H11.279v-7.747H21.388c.621,0,1.077-.207,1.2-.663-1.989-1.7-5.3-4.184-5.3-4.184l-2.942,3.687H-13l.331,1.16H-2.475v7.706h-3.4l-5.22-2.154v12.8A7.2,7.2,0,0,0-12.667-2.45L-7.571.2-6-2.035h3.522V8.571H-14.863l.29,1.16H22.921c.621,0,1.036-.207,1.16-.663C22.051,7.328,18.7,4.759,18.7,4.759ZM-12.253,25.226a15.593,15.593,0,0,1,3.48,6.214c4.392,3.066,8.2-5.22-3.149-6.463Zm-2.942,9.653a12.879,12.879,0,0,1,3.314,5.966c4.226,2.859,7.913-5.179-2.983-6.256ZM-.155,24.894V42.75a10.986,10.986,0,0,0-4.1-5.51l-.456.166,1.243-5.1-.621-.166c-6.38,16.406-6.38,16.406-7.167,17.9-.414.87-.621.87-1.16.87h-1.823V51.7a4.117,4.117,0,0,1,2.113.663c.911.663,1.119,4.6.331,8.907.29,1.533,1.243,2.154,2.154,2.154a3.3,3.3,0,0,0,3.4-3.439c.124-3.687-1.533-5.22-1.616-7.5a16.948,16.948,0,0,1,.5-3.853c.29-1.533,1.491-6.463,2.61-10.979a22.534,22.534,0,0,1,1.284,8.7c1.284,1.409,2.734.87,3.273-.663-.166,7.085-1.574,12.843-5.842,17.483l.456.414c7.416-4.392,9.695-11.227,9.736-19.6V26.634c1.077-.166,1.409-.58,1.491-1.16Zm4.35,12.595a20.915,20.915,0,0,1,1.45,8.41c2.4,2.652,5.593-3.107-.87-8.576ZM17.452,24.936V43.62c-.249-1.781-1.45-4.1-4.267-6.38l-.249.083v-9.4c.829-.124,1.119-.456,1.2-.994l-5.344-.539V61.311h.829c1.491,0,3.314-.994,3.314-1.45V38.152a22.527,22.527,0,0,1,1.657,7.913c1.243,1.326,2.61.58,2.859-1.16V63.258h.87c1.574,0,3.48-1.077,3.48-1.574V26.51c.911-.124,1.2-.5,1.284-.994ZM9.829,94.123V81.363h4.1v12.76ZM-3.76,93.171v13.258H-7.323V93.171Zm22.579.953h-.166V81.363h3.894c.58,0,1.036-.207,1.16-.663-1.7-1.574-4.474-3.853-4.474-3.853l-2.486,3.314H2.621c-1.7-1.491-3.977-3.273-3.977-3.273l-2.527,3.19H-14.821l.331,1.2h4.764c-.829,7.665-2.444,15.619-5.634,21.461l.539.414a33.39,33.39,0,0,0,3.273-3.977v13.589h.7c2.2,0,3.522-.994,3.522-1.326v-3.853H-3.76v2.983h.746c1.45,0,3.6-.87,3.646-1.16v-15.7A2.462,2.462,0,0,0,2,93l-4.1-3.19-2.071,2.154h-2.61l-.7-.29a47.232,47.232,0,0,0,2.734-10.4H1.958L2,81.363H5.272v12.76H.963l.331,1.2H5.272c-.083,7.54-1.2,14.252-7.789,19.6l.373.373C8.338,110.571,9.705,102.948,9.829,95.325h4.1v19.8h.87c2.4,0,3.853-.994,3.853-1.326V95.325h5.054c.58,0,.994-.207,1.077-.663-1.326-1.574-3.853-3.936-3.853-3.936ZM-1.067,152.25-3.3,154.4H-7.571c.29-1.367.58-3.107.787-4.516H-3.3v1.491h.829a8.557,8.557,0,0,0,3.563-.829v-6.38a2.951,2.951,0,0,0,1.491-.7l-3.4-3.314L-2.6,142.141H-5.665a23.962,23.962,0,0,0,8.99-9.239c.953-.124,1.367-.249,1.657-.663l-4.35-3.77-2.693,2.569H-12.833l.373,1.16H-2.02a23.5,23.5,0,0,1-2.9,5.013c.207-1.616-1.45-3.646-6.712-3.356l-.29.29a7.64,7.64,0,0,1,2.859,4.516,2.848,2.848,0,0,0,2.569.414,27.783,27.783,0,0,1-8.659,6.422l.29.5a37.115,37.115,0,0,0,7.043-2.651H-3.3v5.386h-2.4l-4.557-1.864c-.124,1.781-.621,5.013-1.036,7.167a8.2,8.2,0,0,0-1.7.911l3.894,2.652,1.657-2.03h4.474c-.331,3.812-.87,6.132-1.533,6.67a1.79,1.79,0,0,1-1.284.29c-.787,0-3.439-.166-5.1-.29v.58a7.165,7.165,0,0,1,3.646,1.45,3.707,3.707,0,0,1,.787,2.817,8.585,8.585,0,0,0,4.806-1.119C.135,164.72,1,161.654,1.378,156.227a2.154,2.154,0,0,0,1.574-.663ZM18.7,132.487a31.275,31.275,0,0,1-3.19,4.889,24.575,24.575,0,0,1-4.433-2.859,38.4,38.4,0,0,0,5.51-2.569c.994.207,1.326.041,1.574-.373l-4.64-3.066a39.6,39.6,0,0,1-3.439,5.137,16.728,16.728,0,0,1-4.267-5.759l-.539.29a24.966,24.966,0,0,0,7.706,12.512l-1.409,1.45H9.456l-5.1-1.823v4.392c0,2.527-.249,5.552-3.149,7.955l.29.414c6.422-1.989,7.25-5.883,7.25-8.369v-1.367h3.232v4.806c0,2.362.29,3.273,3.232,3.273h.456l-2.279,2.071H2.7l.331,1.2H13.392a18.919,18.919,0,0,1-1.823,3.024,37.544,37.544,0,0,0-7.54-1.533l-.331.456a43.032,43.032,0,0,1,5.924,3.48A28.006,28.006,0,0,1,.01,166.377l.29.539a33.548,33.548,0,0,0,12.015-4.847,30.182,30.182,0,0,1,4.64,4.474c3.687,1.119,4.972-3.6-1.367-7.085a20.348,20.348,0,0,0,3.232-4.143c.953-.083,1.367-.166,1.657-.58l-3.936-3.314h.29c3.48,0,4.889-.414,4.889-2.072,0-.7-.29-1.077-1.284-1.533l-.207-.041h-.373c-.249.041-.663.083-.87.124a5.283,5.283,0,0,1-.787.041H16.831c-.414,0-.5-.124-.5-.539v-3.729c.249-.041.5-.083.663-.124,1.077.621,2.2,1.16,3.356,1.7.663-2.32,2.03-3.853,3.977-4.267l.083-.456a47.557,47.557,0,0,1-7.457-2.444,46.761,46.761,0,0,0,4.847-2.113c.911.166,1.284,0,1.533-.373ZM7.054,201.3V190.241h9.322V201.3Zm-14.418,0V190.241H1.875V201.3Zm25.687-14.832L16,189.039H7.054v-7.25c1.119-.166,1.45-.621,1.533-1.2l-6.712-.621v9.073H-6.991l-5.51-2.154v19.721h.746c2.113,0,4.392-1.16,4.392-1.657V202.5H1.875v16.282h.953c1.989,0,4.226-1.243,4.226-1.781V202.5h9.322v3.48h.87c1.7,0,4.267-.911,4.309-1.243v-13.63a2.947,2.947,0,0,0,1.7-.911ZM-9.85,244.224c.083,5.552-1.989,10.689-4.1,12.636a2.889,2.889,0,0,0-.373,3.853c1.284,1.284,3.646,1.036,4.972-.994,1.947-2.776,3.149-8,.041-15.536Zm24.734.87-.373.331c3.314,4.474,4.433,10.855,4.682,14.873C23.128,265.477,29.923,254.167,14.884,245.094Zm-19.472-5.883v24.651c0,3.977,1.616,4.847,6.546,4.847h5.3c8.659,0,10.73-1.036,10.73-3.356,0-.953-.373-1.533-1.864-2.113l-.166-6.753h-.456a37.287,37.287,0,0,1-2.237,6.463,1.662,1.662,0,0,1-1.409.746c-.746.041-2.279.083-4.143.083H2.662C.8,263.779.3,263.447.3,262.411V240.951c1.036-.124,1.409-.58,1.45-1.119Zm6.463-6.919-.373.249c2.486,3.024,5.054,7.5,5.842,11.352C12.4,247.745,16.334,237.1,1.875,232.292Z" transform="translate(666.378 627.684)" fill="url(#linear-gradient-15)"/>
    </g>
  </g>
</svg>
