<svg xmlns="http://www.w3.org/2000/svg" xmlns:xlink="http://www.w3.org/1999/xlink" width="105" height="105" viewBox="0 0 105 105">
  <defs>
    <clipPath id="clip-path">
      <rect id="Rectangle_6179" data-name="Rectangle 6179" width="105" height="105" rx="52.5" transform="translate(431 1123)" fill="#fff" stroke="#707070" stroke-linecap="round" stroke-width="2"/>
    </clipPath>
    <clipPath id="clip-icon-about-5">
      <rect width="105" height="105"/>
    </clipPath>
  </defs>
  <g id="icon-about-5" clip-path="url(#clip-icon-about-5)">
    <g id="Mask_Group_596" data-name="Mask Group 596" transform="translate(-431 -1123)" clip-path="url(#clip-path)">
      <g id="Group_17997" data-name="Group 17997" transform="translate(-2432.379 3717.467)">
        <rect id="Rectangle_6171" data-name="Rectangle 6171" width="76.98" height="15.135" rx="7.441" transform="translate(2876.889 -2521.06)" fill="none" stroke="#333" stroke-linecap="round" stroke-miterlimit="10" stroke-width="2"/>
        <rect id="Rectangle_6172" data-name="Rectangle 6172" width="13.534" height="10.516" transform="translate(2885.992 -2531.576)" fill="none" stroke="#333" stroke-linecap="round" stroke-miterlimit="10" stroke-width="2"/>
        <rect id="Rectangle_6173" data-name="Rectangle 6173" width="13.534" height="10.516" transform="translate(2908.613 -2531.576)" fill="none" stroke="#333" stroke-linecap="round" stroke-miterlimit="10" stroke-width="2"/>
        <rect id="Rectangle_6174" data-name="Rectangle 6174" width="13.534" height="10.516" transform="translate(2931.233 -2531.576)" fill="none" stroke="#333" stroke-linecap="round" stroke-miterlimit="10" stroke-width="2"/>
        <g id="Group_17996" data-name="Group 17996">
          <line id="Line_878" data-name="Line 878" x2="3.868" transform="translate(2882.124 -2513.491)" fill="none" stroke="#333" stroke-linecap="round" stroke-miterlimit="10" stroke-width="2"/>
          <line id="Line_879" data-name="Line 879" x2="3.868" transform="translate(2892.565 -2513.491)" fill="none" stroke="#333" stroke-linecap="round" stroke-miterlimit="10" stroke-width="2"/>
          <line id="Line_880" data-name="Line 880" x2="3.868" transform="translate(2903.005 -2513.491)" fill="none" stroke="#333" stroke-linecap="round" stroke-miterlimit="10" stroke-width="2"/>
          <line id="Line_881" data-name="Line 881" x2="3.868" transform="translate(2913.446 -2513.491)" fill="none" stroke="#333" stroke-linecap="round" stroke-miterlimit="10" stroke-width="2"/>
          <line id="Line_882" data-name="Line 882" x2="3.868" transform="translate(2923.886 -2513.491)" fill="none" stroke="#333" stroke-linecap="round" stroke-miterlimit="10" stroke-width="2"/>
          <line id="Line_883" data-name="Line 883" x2="3.868" transform="translate(2934.326 -2513.491)" fill="none" stroke="#333" stroke-linecap="round" stroke-miterlimit="10" stroke-width="2"/>
          <line id="Line_884" data-name="Line 884" x2="3.868" transform="translate(2944.767 -2513.491)" fill="none" stroke="#333" stroke-linecap="round" stroke-miterlimit="10" stroke-width="2"/>
        </g>
        <path id="Rectangle_6175" data-name="Rectangle 6175" d="M5.436,0h7.577a5.436,5.436,0,0,1,5.436,5.436V7.46a0,0,0,0,1,0,0H0a0,0,0,0,1,0,0V5.436A5.436,5.436,0,0,1,5.436,0Z" transform="translate(2906.156 -2559.062)" fill="none" stroke="#333" stroke-linecap="round" stroke-miterlimit="10" stroke-width="2"/>
        <line id="Line_885" data-name="Line 885" y1="13.609" transform="translate(2915.38 -2572.671)" fill="none" stroke="#333" stroke-linecap="round" stroke-miterlimit="10" stroke-width="2"/>
        <circle id="Ellipse_308" data-name="Ellipse 308" cx="5.078" cy="5.078" r="5.078" transform="translate(2910.302 -2582.587)" fill="none" stroke="#333" stroke-linecap="round" stroke-miterlimit="10" stroke-width="2"/>
        <line id="Line_886" data-name="Line 886" x1="15.816" transform="translate(2894.486 -2577.51)" fill="none" stroke="#333" stroke-linecap="round" stroke-miterlimit="10" stroke-width="2"/>
        <path id="Path_26740" data-name="Path 26740" d="M2908.782-2551.6v5.645l2.731,5.192" fill="none" stroke="#333" stroke-linecap="round" stroke-miterlimit="10" stroke-width="2"/>
        <path id="Path_26741" data-name="Path 26741" d="M2921.977-2551.6v5.645l-2.731,5.192" fill="none" stroke="#333" stroke-linecap="round" stroke-miterlimit="10" stroke-width="2"/>
        <path id="Path_26742" data-name="Path 26742" d="M2951.632-2508.053a49.811,49.811,0,0,0,13.747-34.414,50,50,0,0,0-50-50,50,50,0,0,0-50,50,49.817,49.817,0,0,0,13.748,34.414" fill="none" stroke="#333" stroke-linecap="round" stroke-miterlimit="10" stroke-width="2"/>
      </g>
    </g>
  </g>
</svg>
