<svg xmlns="http://www.w3.org/2000/svg" xmlns:xlink="http://www.w3.org/1999/xlink" width="572" height="644" viewBox="0 0 572 644">
  <defs>
    <clipPath id="clip-icon-404">
      <rect width="572" height="644"/>
    </clipPath>
  </defs>
  <g id="icon-404" clip-path="url(#clip-icon-404)">
    <g id="Group_18585" data-name="Group 18585" transform="translate(-385 -216)">
      <path id="Subtraction_10" data-name="Subtraction 10" d="M5937-13950.937H5365v-158.773l28.265,45.469-27.35-77.363h21.1L5365-14188.082v-207.854h375.75l-18.154,38.327h21.1l-27.35,77.368,53.922-86.742h-29.7l9.415-28.953H5937v445Z" transform="translate(-4979.999 14810.938)" fill="#fff"/>
      <path id="Path_26873" data-name="Path 26873" d="M-213.8-9.687V-49.55h-87.451V-82.1l58.693-123.529h39.869L-258.9-81.707h45.1v-43.66h30.98v43.66h28.758V-49.55h-28.758V-9.687Zm194.745.529a85.745,85.745,0,0,1-31.634-5.752Q-65.332-20.661-73.96-30.465-91.476-50.2-91.476-77.785v-61.83q0-35.817,25.1-55.294,18.431-14.248,49.281-14.248,43.4,0,61.7,30.065,10.327,16.993,10.327,40v60.784q0,21.961-10.719,39.216Q25.648-9.288-19.058-9.158ZM-17.1-38.569q22.092,0,30.2-17.778a48.349,48.349,0,0,0,4.183-20.784v-63.529q0-14.771-6.405-25.752Q3.164-179.746-18.4-179.746t-29.673,18.039a49.565,49.565,0,0,0-4.183,21.046v63.529q0,19.085,9.739,28.824T-17.1-38.569ZM210.981-9.687V-49.55H123.53V-82.1l58.693-123.529h39.869L165.883-81.707h45.1v-43.66h30.98v43.66H270.72V-49.55H241.962V-9.687Z" transform="translate(686.253 425.158)" fill="#fff"/>
    </g>
  </g>
</svg>
