<svg xmlns="http://www.w3.org/2000/svg" xmlns:xlink="http://www.w3.org/1999/xlink" width="540" height="445" viewBox="0 0 540 445">
  <defs>
    <clipPath id="clip-icon-product-intro-5">
      <rect width="540" height="445"/>
    </clipPath>
  </defs>
  <g id="icon-product-intro-5" clip-path="url(#clip-icon-product-intro-5)">
    <g id="Group_18528" data-name="Group 18528" transform="translate(-400 -966)">
      <g id="Ellipse_332" data-name="Ellipse 332" transform="translate(400 1248.601)" fill="none" stroke="#aaa" stroke-linecap="round" stroke-width="3">
        <circle cx="81.199" cy="81.199" r="81.199" stroke="none"/>
        <circle cx="81.199" cy="81.199" r="79.699" fill="none"/>
      </g>
      <path id="Path_27084" data-name="Path 27084" d="M-14.176-11.36V-5.7h-7.072V-11.36Zm.9-6.528h-3.04v-3.648c.768-.128,1.056-.416,1.12-.832l-3.936-.384v4.864h-7.072l.256.928h6.816v4.7h-1.952l-2.848-1.216V-2.5h.416c1.12,0,2.272-.608,2.272-.864V-4.768h7.072v1.952h.448a3.9,3.9,0,0,0,2.272-.768v-7.392a2.14,2.14,0,0,0,1.184-.544L-13.12-13.7l-1.376,1.44H-16.32v-4.7H-9.5c.448,0,.768-.16.864-.512-1.152-1.056-3.04-2.624-3.04-2.624ZM-27.68-.576V-23.84H-7.616V-.576ZM-6.4-26.464l-1.536,1.7H-27.424l-3.232-1.376v28.8h.512c1.312,0,2.464-.736,2.464-1.12V.352H-7.616V2.368h.448a3.763,3.763,0,0,0,2.56-1.024V-23.328a2.507,2.507,0,0,0,1.312-.64ZM30.5-12.672a.766.766,0,0,0,.832-.512c-1.056-1.024-2.816-2.432-2.816-2.432L26.976-13.6h-4.9v-2.08c.608-.1.9-.384.96-.8l-3.776-.352V-9.5c0,1.856.512,2.4,3.264,2.4h3.1c4.832,0,6.016-.352,6.016-1.536,0-.48-.224-.8-1.088-1.088l-.1-2.048h-.352a7.383,7.383,0,0,1-1.024,2.048.934.934,0,0,1-.7.224c-.352.032-1.376.032-2.432.032H23.168c-.96,0-1.088-.1-1.088-.544v-2.656ZM15.9-6.656a10.263,10.263,0,0,1,3.232,4.448c2.592,1.664,4.576-3.424-2.912-4.7ZM25.376-17.28c4.672,0,5.824-.256,5.824-1.408,0-.512-.288-.736-1.152-1.024l-.128-.032H29.6a5.045,5.045,0,0,1-.8.16,6.882,6.882,0,0,0-.736.064c-.384,0-1.376.032-2.4.032H23.008c-.96,0-1.056-.16-1.056-.576V-22.4h8.192c.448,0,.736-.16.832-.512-1.056-1.056-2.784-2.464-2.784-2.464l-1.568,2.048H21.952v-2.5c.576-.1.9-.352.928-.768l-3.68-.352v7.3c0,1.792.48,2.368,3.168,2.368ZM7.008-5.888A5.089,5.089,0,0,1,4.416-1.7,1.692,1.692,0,0,0,3.36.32a1.694,1.694,0,0,0,2.5.448c1.376-.8,2.688-3.136,1.664-6.656Zm.608-9.088a10.007,10.007,0,0,1,4.16,1.632c2.432.32,1.248-4.192-4.16-2.528v-1.28H14.08v3.9A48.644,48.644,0,0,1,7.456-11.9a14.3,14.3,0,0,0,.16-2.272Zm6.464,4.96c0,.384-.1.576-.544.576-.576,0-2.624-.16-2.624-.16v.48a3.467,3.467,0,0,1,1.984.736,2.577,2.577,0,0,1,.48,1.536C16.32-7.1,16.7-8.1,16.7-9.792V-16.64a2.274,2.274,0,0,0,1.344-.672L15.04-19.584l-1.28,1.5H8.1L5.024-19.328a1.676,1.676,0,0,0,.768-.736c3.776-.608,7.168-1.312,9.5-1.856a5.509,5.509,0,0,1,.672,1.664c2.528,1.664,4.48-3.456-2.752-4.672l-.288.224a11.834,11.834,0,0,1,1.888,2.048c-3.136.1-6.112.192-8.32.224a29.333,29.333,0,0,0,5.6-2.976c.7.128,1.12-.128,1.248-.448L9.408-27.488c-.832,1.312-3.136,3.872-4.992,4.672-.288.1-.832.224-.832.224L4.96-19.3h.032v5.12c0,2.688-.16,5.44-2.272,7.616l.32.384a7.467,7.467,0,0,0,4.16-4.64L8-8.9a1.121,1.121,0,0,0,.7-.8,39.719,39.719,0,0,0,5.376-2.72ZM25.152-4.288h-.384A19,19,0,0,1,23.424-.864c-.192.288-.352.384-.832.416-.576.032-2.016.064-3.68.064H14.656c-1.344,0-1.5-.128-1.5-.576V-5.12c.64-.1.928-.384.992-.8l-4.032-.352v5.76c0,2.016.736,2.528,4.128,2.528h4.416c6.464,0,7.808-.288,7.808-1.6,0-.512-.256-.864-1.216-1.184Zm.64-1.12A10.751,10.751,0,0,1,29.184.128c2.848,2.016,5.056-3.9-3.072-5.76Z" transform="translate(479.819 1343.601)" fill="#aaa"/>
      <g id="Group_18242" data-name="Group 18242" transform="translate(492.361 1226.638) rotate(-60)">
        <ellipse id="Ellipse_299" data-name="Ellipse 299" cx="2.7" cy="2.7" rx="2.7" ry="2.7" transform="translate(97.2 56.7)" fill="#aaa"/>
        <ellipse id="Ellipse_299-2" data-name="Ellipse 299" cx="2.7" cy="2.7" rx="2.7" ry="2.7" transform="translate(105.3 47.25)" fill="#aaa"/>
        <ellipse id="Ellipse_299-3" data-name="Ellipse 299" cx="2.7" cy="2.7" rx="2.7" ry="2.7" transform="translate(113.4 47.25)" fill="#aaa"/>
        <ellipse id="Ellipse_299-4" data-name="Ellipse 299" cx="2.7" cy="2.7" rx="2.7" ry="2.7" transform="translate(81 37.8)" fill="#aaa"/>
        <ellipse id="Ellipse_299-5" data-name="Ellipse 299" cx="2.7" cy="2.7" rx="2.7" ry="2.7" transform="translate(89.1 37.8)" fill="#aaa"/>
        <ellipse id="Ellipse_299-6" data-name="Ellipse 299" cx="2.7" cy="2.7" rx="2.7" ry="2.7" transform="translate(97.2 37.8)" fill="#aaa"/>
        <ellipse id="Ellipse_299-7" data-name="Ellipse 299" cx="2.7" cy="2.7" rx="2.7" ry="2.7" transform="translate(105.3 37.8)" fill="#aaa"/>
        <ellipse id="Ellipse_299-8" data-name="Ellipse 299" cx="2.7" cy="2.7" rx="2.7" ry="2.7" transform="translate(113.4 37.8)" fill="#aaa"/>
        <ellipse id="Ellipse_299-9" data-name="Ellipse 299" cx="2.7" cy="2.7" rx="2.7" ry="2.7" transform="translate(121.5 37.8)" fill="#aaa"/>
        <ellipse id="Ellipse_299-10" data-name="Ellipse 299" cx="2.7" cy="2.7" rx="2.7" ry="2.7" transform="translate(48.6 28.35)" fill="#aaa"/>
        <ellipse id="Ellipse_333" data-name="Ellipse 333" cx="2.7" cy="2.7" rx="2.7" ry="2.7" transform="translate(0 28.35)" fill="#aaa"/>
        <ellipse id="Ellipse_299-11" data-name="Ellipse 299" cx="2.7" cy="2.7" rx="2.7" ry="2.7" transform="translate(56.7 28.35)" fill="#aaa"/>
        <ellipse id="Ellipse_334" data-name="Ellipse 334" cx="2.7" cy="2.7" rx="2.7" ry="2.7" transform="translate(8.1 28.35)" fill="#aaa"/>
        <ellipse id="Ellipse_299-12" data-name="Ellipse 299" cx="2.7" cy="2.7" rx="2.7" ry="2.7" transform="translate(64.8 28.35)" fill="#aaa"/>
        <ellipse id="Ellipse_335" data-name="Ellipse 335" cx="2.7" cy="2.7" rx="2.7" ry="2.7" transform="translate(16.2 28.35)" fill="#aaa"/>
        <ellipse id="Ellipse_299-13" data-name="Ellipse 299" cx="2.7" cy="2.7" rx="2.7" ry="2.7" transform="translate(72.9 28.35)" fill="#aaa"/>
        <ellipse id="Ellipse_336" data-name="Ellipse 336" cx="2.7" cy="2.7" rx="2.7" ry="2.7" transform="translate(24.3 28.35)" fill="#aaa"/>
        <ellipse id="Ellipse_299-14" data-name="Ellipse 299" cx="2.7" cy="2.7" rx="2.7" ry="2.7" transform="translate(81 28.35)" fill="#aaa"/>
        <ellipse id="Ellipse_337" data-name="Ellipse 337" cx="2.7" cy="2.7" rx="2.7" ry="2.7" transform="translate(32.4 28.35)" fill="#aaa"/>
        <ellipse id="Ellipse_299-15" data-name="Ellipse 299" cx="2.7" cy="2.7" rx="2.7" ry="2.7" transform="translate(89.1 28.35)" fill="#aaa"/>
        <ellipse id="Ellipse_338" data-name="Ellipse 338" cx="2.7" cy="2.7" rx="2.7" ry="2.7" transform="translate(40.5 28.35)" fill="#aaa"/>
        <ellipse id="Ellipse_299-16" data-name="Ellipse 299" cx="2.7" cy="2.7" rx="2.7" ry="2.7" transform="translate(97.2 28.35)" fill="#aaa"/>
        <ellipse id="Ellipse_299-17" data-name="Ellipse 299" cx="2.7" cy="2.7" rx="2.7" ry="2.7" transform="translate(105.3 28.35)" fill="#aaa"/>
        <ellipse id="Ellipse_299-18" data-name="Ellipse 299" cx="2.7" cy="2.7" rx="2.7" ry="2.7" transform="translate(113.4 28.35)" fill="#aaa"/>
        <ellipse id="Ellipse_299-19" data-name="Ellipse 299" cx="2.7" cy="2.7" rx="2.7" ry="2.7" transform="translate(121.5 28.35)" fill="#aaa"/>
        <ellipse id="Ellipse_299-20" data-name="Ellipse 299" cx="2.7" cy="2.7" rx="2.7" ry="2.7" transform="translate(129.6 28.35)" fill="#aaa"/>
        <ellipse id="Ellipse_299-21" data-name="Ellipse 299" cx="2.7" cy="2.7" rx="2.7" ry="2.7" transform="translate(81 18.9)" fill="#aaa"/>
        <ellipse id="Ellipse_299-22" data-name="Ellipse 299" cx="2.7" cy="2.7" rx="2.7" ry="2.7" transform="translate(89.1 18.9)" fill="#aaa"/>
        <ellipse id="Ellipse_299-23" data-name="Ellipse 299" cx="2.7" cy="2.7" rx="2.7" ry="2.7" transform="translate(97.2 18.9)" fill="#aaa"/>
        <ellipse id="Ellipse_299-24" data-name="Ellipse 299" cx="2.7" cy="2.7" rx="2.7" ry="2.7" transform="translate(105.3 18.9)" fill="#aaa"/>
        <ellipse id="Ellipse_299-25" data-name="Ellipse 299" cx="2.7" cy="2.7" rx="2.7" ry="2.7" transform="translate(113.4 18.9)" fill="#aaa"/>
        <ellipse id="Ellipse_299-26" data-name="Ellipse 299" cx="2.7" cy="2.7" rx="2.7" ry="2.7" transform="translate(121.5 18.9)" fill="#aaa"/>
        <ellipse id="Ellipse_299-27" data-name="Ellipse 299" cx="2.7" cy="2.7" rx="2.7" ry="2.7" transform="translate(105.3 9.45)" fill="#aaa"/>
        <ellipse id="Ellipse_299-28" data-name="Ellipse 299" cx="2.7" cy="2.7" rx="2.7" ry="2.7" transform="translate(113.4 9.45)" fill="#aaa"/>
        <ellipse id="Ellipse_299-29" data-name="Ellipse 299" cx="2.7" cy="2.7" rx="2.7" ry="2.7" transform="translate(97.2 0)" fill="#aaa"/>
      </g>
      <g id="Group_18264" data-name="Group 18264" transform="translate(591 1298.601)">
        <ellipse id="Ellipse_299-30" data-name="Ellipse 299" cx="2.7" cy="2.7" rx="2.7" ry="2.7" transform="translate(121.2 56.7)" fill="#09f"/>
        <ellipse id="Ellipse_299-31" data-name="Ellipse 299" cx="2.7" cy="2.7" rx="2.7" ry="2.7" transform="translate(129.3 47.25)" fill="#09f"/>
        <ellipse id="Ellipse_299-32" data-name="Ellipse 299" cx="2.7" cy="2.7" rx="2.7" ry="2.7" transform="translate(137.4 47.25)" fill="#09f"/>
        <ellipse id="Ellipse_299-33" data-name="Ellipse 299" cx="2.7" cy="2.7" rx="2.7" ry="2.7" transform="translate(105 37.8)" fill="#09f"/>
        <ellipse id="Ellipse_342" data-name="Ellipse 342" cx="2.7" cy="2.7" rx="2.7" ry="2.7" transform="translate(97 37.8)" fill="#09f"/>
        <ellipse id="Ellipse_344" data-name="Ellipse 344" cx="2.7" cy="2.7" rx="2.7" ry="2.7" transform="translate(89 37.8)" fill="#09f"/>
        <ellipse id="Ellipse_299-34" data-name="Ellipse 299" cx="2.7" cy="2.7" rx="2.7" ry="2.7" transform="translate(113.1 37.8)" fill="#09f"/>
        <ellipse id="Ellipse_299-35" data-name="Ellipse 299" cx="2.7" cy="2.7" rx="2.7" ry="2.7" transform="translate(121.2 37.8)" fill="#09f"/>
        <ellipse id="Ellipse_299-36" data-name="Ellipse 299" cx="2.7" cy="2.7" rx="2.7" ry="2.7" transform="translate(129.3 37.8)" fill="#09f"/>
        <ellipse id="Ellipse_299-37" data-name="Ellipse 299" cx="2.7" cy="2.7" rx="2.7" ry="2.7" transform="translate(137.4 37.8)" fill="#09f"/>
        <ellipse id="Ellipse_299-38" data-name="Ellipse 299" cx="2.7" cy="2.7" rx="2.7" ry="2.7" transform="translate(145.5 37.8)" fill="#09f"/>
        <ellipse id="Ellipse_299-39" data-name="Ellipse 299" cx="2.7" cy="2.7" rx="2.7" ry="2.7" transform="translate(72.6 28.35)" fill="#09f"/>
        <ellipse id="Ellipse_333-2" data-name="Ellipse 333" cx="2.7" cy="2.7" rx="2.7" ry="2.7" transform="translate(24 28.35)" fill="#09f"/>
        <ellipse id="Ellipse_341" data-name="Ellipse 341" cx="2.7" cy="2.7" rx="2.7" ry="2.7" transform="translate(0 28.35)" fill="#09f"/>
        <ellipse id="Ellipse_299-40" data-name="Ellipse 299" cx="2.7" cy="2.7" rx="2.7" ry="2.7" transform="translate(80.7 28.35)" fill="#09f"/>
        <ellipse id="Ellipse_334-2" data-name="Ellipse 334" cx="2.7" cy="2.7" rx="2.7" ry="2.7" transform="translate(32.1 28.35)" fill="#09f"/>
        <ellipse id="Ellipse_340" data-name="Ellipse 340" cx="2.7" cy="2.7" rx="2.7" ry="2.7" transform="translate(8.1 28.35)" fill="#09f"/>
        <ellipse id="Ellipse_299-41" data-name="Ellipse 299" cx="2.7" cy="2.7" rx="2.7" ry="2.7" transform="translate(88.8 28.35)" fill="#09f"/>
        <ellipse id="Ellipse_335-2" data-name="Ellipse 335" cx="2.7" cy="2.7" rx="2.7" ry="2.7" transform="translate(40.2 28.35)" fill="#09f"/>
        <ellipse id="Ellipse_339" data-name="Ellipse 339" cx="2.7" cy="2.7" rx="2.7" ry="2.7" transform="translate(16.2 28.35)" fill="#09f"/>
        <ellipse id="Ellipse_299-42" data-name="Ellipse 299" cx="2.7" cy="2.7" rx="2.7" ry="2.7" transform="translate(96.9 28.35)" fill="#09f"/>
        <ellipse id="Ellipse_336-2" data-name="Ellipse 336" cx="2.7" cy="2.7" rx="2.7" ry="2.7" transform="translate(48.3 28.35)" fill="#09f"/>
        <ellipse id="Ellipse_299-43" data-name="Ellipse 299" cx="2.7" cy="2.7" rx="2.7" ry="2.7" transform="translate(105 28.35)" fill="#09f"/>
        <ellipse id="Ellipse_337-2" data-name="Ellipse 337" cx="2.7" cy="2.7" rx="2.7" ry="2.7" transform="translate(56.4 28.35)" fill="#09f"/>
        <ellipse id="Ellipse_299-44" data-name="Ellipse 299" cx="2.7" cy="2.7" rx="2.7" ry="2.7" transform="translate(113.1 28.35)" fill="#09f"/>
        <ellipse id="Ellipse_338-2" data-name="Ellipse 338" cx="2.7" cy="2.7" rx="2.7" ry="2.7" transform="translate(64.5 28.35)" fill="#09f"/>
        <ellipse id="Ellipse_299-45" data-name="Ellipse 299" cx="2.7" cy="2.7" rx="2.7" ry="2.7" transform="translate(121.2 28.35)" fill="#09f"/>
        <ellipse id="Ellipse_299-46" data-name="Ellipse 299" cx="2.7" cy="2.7" rx="2.7" ry="2.7" transform="translate(129.3 28.35)" fill="#09f"/>
        <ellipse id="Ellipse_299-47" data-name="Ellipse 299" cx="2.7" cy="2.7" rx="2.7" ry="2.7" transform="translate(137.4 28.35)" fill="#09f"/>
        <ellipse id="Ellipse_299-48" data-name="Ellipse 299" cx="2.7" cy="2.7" rx="2.7" ry="2.7" transform="translate(145.5 28.35)" fill="#09f"/>
        <ellipse id="Ellipse_299-49" data-name="Ellipse 299" cx="2.7" cy="2.7" rx="2.7" ry="2.7" transform="translate(153.6 28.35)" fill="#09f"/>
        <ellipse id="Ellipse_299-50" data-name="Ellipse 299" cx="2.7" cy="2.7" rx="2.7" ry="2.7" transform="translate(105 18.9)" fill="#09f"/>
        <ellipse id="Ellipse_343" data-name="Ellipse 343" cx="2.7" cy="2.7" rx="2.7" ry="2.7" transform="translate(97 18.9)" fill="#09f"/>
        <ellipse id="Ellipse_345" data-name="Ellipse 345" cx="2.7" cy="2.7" rx="2.7" ry="2.7" transform="translate(89 18.9)" fill="#09f"/>
        <ellipse id="Ellipse_299-51" data-name="Ellipse 299" cx="2.7" cy="2.7" rx="2.7" ry="2.7" transform="translate(113.1 18.9)" fill="#09f"/>
        <ellipse id="Ellipse_299-52" data-name="Ellipse 299" cx="2.7" cy="2.7" rx="2.7" ry="2.7" transform="translate(121.2 18.9)" fill="#09f"/>
        <ellipse id="Ellipse_299-53" data-name="Ellipse 299" cx="2.7" cy="2.7" rx="2.7" ry="2.7" transform="translate(129.3 18.9)" fill="#09f"/>
        <ellipse id="Ellipse_299-54" data-name="Ellipse 299" cx="2.7" cy="2.7" rx="2.7" ry="2.7" transform="translate(137.4 18.9)" fill="#09f"/>
        <ellipse id="Ellipse_299-55" data-name="Ellipse 299" cx="2.7" cy="2.7" rx="2.7" ry="2.7" transform="translate(145.5 18.9)" fill="#09f"/>
        <ellipse id="Ellipse_299-56" data-name="Ellipse 299" cx="2.7" cy="2.7" rx="2.7" ry="2.7" transform="translate(129.3 9.45)" fill="#09f"/>
        <ellipse id="Ellipse_299-57" data-name="Ellipse 299" cx="2.7" cy="2.7" rx="2.7" ry="2.7" transform="translate(137.4 9.45)" fill="#09f"/>
        <ellipse id="Ellipse_299-58" data-name="Ellipse 299" cx="2.7" cy="2.7" rx="2.7" ry="2.7" transform="translate(121.2 0)" fill="#09f"/>
      </g>
      <g id="Group_18263" data-name="Group 18263" transform="translate(774.141 1109.724) rotate(60)">
        <ellipse id="Ellipse_299-59" data-name="Ellipse 299" cx="2.7" cy="2.7" rx="2.7" ry="2.7" transform="translate(97.2 0)" fill="#aaa"/>
        <ellipse id="Ellipse_299-60" data-name="Ellipse 299" cx="2.7" cy="2.7" rx="2.7" ry="2.7" transform="translate(105.3 9.45)" fill="#aaa"/>
        <ellipse id="Ellipse_299-61" data-name="Ellipse 299" cx="2.7" cy="2.7" rx="2.7" ry="2.7" transform="translate(113.4 9.45)" fill="#aaa"/>
        <ellipse id="Ellipse_299-62" data-name="Ellipse 299" cx="2.7" cy="2.7" rx="2.7" ry="2.7" transform="translate(81 18.9)" fill="#aaa"/>
        <ellipse id="Ellipse_299-63" data-name="Ellipse 299" cx="2.7" cy="2.7" rx="2.7" ry="2.7" transform="translate(89.1 18.9)" fill="#aaa"/>
        <ellipse id="Ellipse_299-64" data-name="Ellipse 299" cx="2.7" cy="2.7" rx="2.7" ry="2.7" transform="translate(97.2 18.9)" fill="#aaa"/>
        <ellipse id="Ellipse_299-65" data-name="Ellipse 299" cx="2.7" cy="2.7" rx="2.7" ry="2.7" transform="translate(105.3 18.9)" fill="#aaa"/>
        <ellipse id="Ellipse_299-66" data-name="Ellipse 299" cx="2.7" cy="2.7" rx="2.7" ry="2.7" transform="translate(113.4 18.9)" fill="#aaa"/>
        <ellipse id="Ellipse_299-67" data-name="Ellipse 299" cx="2.7" cy="2.7" rx="2.7" ry="2.7" transform="translate(121.5 18.9)" fill="#aaa"/>
        <ellipse id="Ellipse_299-68" data-name="Ellipse 299" cx="2.7" cy="2.7" rx="2.7" ry="2.7" transform="translate(48.6 28.35)" fill="#aaa"/>
        <ellipse id="Ellipse_333-3" data-name="Ellipse 333" cx="2.7" cy="2.7" rx="2.7" ry="2.7" transform="translate(0 28.35)" fill="#aaa"/>
        <ellipse id="Ellipse_299-69" data-name="Ellipse 299" cx="2.7" cy="2.7" rx="2.7" ry="2.7" transform="translate(56.7 28.35)" fill="#aaa"/>
        <ellipse id="Ellipse_334-3" data-name="Ellipse 334" cx="2.7" cy="2.7" rx="2.7" ry="2.7" transform="translate(8.1 28.35)" fill="#aaa"/>
        <ellipse id="Ellipse_299-70" data-name="Ellipse 299" cx="2.7" cy="2.7" rx="2.7" ry="2.7" transform="translate(64.8 28.35)" fill="#aaa"/>
        <ellipse id="Ellipse_335-3" data-name="Ellipse 335" cx="2.7" cy="2.7" rx="2.7" ry="2.7" transform="translate(16.2 28.35)" fill="#aaa"/>
        <ellipse id="Ellipse_299-71" data-name="Ellipse 299" cx="2.7" cy="2.7" rx="2.7" ry="2.7" transform="translate(72.9 28.35)" fill="#aaa"/>
        <ellipse id="Ellipse_336-3" data-name="Ellipse 336" cx="2.7" cy="2.7" rx="2.7" ry="2.7" transform="translate(24.3 28.35)" fill="#aaa"/>
        <ellipse id="Ellipse_299-72" data-name="Ellipse 299" cx="2.7" cy="2.7" rx="2.7" ry="2.7" transform="translate(81 28.35)" fill="#aaa"/>
        <ellipse id="Ellipse_337-3" data-name="Ellipse 337" cx="2.7" cy="2.7" rx="2.7" ry="2.7" transform="translate(32.4 28.35)" fill="#aaa"/>
        <ellipse id="Ellipse_299-73" data-name="Ellipse 299" cx="2.7" cy="2.7" rx="2.7" ry="2.7" transform="translate(89.1 28.35)" fill="#aaa"/>
        <ellipse id="Ellipse_338-3" data-name="Ellipse 338" cx="2.7" cy="2.7" rx="2.7" ry="2.7" transform="translate(40.5 28.35)" fill="#aaa"/>
        <ellipse id="Ellipse_299-74" data-name="Ellipse 299" cx="2.7" cy="2.7" rx="2.7" ry="2.7" transform="translate(97.2 28.35)" fill="#aaa"/>
        <ellipse id="Ellipse_299-75" data-name="Ellipse 299" cx="2.7" cy="2.7" rx="2.7" ry="2.7" transform="translate(105.3 28.35)" fill="#aaa"/>
        <ellipse id="Ellipse_299-76" data-name="Ellipse 299" cx="2.7" cy="2.7" rx="2.7" ry="2.7" transform="translate(113.4 28.35)" fill="#aaa"/>
        <ellipse id="Ellipse_299-77" data-name="Ellipse 299" cx="2.7" cy="2.7" rx="2.7" ry="2.7" transform="translate(121.5 28.35)" fill="#aaa"/>
        <ellipse id="Ellipse_299-78" data-name="Ellipse 299" cx="2.7" cy="2.7" rx="2.7" ry="2.7" transform="translate(129.6 28.35)" fill="#aaa"/>
        <ellipse id="Ellipse_299-79" data-name="Ellipse 299" cx="2.7" cy="2.7" rx="2.7" ry="2.7" transform="translate(81 37.8)" fill="#aaa"/>
        <ellipse id="Ellipse_299-80" data-name="Ellipse 299" cx="2.7" cy="2.7" rx="2.7" ry="2.7" transform="translate(89.1 37.8)" fill="#aaa"/>
        <ellipse id="Ellipse_299-81" data-name="Ellipse 299" cx="2.7" cy="2.7" rx="2.7" ry="2.7" transform="translate(97.2 37.8)" fill="#aaa"/>
        <ellipse id="Ellipse_299-82" data-name="Ellipse 299" cx="2.7" cy="2.7" rx="2.7" ry="2.7" transform="translate(105.3 37.8)" fill="#aaa"/>
        <ellipse id="Ellipse_299-83" data-name="Ellipse 299" cx="2.7" cy="2.7" rx="2.7" ry="2.7" transform="translate(113.4 37.8)" fill="#aaa"/>
        <ellipse id="Ellipse_299-84" data-name="Ellipse 299" cx="2.7" cy="2.7" rx="2.7" ry="2.7" transform="translate(121.5 37.8)" fill="#aaa"/>
        <ellipse id="Ellipse_299-85" data-name="Ellipse 299" cx="2.7" cy="2.7" rx="2.7" ry="2.7" transform="translate(105.3 47.25)" fill="#aaa"/>
        <ellipse id="Ellipse_299-86" data-name="Ellipse 299" cx="2.7" cy="2.7" rx="2.7" ry="2.7" transform="translate(113.4 47.25)" fill="#aaa"/>
        <ellipse id="Ellipse_299-87" data-name="Ellipse 299" cx="2.7" cy="2.7" rx="2.7" ry="2.7" transform="translate(97.2 56.7)" fill="#aaa"/>
      </g>
      <g id="Ellipse_332-2" data-name="Ellipse 332" transform="translate(589 966)" fill="none" stroke="#aaa" stroke-linecap="round" stroke-width="3">
        <circle cx="81.199" cy="81.199" r="81.199" stroke="none"/>
        <circle cx="81.199" cy="81.199" r="79.699" fill="none"/>
      </g>
      <path id="Path_27081" data-name="Path 27081" d="M-24.192-21.472H-3.328c.448,0,.768-.16.864-.512-1.184-1.152-3.264-2.72-3.264-2.72l-1.824,2.336h-5.92c2.144-.128,2.88-4.352-3.712-4.9l-.256.224a8.215,8.215,0,0,1,2.688,4.288,2.24,2.24,0,0,0,1.088.384H-24.448Zm-6.624-5.088a10.581,10.581,0,0,1,3.04,4.576c2.976,1.952,5.248-3.776-2.784-4.832ZM-32.7-19.072a9.568,9.568,0,0,1,2.656,4.352c2.752,1.92,5.184-3.488-2.368-4.576Zm8.672-1.12c-5.184,11.68-5.184,11.68-5.824,12.8-.32.672-.448.672-.9.672H-32.16v.64a3.062,3.062,0,0,1,1.6.512c.736.48.9,3.264.352,6.592.16,1.12.736,1.632,1.376,1.632A2.24,2.24,0,0,0-26.592.224c.128-2.752-.96-4.1-1.024-5.664a12.17,12.17,0,0,1,.448-2.816c.416-1.472,2.56-8.192,3.744-11.808Zm4.288,5.248c.928-1.472,1.7-2.912,2.3-4.128.832.064,1.088-.128,1.248-.512l-3.936-1.536A45.677,45.677,0,0,1-26.3-7.712l.384.352a30.261,30.261,0,0,0,3.648-3.9V2.72h.544a3.273,3.273,0,0,0,2.208-.832V-13.888a1.227,1.227,0,0,0,.992-.608Zm12.192-.768A29.7,29.7,0,0,1-11.04-5.5a18.436,18.436,0,0,1-3.3-7.2c.256-.48.512-.9.736-1.376a9.325,9.325,0,0,1,1.728,3.808c2.048,1.664,4.256-2.3-1.5-4.32a11.927,11.927,0,0,0,.512-1.12ZM-6.144-18.3l-1.6,1.664H-12.48c.352-.9.672-1.76.928-2.528.8,0,1.088-.224,1.216-.576L-14.4-20.928c-.544,3.776-1.952,9.5-4.1,13.312l.352.352a21.237,21.237,0,0,0,3.36-4.64A28.091,28.091,0,0,0-12.16-3.84a21.038,21.038,0,0,1-7.008,6.208l.288.448a22.7,22.7,0,0,0,7.808-4.928A13.94,13.94,0,0,0-4.7,2.72,3.069,3.069,0,0,1-2.464.1l.064-.32A17,17,0,0,1-9.5-3.9a26.906,26.906,0,0,0,4.928-11.36c.736-.064,1.056-.16,1.28-.48ZM30.5-12.672a.766.766,0,0,0,.832-.512c-1.056-1.024-2.816-2.432-2.816-2.432L26.976-13.6h-4.9v-2.08c.608-.1.9-.384.96-.8l-3.776-.352V-9.5c0,1.856.512,2.4,3.264,2.4h3.1c4.832,0,6.016-.352,6.016-1.536,0-.48-.224-.8-1.088-1.088l-.1-2.048h-.352a7.383,7.383,0,0,1-1.024,2.048.934.934,0,0,1-.7.224c-.352.032-1.376.032-2.432.032H23.168c-.96,0-1.088-.1-1.088-.544v-2.656ZM15.9-6.656a10.263,10.263,0,0,1,3.232,4.448c2.592,1.664,4.576-3.424-2.912-4.7ZM25.376-17.28c4.672,0,5.824-.256,5.824-1.408,0-.512-.288-.736-1.152-1.024l-.128-.032H29.6a5.045,5.045,0,0,1-.8.16,6.882,6.882,0,0,0-.736.064c-.384,0-1.376.032-2.4.032H23.008c-.96,0-1.056-.16-1.056-.576V-22.4h8.192c.448,0,.736-.16.832-.512-1.056-1.056-2.784-2.464-2.784-2.464l-1.568,2.048H21.952v-2.5c.576-.1.9-.352.928-.768l-3.68-.352v7.3c0,1.792.48,2.368,3.168,2.368ZM7.008-5.888A5.089,5.089,0,0,1,4.416-1.7,1.692,1.692,0,0,0,3.36.32a1.694,1.694,0,0,0,2.5.448c1.376-.8,2.688-3.136,1.664-6.656Zm.608-9.088a10.007,10.007,0,0,1,4.16,1.632c2.432.32,1.248-4.192-4.16-2.528v-1.28H14.08v3.9A48.644,48.644,0,0,1,7.456-11.9a14.3,14.3,0,0,0,.16-2.272Zm6.464,4.96c0,.384-.1.576-.544.576-.576,0-2.624-.16-2.624-.16v.48a3.467,3.467,0,0,1,1.984.736,2.577,2.577,0,0,1,.48,1.536C16.32-7.1,16.7-8.1,16.7-9.792V-16.64a2.274,2.274,0,0,0,1.344-.672L15.04-19.584l-1.28,1.5H8.1L5.024-19.328a1.676,1.676,0,0,0,.768-.736c3.776-.608,7.168-1.312,9.5-1.856a5.509,5.509,0,0,1,.672,1.664c2.528,1.664,4.48-3.456-2.752-4.672l-.288.224a11.834,11.834,0,0,1,1.888,2.048c-3.136.1-6.112.192-8.32.224a29.333,29.333,0,0,0,5.6-2.976c.7.128,1.12-.128,1.248-.448L9.408-27.488c-.832,1.312-3.136,3.872-4.992,4.672-.288.1-.832.224-.832.224L4.96-19.3h.032v5.12c0,2.688-.16,5.44-2.272,7.616l.32.384a7.467,7.467,0,0,0,4.16-4.64L8-8.9a1.121,1.121,0,0,0,.7-.8,39.719,39.719,0,0,0,5.376-2.72ZM25.152-4.288h-.384A19,19,0,0,1,23.424-.864c-.192.288-.352.384-.832.416-.576.032-2.016.064-3.68.064H14.656c-1.344,0-1.5-.128-1.5-.576V-5.12c.64-.1.928-.384.992-.8l-4.032-.352v5.76c0,2.016.736,2.528,4.128,2.528h4.416c6.464,0,7.808-.288,7.808-1.6,0-.512-.256-.864-1.216-1.184Zm.64-1.12A10.751,10.751,0,0,1,29.184.128c2.848,2.016,5.056-3.9-3.072-5.76Z" transform="translate(670 1059.786)" fill="#aaa"/>
      <path id="Path_26801" data-name="Path 26801" d="M81.2,0A81.2,81.2,0,1,1,0,81.2,81.2,81.2,0,0,1,81.2,0Z" transform="translate(777.602 1248.601)" fill="#0086df"/>
      <path id="Path_27085" data-name="Path 27085" d="M-4.48-22.208c.48,0,.8-.16.9-.512-1.376-1.216-3.392-2.72-3.392-2.72l-1.888,2.3H-22.656c.32-.512.64-1.056.928-1.6.736.128,1.12-.128,1.28-.48L-24.7-27.1A27.753,27.753,0,0,1-32.288-15.04l.352.32a22.332,22.332,0,0,0,8.672-7.488ZM-24.9-19.68l.256.928H-6.784c.448,0,.736-.16.832-.512-1.216-1.088-3.232-2.56-3.232-2.56l-1.728,2.144ZM-30.528,1.472a17.493,17.493,0,0,0,6.4-4.832,1.137,1.137,0,0,0,1.312-.416L-26.368-5.6a24.063,24.063,0,0,1-4.48,6.72Zm11.776-6.208A14.288,14.288,0,0,1-14.528.736c3.072,1.792,4.832-4.352-3.936-5.728Zm15.808,0L-3.3-4.8A26.541,26.541,0,0,1-4.32-1.728c-.16.352-.32.416-.7.16C-7.776-3.36-8.448-9.92-8.352-14.816a2.194,2.194,0,0,0,1.312-.512l-3.232-2.528-1.6,1.728H-28.928l.288.928h17.12a60.36,60.36,0,0,0,.608,7.808c-1.12-1.024-2.848-2.3-2.848-2.3l-1.6,1.952h-4.192v-5.6c.736-.128.992-.416,1.056-.8l-3.936-.416v6.816H-31.3l.256.928h8.608v9.5h.576c1.024,0,2.3-.576,2.3-.9V-6.816h7.872a.873.873,0,0,0,.8-.352C-10.24-3.3-8.96-.064-6.528,1.6c1.216.992,2.88,1.568,3.776.512.448-.576.288-1.376-.512-2.56Zm-25.824-8.9a12.018,12.018,0,0,1,2.208,4.7c2.432,2.048,5.088-2.816-1.888-4.9Zm12.672-.416c-.8,1.984-1.728,4.1-2.432,5.408l.448.32a45.568,45.568,0,0,0,4.352-3.616,1,1,0,0,0,1.216-.48ZM30.5-12.672a.766.766,0,0,0,.832-.512c-1.056-1.024-2.816-2.432-2.816-2.432L26.976-13.6h-4.9v-2.08c.608-.1.9-.384.96-.8l-3.776-.352V-9.5c0,1.856.512,2.4,3.264,2.4h3.1c4.832,0,6.016-.352,6.016-1.536,0-.48-.224-.8-1.088-1.088l-.1-2.048h-.352a7.383,7.383,0,0,1-1.024,2.048.934.934,0,0,1-.7.224c-.352.032-1.376.032-2.432.032H23.168c-.96,0-1.088-.1-1.088-.544v-2.656ZM15.9-6.656a10.263,10.263,0,0,1,3.232,4.448c2.592,1.664,4.576-3.424-2.912-4.7ZM25.376-17.28c4.672,0,5.824-.256,5.824-1.408,0-.512-.288-.736-1.152-1.024l-.128-.032H29.6a5.045,5.045,0,0,1-.8.16,6.882,6.882,0,0,0-.736.064c-.384,0-1.376.032-2.4.032H23.008c-.96,0-1.056-.16-1.056-.576V-22.4h8.192c.448,0,.736-.16.832-.512-1.056-1.056-2.784-2.464-2.784-2.464l-1.568,2.048H21.952v-2.5c.576-.1.9-.352.928-.768l-3.68-.352v7.3c0,1.792.48,2.368,3.168,2.368ZM7.008-5.888A5.089,5.089,0,0,1,4.416-1.7,1.692,1.692,0,0,0,3.36.32a1.694,1.694,0,0,0,2.5.448c1.376-.8,2.688-3.136,1.664-6.656Zm.608-9.088a10.007,10.007,0,0,1,4.16,1.632c2.432.32,1.248-4.192-4.16-2.528v-1.28H14.08v3.9A48.644,48.644,0,0,1,7.456-11.9a14.3,14.3,0,0,0,.16-2.272Zm6.464,4.96c0,.384-.1.576-.544.576-.576,0-2.624-.16-2.624-.16v.48a3.467,3.467,0,0,1,1.984.736,2.577,2.577,0,0,1,.48,1.536C16.32-7.1,16.7-8.1,16.7-9.792V-16.64a2.274,2.274,0,0,0,1.344-.672L15.04-19.584l-1.28,1.5H8.1L5.024-19.328a1.676,1.676,0,0,0,.768-.736c3.776-.608,7.168-1.312,9.5-1.856a5.509,5.509,0,0,1,.672,1.664c2.528,1.664,4.48-3.456-2.752-4.672l-.288.224a11.834,11.834,0,0,1,1.888,2.048c-3.136.1-6.112.192-8.32.224a29.333,29.333,0,0,0,5.6-2.976c.7.128,1.12-.128,1.248-.448L9.408-27.488c-.832,1.312-3.136,3.872-4.992,4.672-.288.1-.832.224-.832.224L4.96-19.3h.032v5.12c0,2.688-.16,5.44-2.272,7.616l.32.384a7.467,7.467,0,0,0,4.16-4.64L8-8.9a1.121,1.121,0,0,0,.7-.8,39.719,39.719,0,0,0,5.376-2.72ZM25.152-4.288h-.384A19,19,0,0,1,23.424-.864c-.192.288-.352.384-.832.416-.576.032-2.016.064-3.68.064H14.656c-1.344,0-1.5-.128-1.5-.576V-5.12c.64-.1.928-.384.992-.8l-4.032-.352v5.76c0,2.016.736,2.528,4.128,2.528h4.416c6.464,0,7.808-.288,7.808-1.6,0-.512-.256-.864-1.216-1.184Zm.64-1.12A10.751,10.751,0,0,1,29.184.128c2.848,2.016,5.056-3.9-3.072-5.76Z" transform="translate(857.421 1343.601)" fill="#fff"/>
      <path id="Path_27083" data-name="Path 27083" d="M-7.248-18.024v2.592H-17.9v-2.592ZM-17.9-12.048V-14.76H-7.248v2.712Zm0,.672H-7.248V-10.2h.36a3.728,3.728,0,0,0,1.92-.576v-6.84a1.7,1.7,0,0,0,.984-.5l-2.4-1.824-1.1,1.224H-17.736l-2.4-.984V-9.672h.336c.912,0,1.9-.5,1.9-.72ZM-5.4-5.16H-7.56v-4.1c.648-.1.84-.336.888-.672l-3.192-.312V-5.16h-4.968v-2.9c.96-.192,1.848-.408,2.592-.624a1.6,1.6,0,0,0,1.368-.024L-13.248-10.8a37.581,37.581,0,0,1-9.36,3.36l.072.36a45.147,45.147,0,0,0,5.424-.576v2.5h-6.48l.192.672h6.24c-.264,2.3-1.488,4.488-6,6.216l.168.288c6.432-1.44,7.848-4.056,8.112-6.5h5.016v6.5h.432c.864,0,1.872-.408,1.872-.648V-4.488h5.328c.36,0,.6-.12.672-.384-.912-.864-2.472-2.112-2.472-2.112ZM6.312-14.544a2.742,2.742,0,0,0,2.136-.6l-.24-1.7h3.816c.336,0,.552-.12.6-.384-.768-.792-2.112-1.872-2.112-1.872l-1.2,1.56h-1.2L7.9-19.3c.48-.144.648-.36.672-.648l-2.976-.24.336,2.64H1.392l.192.7h4.44Zm-.6,8.16h.336c.648,0,1.416-.336,1.416-.528V-9.168H10.68c.336,0,.576-.12.624-.384-.72-.72-1.944-1.7-1.944-1.7L8.3-9.864h-.84v-1.9c.528-.048.7-.264.744-.552l-2.5-.264v2.712H1.9l.192.7H5.712Zm14.136.648H13.632V-13.32h8.3c.336,0,.576-.12.648-.384-.864-.768-2.256-1.752-2.256-1.752l-1.176,1.44H2.76l.216.7H11.4v7.584H2.184l.192.7H11.4v2.616H3.144l.216.7H11.4v3.72h.384c1.152,0,1.848-.48,1.848-.624v-3.1h8.112c.336,0,.6-.12.672-.384-.96-.816-2.448-1.92-2.448-1.92L18.624-2.424H13.632V-5.04h8.952c.336,0,.576-.12.648-.384-.84-.768-2.208-1.8-2.208-1.8Zm.528-4.128H18.624v-1.9c.528-.048.7-.264.744-.552l-2.5-.264v2.712H14.3l.192.7h2.376v2.592h.336c.648,0,1.416-.336,1.416-.5V-9.168h4.224c.312,0,.552-.12.6-.384A24.855,24.855,0,0,0,21.48-11.28Zm.12-7.68h-2.28l.264-1.512c.6-.024.84-.264.912-.576l-2.952-.576-.408,2.664H13.176l.192.7h2.544l-.336,2.16a2.987,2.987,0,0,0,2.208-.264l.312-1.9h5.088c.336,0,.552-.12.624-.384-.792-.792-2.136-1.872-2.136-1.872Z" transform="translate(670 1292.005)" fill="#09f"/>
      <path id="Path_27082" data-name="Path 27082" d="M-34.152-5.88h6.336V-7.464h-6.336Zm10.68-1.128,5.784-8.424v8.424Zm10.944,0h-2.736V-17.88H-17.04L-24.816-6.672v1.44h7.128V0h2.424V-5.232h2.736ZM-7.1-8.952c0-6.432,1.44-8.136,3.072-8.136,1.56,0,3.024,1.728,3.024,8.136,0,6.6-1.464,8.352-3.024,8.352C-5.664-.6-7.1-2.328-7.1-8.952Zm3.072-9.072c-2.952,0-5.712,2.544-5.712,9.072C-9.744-2.208-6.984.36-4.032.36c2.9,0,5.664-2.568,5.664-9.312C1.632-15.48-1.128-18.024-4.032-18.024ZM8.952-12.288a2.386,2.386,0,0,1-2.4-2.592,2.386,2.386,0,0,1,2.4-2.592,2.391,2.391,0,0,1,2.424,2.592A2.391,2.391,0,0,1,8.952-12.288Zm0-6.12A3.413,3.413,0,0,0,5.5-14.88a3.393,3.393,0,0,0,3.456,3.5,3.426,3.426,0,0,0,3.48-3.5A3.446,3.446,0,0,0,8.952-18.408ZM24.912-4.92,24.048-.912a4.509,4.509,0,0,1-1.872.384C19.08-.528,16.848-3.5,16.848-9c0-5.4,2.136-8.472,5.376-8.472a4.466,4.466,0,0,1,1.7.288l.816,4.056h1.272l-.048-4.128a6.942,6.942,0,0,0-3.984-1.152c-4.632,0-8.04,3.216-8.04,9.408S17.3.432,21.816.432a7.146,7.146,0,0,0,4.344-1.3l.024-4.056ZM-48.48,37.112a29.5,29.5,0,0,0,8.328-2.928c.672.144,1.1.072,1.32-.192l-2.76-1.752A23.276,23.276,0,0,1-48.6,36.776Zm12.792-4.056a14.861,14.861,0,0,1,5.976,3.432c2.112,1.752,5.856-2.808-5.88-3.768Zm-6.624-3.816h9.072v2.112h-9.072Zm9.072-8.112v2.064h-9.072V21.128Zm0,5.424v1.992h-9.072V26.552Zm0-.672h-9.072V23.888h9.072Zm2.616,5.472h-.24V21.416c.624-.1.912-.24,1.08-.48l-2.64-1.872-1.08,1.392h-3.7c.1-.648.216-1.416.336-2.232H-28.3c.336,0,.6-.12.672-.384-.984-.864-2.592-2.04-2.592-2.04l-1.416,1.752h-5.136l.264-1.944c.5-.072.816-.336.864-.7l-3.192-.288c-.024.912-.072,1.92-.144,2.928h-8.832l.192.672H-39c-.072.84-.12,1.584-.168,2.232h-2.9l-2.52-1.032V31.352h-4.152l.216.7h21.24c.336,0,.6-.12.672-.384-.984-.912-2.592-2.16-2.592-2.16Zm24.456,3.84H-11.52V27.7h6c.336,0,.6-.12.648-.384-.864-.84-2.3-1.992-2.3-1.992l-1.32,1.68H-19.944l.192.7h5.88v7.488h-8.76l.216.7h19.44c.36,0,.6-.12.672-.384-.912-.912-2.472-2.136-2.472-2.136ZM-15.96,19.136c-.84,2.76-2.76,5.112-6.768,6.816l.168.288c4.488-.7,6.912-2.592,8.52-5.16.72,0,.984-.168,1.08-.456Zm12.144-2.16-1.32,1.344h-6.936c1.512-.312,2.064-3.072-2.472-3.816l-.216.12a6.1,6.1,0,0,1,1.344,3.288,1.925,1.925,0,0,0,.792.408h-7.44a10.375,10.375,0,0,0-.48-1.464l-.36.024a3.77,3.77,0,0,1-1.536,3.552,1.357,1.357,0,0,0-.816,1.656,1.345,1.345,0,0,0,2.04.408,3.479,3.479,0,0,0,1.248-3.48h8.928V22.4c0,2.3.24,2.568,2.688,2.568h3.216c2.232,0,2.76-.384,2.76-1.248,0-.336-.12-.48-.912-.768l-.12-.024h-.216a1.874,1.874,0,0,1-.672.1H-8.064c-.72,0-.744,0-.744-.648v-3.36h3.792c-.192.96-.5,2.136-.744,2.952l.24.168A16.053,16.053,0,0,0-2.4,19.5c.5-.024.768-.072.936-.288ZM18.1,16.16A10.087,10.087,0,0,1,20.424,20c1.992,1.368,3.672-2.592-2.112-3.984Zm-8.52-.408c.648-.1.816-.336.888-.672l-3.048-.336v7.7H4.656v-5.52c.5-.1.72-.288.768-.624l-2.856-.288v6.192a3.853,3.853,0,0,0-.912.648l2.4,1.344.768-1.056H7.416v3.648H1.368l.192.7H3.12c-.024,3.336-.1,6.576-1.7,9.192l.312.336c2.928-2.4,3.384-5.832,3.5-9.528H7.416v9.576h.408c.816,0,1.752-.552,1.752-.816ZM23.3,23.216c.336,0,.6-.12.648-.384-.888-.816-2.352-1.968-2.352-1.968L20.328,22.52h-3.36c.12-2.04.144-4.248.168-6.648.6-.1.84-.36.912-.72l-3.168-.288c0,2.784,0,5.352-.12,7.656H10.032l.192.7h4.488c-.336,5.64-1.464,9.912-5.184,13.464l.36.336c5.04-3.168,6.5-7.44,6.984-13.1.456,4.3,1.632,9.816,5.136,12.936A2.384,2.384,0,0,1,24,34.664l.024-.288a15.422,15.422,0,0,1-6.768-11.16ZM47.472,25.5a.574.574,0,0,0,.624-.384c-.792-.768-2.112-1.824-2.112-1.824L44.832,24.8H41.16V23.24c.456-.072.672-.288.72-.6l-2.832-.264v5.5c0,1.392.384,1.8,2.448,1.8h2.328c3.624,0,4.512-.264,4.512-1.152,0-.36-.168-.6-.816-.816l-.072-1.536h-.264a5.537,5.537,0,0,1-.768,1.536.7.7,0,0,1-.528.168c-.264.024-1.032.024-1.824.024H41.976c-.72,0-.816-.072-.816-.408V25.5ZM36.528,30.008a7.7,7.7,0,0,1,2.424,3.336c1.944,1.248,3.432-2.568-2.184-3.528Zm7.1-7.968c3.5,0,4.368-.192,4.368-1.056,0-.384-.216-.552-.864-.768l-.1-.024H46.8a3.784,3.784,0,0,1-.6.12,5.161,5.161,0,0,0-.552.048c-.288,0-1.032.024-1.8.024H41.856c-.72,0-.792-.12-.792-.432V18.2h6.144c.336,0,.552-.12.624-.384-.792-.792-2.088-1.848-2.088-1.848L44.568,17.5h-3.5V15.632c.432-.072.672-.264.7-.576L39,14.792v5.472c0,1.344.36,1.776,2.376,1.776ZM29.856,30.584a3.817,3.817,0,0,1-1.944,3.144,1.122,1.122,0,1,0,1.08,1.848c1.032-.6,2.016-2.352,1.248-4.992Zm.456-6.816a7.505,7.505,0,0,1,3.12,1.224c1.824.24.936-3.144-3.12-1.9v-.96H35.16v2.928a36.483,36.483,0,0,1-4.968,1.008,10.728,10.728,0,0,0,.12-1.7Zm4.848,3.72c0,.288-.072.432-.408.432-.432,0-1.968-.12-1.968-.12v.36a2.6,2.6,0,0,1,1.488.552,1.932,1.932,0,0,1,.36,1.152c2.208-.192,2.5-.936,2.5-2.208V22.52a1.705,1.705,0,0,0,1.008-.5l-2.256-1.7-.96,1.128H30.672l-2.3-.936a1.257,1.257,0,0,0,.576-.552c2.832-.456,5.376-.984,7.128-1.392a4.132,4.132,0,0,1,.5,1.248c1.9,1.248,3.36-2.592-2.064-3.5l-.216.168a8.876,8.876,0,0,1,1.416,1.536c-2.352.072-4.584.144-6.24.168a22,22,0,0,0,4.2-2.232c.528.1.84-.1.936-.336l-2.952-1.224a11.017,11.017,0,0,1-3.744,3.5c-.216.072-.624.168-.624.168l1.032,2.472h.024v3.84c0,2.016-.12,4.08-1.7,5.712l.24.288A5.6,5.6,0,0,0,30,26.888l.6,1.44a.841.841,0,0,0,.528-.6,29.789,29.789,0,0,0,4.032-2.04Zm8.3,4.3h-.288a14.25,14.25,0,0,1-1.008,2.568c-.144.216-.264.288-.624.312-.432.024-1.512.048-2.76.048H35.592c-1.008,0-1.128-.1-1.128-.432V31.16c.48-.072.7-.288.744-.6L32.184,30.3v4.32c0,1.512.552,1.9,3.1,1.9h3.312c4.848,0,5.856-.216,5.856-1.2,0-.384-.192-.648-.912-.888Zm.48-.84A8.063,8.063,0,0,1,46.488,35.1c2.136,1.512,3.792-2.928-2.3-4.32Z" transform="translate(670 1192.004)" fill="#09f"/>
    </g>
  </g>
</svg>
