<svg xmlns="http://www.w3.org/2000/svg" xmlns:xlink="http://www.w3.org/1999/xlink" width="150" height="150" viewBox="0 0 150 150">
  <defs>
    <clipPath id="clip-path">
      <rect id="Rectangle_6426" data-name="Rectangle 6426" width="150" height="150" transform="translate(595 576)" fill="#fff" stroke="#707070" stroke-width="1"/>
    </clipPath>
    <clipPath id="clip-icon-about-2">
      <rect width="150" height="150"/>
    </clipPath>
  </defs>
  <g id="icon-about-2" clip-path="url(#clip-icon-about-2)">
    <g id="Mask_Group_739" data-name="Mask Group 739" transform="translate(-595 -576)" clip-path="url(#clip-path)">
      <g id="Group_18580" data-name="Group 18580" transform="translate(-605.456 -22.7)">
        <path id="Path_27132" data-name="Path 27132" d="M1246.017,674c-3.3-.942-3.767-3.531-3.531-6.827h4.473c0,2.119,0,3.767,2.825,3.767,1.648,0,2.354-.942,2.354-2.59,0-3.767-9.417-4.238-9.417-10.829,0-3.531,1.648-6.121,7.3-6.121,4.473,0,6.827,2.119,6.356,6.592H1251.9c0-1.648-.235-3.531-2.119-3.531a2.111,2.111,0,0,0-2.354,2.354c0,4,9.417,3.767,9.417,10.829,0,3.767-1.884,5.415-4,5.886" transform="translate(47.367 60.533)" fill="#77787b"/>
        <path id="Path_27133" data-name="Path 27133" d="M1259.215,658.527c0-2.119-.235-3.767-2.825-3.767-3.061,0-3.061,3.767-3.061,8.24,0,6.827.707,8.24,3.531,8.24a8.361,8.361,0,0,0,2.354-.471v-4.944h-2.589v-3.531h7.062v11.065a8.743,8.743,0,0,0-2.119.471h-8c-4.238-1.177-4.709-4.473-4.709-11.065,0-5.415.236-11.065,7.769-11.065,4.473,0,7.3,2.59,7.062,7.063" transform="translate(56.064 60.939)" fill="#77787b"/>
        <path id="Path_27134" data-name="Path 27134" d="M1263.219,651.6c4,0,6.121,1.648,6.592,4.944v1.648h-4.473c0-1.648-.471-3.531-2.354-3.531a2.3,2.3,0,0,0-2.59,2.354c0,3.767,8,3.767,9.182,9.417v3.3c-.471,2.59-2.119,3.531-4,4.238h-6.356c-3.3-.942-3.767-3.531-3.531-6.827h4.238c0,2.119,0,3.767,2.825,3.767,1.648,0,2.354-.942,2.354-2.59,0-3.767-9.417-4.238-9.417-10.829.235-3.3,1.883-5.885,7.533-5.885" transform="translate(65.243 60.804)" fill="#77787b"/>
        <path id="Path_27135" data-name="Path 27135" d="M1236.956,661h67.33v.942h-67.33V661" transform="translate(39.95 73.533)" fill="#f79239"/>
        <rect id="Rectangle_6425" data-name="Rectangle 6425" width="0.942" height="32.017" transform="translate(1335.055 708.166)" fill="#f79239"/>
        <path id="Path_27136" data-name="Path 27136" d="M1243.769,659.692V643.213l10.829,10.829,24.955-24.719h0a34.68,34.68,0,0,0-24.719-10.123,35.2,35.2,0,1,0,35.313,35.313,38.49,38.49,0,0,0-3.531-15.538l-31.782,31.546Z" transform="translate(16.657 16.928)" fill="#f36e22"/>
        <path id="Path_27137" data-name="Path 27137" d="M1207.556,636.577l12.713-1.177.235,2.825-12.713.706" transform="translate(0.136 38.866)" fill="#f36e22"/>
        <path id="Path_27138" data-name="Path 27138" d="M1208.043,642.891c-.706-3.3,1.177-4,3.3-4.473l.471,2.59c-1.177.235-2.119.471-1.884,1.883a1.189,1.189,0,0,0,1.648.941c2.354-.471,1.177-5.415,4.944-6.356,1.883-.471,3.531.235,4.237,3.3.471,2.59-.235,3.767-3.06,4.237l-.235-2.59c.941-.235,1.883-.471,1.648-1.648-.235-.942-.707-1.177-1.648-.942-2.354.471-.942,5.415-4.709,6.356-3.3.942-4.238-1.177-4.708-3.3" transform="translate(0.59 41.498)" fill="#f36e22"/>
        <path id="Path_27139" data-name="Path 27139" d="M1209.823,648.87c1.648,3.767,4.473,2.825,7.769,1.412,3.061-1.412,5.885-2.59,4.238-6.356s-4.473-2.825-7.769-1.413c-2.825,1.413-5.886,2.354-4.237,6.356m1.648-.706c-.471-1.413.706-2.119,3.531-3.3,3.061-1.177,4.238-1.648,4.708-.235s-.706,2.119-3.531,3.3S1212.177,649.576,1211.471,648.164Z" transform="translate(2.577 46.819)" fill="#f36e22"/>
        <path id="Path_27140" data-name="Path 27140" d="M1336,703.222V670.97a64.2,64.2,0,0,0-64.27-64.27c-35.548,0-64.27,27.544-64.27,63.093h12.713c0-28.251,23.071-50.145,51.322-50.145a51.241,51.241,0,0,1,51.322,51.086v32.253" transform="translate(0)" fill="#77787b"/>
        <path id="Path_27141" data-name="Path 27141" d="M1219.743,624.713c-1.177,1.648-2.354,1.413-3.531.471l.942-1.412c.706.471,1.177.706,1.648,0,.235-.471.235-.942-.236-1.177-1.177-.706-3.061,1.883-4.944.706-.942-.706-1.413-1.648-.471-3.3.942-1.412,1.883-1.648,3.3-.471l-.942,1.413c-.471-.236-.942-.471-1.412,0-.236.471-.236.942.235,1.177,1.177.942,3.061-2.119,4.708-.706,1.884,1.177,1.413,2.59.707,3.3" transform="translate(7.017 16.359)" fill="#fff"/>
        <path id="Path_27142" data-name="Path 27142" d="M1219.271,622.221l-5.415-1.413,1.177-1.412,3.3,1.177-1.648-3.06,1.177-1.413,2.354,5.179,1.883,1.413-.941,1.413" transform="translate(8.667 12.729)" fill="#fff"/>
        <path id="Path_27143" data-name="Path 27143" d="M1222.731,621.278c-1.413,1.412-2.59.706-3.531-.235l1.177-1.177c.47.471.942.942,1.648.471.471-.471.471-.942,0-1.177-.942-.942-3.531,1.177-4.944-.471-.942-.942-1.177-2.119.471-3.3,1.177-1.177,2.354-1.177,3.3.235l-1.412,1.177c-.471-.471-.942-.706-1.412-.235s-.471.706,0,1.177c.942,1.177,3.3-1.177,4.944.471,1.412.942.706,2.354-.235,3.061" transform="translate(12.034 10.612)" fill="#fff"/>
        <path id="Path_27144" data-name="Path 27144" d="M1222.159,612.4l.706.942-1.177,1.177,3.767,4.944-1.412,1.177-3.767-5.179-1.413,1.177-.706-1.177" transform="translate(14.491 7.719)" fill="#fff"/>
        <path id="Path_27145" data-name="Path 27145" d="M1224.694,619.811l-4.237-6.356,3.767-2.354.706,1.177-2.354,1.177.942,1.413,2.119-1.177.471.942-1.884,1.413,1.177,1.883,2.119-1.413.706,1.177" transform="translate(17.605 5.958)" fill="#fff"/>
        <path id="Path_27146" data-name="Path 27146" d="M1225.917,619.423l-3.06-7.063,2.59-1.177,3.3,4.473h0l-.942-5.415,2.119-.942,3.06,7.063-1.412.471-2.119-5.179h0l.707,5.885-1.177.706-3.767-4.944h0l2.354,5.415" transform="translate(20.855 3.521)" fill="#fff"/>
        <path id="Path_27147" data-name="Path 27147" d="M1228.761,612.663c-.471-2.119-.942-3.767,1.883-4.238a2.207,2.207,0,0,1,2.825,2.119l-1.648.235c-.235-.942-.47-1.412-.941-1.177-.942.235-.942,1.177-.471,3.06s.706,2.825,1.648,2.59c.706-.235.471-1.177.471-1.648l1.648-.235c.471,2.119-.235,2.825-1.648,3.3-3.061,0-3.3-1.884-3.767-4" transform="translate(28.369 2.277)" fill="#fff"/>
        <path id="Path_27148" data-name="Path 27148" d="M1231.963,615.9l-.706-7.533,4-.471v1.177l-2.354.235V611.2l2.354-.235.235,1.177-2.59.235.236,2.354,2.825-.471.236,1.413" transform="translate(32.231 1.625)" fill="#fff"/>
        <path id="Path_27149" data-name="Path 27149" d="M1235.6,612.273h.471c1.177,0,1.177.706,1.177,1.648a2.986,2.986,0,0,0,.235,1.412h1.648a7.263,7.263,0,0,1-.235-2.354c0-1.413-1.177-1.413-1.413-1.648h0c.942.235,1.413-.471,1.413-1.413,0-1.413-.706-2.119-1.884-2.119h-3.06v7.769h1.648m0-6.356h.707a.862.862,0,0,1,.942.942c0,.471-.235,1.177-.942,1.177h-.707Z" transform="translate(35.886 1.49)" fill="#fff"/>
        <path id="Path_27150" data-name="Path 27150" d="M1241.971,608.606l-.236,1.177-1.648-.235-.706,6.356-1.648-.235.706-6.121-1.884-.235.236-1.412" transform="translate(39.408 1.625)" fill="#fff"/>
        <path id="Path_27151" data-name="Path 27151" d="M1238.956,615.834l1.413-7.534,1.648.471-1.648,7.533" transform="translate(42.658 2.167)" fill="#fff"/>
        <path id="Path_27152" data-name="Path 27152" d="M1240.357,616l1.883-7.3,4,.942-.471,1.177-2.354-.706-.471,1.883,2.119.706-.236,1.177-2.354-.706-.706,3.3" transform="translate(44.554 2.708)" fill="#fff"/>
        <path id="Path_27153" data-name="Path 27153" d="M1242.357,616.6l2.825-7.3,1.413.706-2.59,7.063" transform="translate(47.262 3.521)" fill="#fff"/>
        <path id="Path_27154" data-name="Path 27154" d="M1244.834,613.047c.942-1.884,1.648-3.531,4-2.59,1.412.706,1.648,1.883.942,3.3l-1.413-.706c.471-.942.471-1.413,0-1.648-.941-.471-1.412.235-2.119,2.119-.942,1.883-1.177,2.59-.236,3.06.707.235,1.177-.471,1.413-1.177l1.412.706c-1.177,2.354-2.119,2.59-3.531,1.883-2.119-1.413-1.177-3.06-.471-4.944" transform="translate(49.492 4.718)" fill="#fff"/>
        <path id="Path_27155" data-name="Path 27155" d="M1251.741,613.348h0l-2.59,2.59,1.413.942m-4.708,0,5.885-5.179,1.884,1.177-2.354,7.533-1.412-.942.47-1.648-1.883-1.177-1.177,1.177Z" transform="translate(52.001 6.771)" fill="#fff"/>
        <path id="Path_27156" data-name="Path 27156" d="M1255.954,616l-.706,1.177L1253.836,616l-4,4.944-1.177-.942,3.767-4.944-1.177-1.177.706-1.177" transform="translate(55.794 8.125)" fill="#fff"/>
        <path id="Path_27157" data-name="Path 27157" d="M1250.157,620.115l5.179-5.415,1.177.942-5.415,5.65" transform="translate(57.825 10.834)" fill="#fff"/>
        <path id="Path_27158" data-name="Path 27158" d="M1252.373,622.4c1.884,2.119,3.3.706,4.708-.706,1.648-1.413,3.061-2.825,1.177-4.473-1.883-2.119-3.3-.706-4.709.706-1.648,1.177-3.06,2.59-1.177,4.473m.707-.941c-.707-.706,0-1.413,1.412-2.825s2.354-1.883,2.825-1.177c.706.706,0,1.413-1.413,2.825S1253.786,622.165,1253.079,621.459Z" transform="translate(59.61 12.785)" fill="#fff"/>
        <path id="Path_27159" data-name="Path 27159" d="M1253.057,622.537l6.356-4.237,1.177,1.648-3.3,4.944h0l4.237-3.06.942,1.177-6.356,4.238-1.177-1.883,3.531-4.708h0l-4.708,3.3" transform="translate(61.752 15.709)" fill="#fff"/>
        <g id="Group_18579" data-name="Group 18579" transform="translate(1217.579 699.456)">
          <path id="Path_27160" data-name="Path 27160" d="M1211.756,652.692l1.648-.942,6.592-.706a3.282,3.282,0,0,0,2.119-.942c.471-.471.471-.706.235-1.177s-.706-.471-1.177-.235l-.706.471-1.413-1.883.471-.471a3.369,3.369,0,0,1,2.354-.706,4.234,4.234,0,0,1,2.119,1.413,3.978,3.978,0,0,1,.706,2.354,3.213,3.213,0,0,1-1.413,2.354,5.792,5.792,0,0,1-2.589.942l-5.65.471,2.119,3.06-1.883,1.177Z" transform="translate(-1211.756 -646.1)" fill="#f36e22"/>
          <path id="Path_27161" data-name="Path 27161" d="M1213.956,656.54l1.648-1.412,6.356-1.648a5.905,5.905,0,0,0,1.884-1.177c.471-.471.471-.942.235-1.177a.777.777,0,0,0-1.177,0l-.471.471-1.648-1.883.471-.471a3.805,3.805,0,0,1,2.354-.942,3.269,3.269,0,0,1,2.354,1.177,2.9,2.9,0,0,1-.235,4.473,4.489,4.489,0,0,1-2.825,1.648l-5.414,1.412,2.59,2.59-1.648,1.413Z" transform="translate(-1208.777 -643.121)" fill="#f36e22"/>
          <path id="Path_27162" data-name="Path 27162" d="M1218.74,662.442l-1.884-1.413,9.181-6.121-1.648-1.177-.942,1.177-1.413-1.648,2.354-3.06,5.179,4-1.177,1.648Z" transform="translate(-1204.85 -640.548)" fill="#f36e22"/>
          <path id="Path_27163" data-name="Path 27163" d="M1220.556,663.629l4.944-8.475-2.354.235,1.413-2.354,2.59-.235,2.119,1.177-6.592,10.829Z" transform="translate(-1199.839 -637.027)" fill="#f36e22"/>
          <path id="Path_27164" data-name="Path 27164" d="M1227.851,666.006a3.482,3.482,0,0,1-3.061,0,2.814,2.814,0,0,1-1.884-2.119c-.235-.942,0-1.648.707-3.06a10.142,10.142,0,0,1,1.648-2.354l4.473-4.473,2.354.942-3.767,3.531a.865.865,0,0,1,.706.235,2.489,2.489,0,0,1,1.413,1.648c.235.706,0,1.648-.706,3.3C1228.792,664.829,1228.322,665.536,1227.851,666.006Zm-1.413-2.119a3.616,3.616,0,0,0,.942-1.413,9.6,9.6,0,0,0,.471-1.648.506.506,0,0,0-.471-.471h-.706a7.3,7.3,0,0,0-.942,1.413,9.624,9.624,0,0,0-.471,1.648.507.507,0,0,0,.471.471A.441.441,0,0,0,1226.438,663.888Z" transform="translate(-1196.775 -635.402)" fill="#f36e22"/>
        </g>
      </g>
    </g>
  </g>
</svg>
