<svg xmlns="http://www.w3.org/2000/svg" xmlns:xlink="http://www.w3.org/1999/xlink" width="480" height="294" viewBox="0 0 480 294">
  <defs>
    <linearGradient id="linear-gradient" x1="-0.013" y1="0.447" x2="0.651" y2="0.723" gradientUnits="objectBoundingBox">
      <stop offset="0" stop-color="#dd3639"/>
      <stop offset="1" stop-color="#3962b1"/>
    </linearGradient>
    <clipPath id="clip-path">
      <path id="Path_26872" data-name="Path 26872" d="M-83.448-3.12a.889.889,0,0,0,.624-.528A76.92,76.92,0,0,0-73.392-6.24l-.048-.36c-1.536.216-3.1.384-4.608.552V-8.376h3.768c.336,0,.576-.12.624-.384-.744-.672-1.944-1.512-1.944-1.512l-1.008,1.2h-1.44V-10.56a.681.681,0,0,0,.552-.312,2.53,2.53,0,0,0,.936.12h.912c2.016,0,2.592-.24,2.592-.936,0-.336-.168-.48-.7-.648l-.1-.048h-.216a1.725,1.725,0,0,1-.456.1c-.072,0-.24.024-.336.024h-1.08c-.264,0-.312-.072-.312-.312v-1.7h2.52c.336,0,.576-.12.624-.384-.792-.72-2.016-1.7-2.016-1.7l-1.152,1.392h-1.872v-2.3H-74.4c.336,0,.576-.12.624-.384-.768-.672-1.992-1.56-1.992-1.56l-1.056,1.248h-1.32v-1.512c.48-.072.648-.264.7-.552L-80.16-20.3v2.328h-3.672l.192.7h3.48v2.3H-84.6l.192.7h2.592a4.615,4.615,0,0,1-2.952,3.936l.288.36c3.048-.792,4.32-2.232,4.92-4.3h1.44v2.016a1.746,1.746,0,0,0,.264,1.176l-2.184-.192v2.208h-3.648l.192.7h3.456v2.5c-1.824.168-3.408.264-4.464.288Zm2.688-.888a5.148,5.148,0,0,1-2.808,3.72,1.356,1.356,0,0,0-.768,1.632,1.436,1.436,0,0,0,2.136.288c1.2-.744,2.4-2.664,1.824-5.616Zm3.1.552a11.274,11.274,0,0,1,.72,4.7c1.752,1.992,4.272-1.92-.432-4.8ZM-72.84-3.5a9.654,9.654,0,0,1,1.776,4.752c1.944,1.776,4.032-2.448-1.512-4.9Zm4.992-.192a10.528,10.528,0,0,1,2.664,5.424c2.328,1.848,4.3-3.264-2.4-5.592Zm5.472-4.632-.264-.048a20.543,20.543,0,0,1-.72,1.944c-.1.288-.216.312-.36.12-1.224-1.416-1.416-4.992-1.344-9.024a1.322,1.322,0,0,0,.864-.384l-2.184-1.752-.984,1.3H-68.76c.024-.96.048-1.944.072-2.976.528-.072.768-.288.816-.624l-2.9-.288c0,1.368,0,2.64-.024,3.888h-2.736l.216.672h2.52c-.048,1.152-.1,2.232-.216,3.264a20.075,20.075,0,0,0-2.016-.912l-.264.192a23.114,23.114,0,0,1,2.04,2.208,10.807,10.807,0,0,1-3.768,6.6l.288.36A10.544,10.544,0,0,0-69.96-8.9a10.187,10.187,0,0,1,.888,1.992c1.776,1.2,2.976-1.56-.216-4.152a25.89,25.89,0,0,0,.5-4.44h1.68c.048,5.4.288,9.36,2.52,11.352.672.576,1.776.912,2.232.048a1.754,1.754,0,0,0-.288-1.56Zm7.416,6.96a19.05,19.05,0,0,1,8.016,3c2.5,1.824,6.288-3.336-7.968-3.36Zm2.592-4.152a7.285,7.285,0,0,1,3.7,2.568c1.68,1.8,5.136-2.376-3.576-2.9Zm.672-4.512h4.08v2.3H-51.7Zm0-2.856h4.08V-10.7H-51.7Zm12.432,5.856c.336,0,.6-.12.648-.384-.888-.744-2.28-1.7-2.28-1.7L-42.12-7.728h-3.288v-2.3h3.888a.574.574,0,0,0,.624-.384c-.792-.672-1.992-1.488-1.992-1.488l-1.032,1.2h-1.488v-2.184h3.96c.336,0,.576-.12.624-.384-.36-.312-.816-.672-1.224-.984l.264.168a13.962,13.962,0,0,0,2.568-2.136c.48-.024.744-.072.912-.264l-2.208-2.136-1.248,1.272h-7.008c1.368-.432,1.536-3.12-2.832-3.072l-.192.168a4.822,4.822,0,0,1,1.752,2.688,2.116,2.116,0,0,0,.48.216h-7.848a9.757,9.757,0,0,0-.336-1.248h-.384a3.183,3.183,0,0,1-1.608,2.928,1.335,1.335,0,0,0-.84,1.584,1.339,1.339,0,0,0,1.992.456,3.238,3.238,0,0,0,1.248-3.024h15.744a21.355,21.355,0,0,1-.456,2.4c-.456-.36-.84-.624-.84-.624l-1.1,1.3h-1.416v-1.728c.456-.1.6-.264.624-.552l-2.832-.264v2.544H-51.7V-15.36c.456-.1.6-.264.648-.528l-2.808-.264v2.568h-4.32l.216.7h4.1V-10.7h-3.72l.192.672h3.528v2.3h-6.48l.192.7h5.52a17.233,17.233,0,0,1-6.288,6L-60.7-.7a18.84,18.84,0,0,0,8.76-6.336h5.568a14.052,14.052,0,0,0,6.6,5.928,2.283,2.283,0,0,1,1.656-1.848l.024-.288c-2.688-.6-5.856-1.944-7.608-3.792Zm6.816-13.224a28.482,28.482,0,0,1-4.368,6.48l.264.264a27.715,27.715,0,0,0,5.976-4.92c.552.1.768,0,.912-.264Zm.072,9.36c.816-.984,1.536-1.9,2.088-2.688.552.072.768-.048.912-.312L-32.3-15.408A40.5,40.5,0,0,1-36.84-6.984l.264.24a27.7,27.7,0,0,0,2.64-2.4V2.016h.408A2.428,2.428,0,0,0-31.7,1.272V-9.936c.432-.072.648-.24.72-.432Zm14.328.984V-7.3h-5.544V-9.912ZM-23.592-.5V-3.336h5.544V-.5Zm5.544-3.528h-5.544V-6.6h5.544Zm2.856-9.432c.36,0,.6-.12.648-.384-.84-.816-2.28-1.92-2.28-1.92l-1.224,1.608H-19.7v-1.848c.552-.1.72-.312.768-.624l-2.9-.312v2.784h-4.848v-2.688A78.713,78.713,0,0,0-16.536-18.1c.648.264,1.152.264,1.416.024l-2.448-2.136a62.669,62.669,0,0,1-8.712,2.784l-2.5-.84v7.032c0,4.3-.144,9.048-2.208,12.864l.312.24c3.768-3.648,3.984-9.024,3.984-13.056v-2.28h4.848v2.856h-1.632l-2.232-.96V1.992h.336c.912,0,1.776-.48,1.776-.7V.192h5.544V1.7h.36a3.038,3.038,0,0,0,1.776-.6V-9.576a1.633,1.633,0,0,0,.96-.456l-2.256-1.752-1.08,1.176H-19.7v-2.856ZM-.552-18.24v3.528H-2.376V-18.24Zm6.624,0v3.528H4.392V-18.24ZM1.08-14.712V-18.24H2.76v3.528Zm-3.456.7H6.072v.528h.312a2.8,2.8,0,0,0,1.632-.6V-17.88a1.787,1.787,0,0,0,1.008-.5L6.84-20.04l-1.008,1.1H-2.232l-2.112-.912v6.864h.288c.792,0,1.68-.432,1.68-.6ZM-4.608-5.184c-1.1.36-2.184.72-3.24,1.032V-10.32h2.616c.336,0,.552-.12.624-.384-.648-.768-1.8-1.848-1.8-1.848L-7.44-11.016h-.408v-6.12h2.736c.36,0,.576-.12.648-.384-.84-.816-2.256-1.968-2.256-1.968l-1.248,1.656h-4.776l.192.7h2.544v6.12h-2.544l.192.7h2.352v6.864c-1.248.384-2.256.672-2.88.816L-11.52-.048a.884.884,0,0,0,.5-.648c2.976-1.776,5.088-3.24,6.5-4.2Zm2.9-4.344H5.208v2.88H-1.7ZM6.672-5.664A17.843,17.843,0,0,1,4.512-3.12,9.488,9.488,0,0,1,2.256-5.952H5.208v.5h.36A2.725,2.725,0,0,0,7.3-6.12V-9.168A1.788,1.788,0,0,0,8.3-9.648l-2.28-1.728L4.968-10.224H-1.56l-2.16-.912v6.1h.288c.816,0,1.728-.432,1.728-.6v-.312H-.6A17.217,17.217,0,0,1-6.72-1.08l.216.36a22.333,22.333,0,0,0,4.512-1.9v1.8c0,.384-.144.552-1.032.96l1.008,2.088a1.522,1.522,0,0,0,.648-.6C.552.312,2.28-1.008,3.168-1.656l-.12-.312C1.992-1.56.936-1.152,0-.816V-3.888A10.464,10.464,0,0,0,1.824-5.616,10.963,10.963,0,0,0,8.112,1.608,2.2,2.2,0,0,1,9.72-.24L9.744-.5a12.557,12.557,0,0,1-4.536-2.04c1.008-.432,2.112-.984,2.88-1.416.432.072.624.048.768-.168Zm-.1-6.744H-5.616l.192.7H9.264c.336,0,.576-.12.648-.384-.84-.744-2.16-1.728-2.16-1.728Zm5.976,5.4,5.784-8.424v8.424Zm10.944,0H20.76V-17.88H18.984L11.208-6.672v1.44h7.128V0H20.76V-5.232H23.5Zm4.512-8.424h7.92v-2.256h-8.88L26.5-9.432l.7.264a8.3,8.3,0,0,1,2.544-.408c2.448,0,4.032,1.584,4.032,4.368,0,2.88-1.464,4.608-3.96,4.608a5.5,5.5,0,0,1-1.584-.216l-.408-1.8c-.288-1.272-.7-1.7-1.488-1.7a1.309,1.309,0,0,0-1.3.888C25.464-.984,27.264.36,30.1.36c3.792,0,6.36-2.232,6.36-5.736,0-3.552-2.352-5.52-5.928-5.52a9.084,9.084,0,0,0-2.832.408ZM53.3-10.7H50.5v-2.9H55.68c.336,0,.552-.12.6-.384-.768-.7-1.968-1.584-1.968-1.584L53.256-14.3H50.5V-16.32c.48-.072.648-.264.672-.552l-2.784-.264V-14.3H43.272l.192.7h4.92v2.9H43.272l.192.7H55.92c.336,0,.576-.12.648-.384-.816-.744-2.136-1.728-2.136-1.728ZM46.848-3.36V-7.176h5.568V-3.36ZM54.5-6.912a1.7,1.7,0,0,0,.864-.408L53.232-8.952l-1.008,1.08h-5.28l-2.16-.912V-.816h.288c.864,0,1.776-.456,1.776-.648v-1.2h5.568v1.248h.36A2.9,2.9,0,0,0,54.5-2.04Zm2.952-12.864L56.3-18.432H43.392l-2.616-.984v8.184c0,4.536-.192,9.288-2.472,13.056l.312.216c4.176-3.624,4.392-8.976,4.392-13.3v-6.48H56.592V-1.152c0,.36-.12.528-.552.528-.5,0-2.808-.168-2.808-.168v.336A3.3,3.3,0,0,1,55.224.36a2.7,2.7,0,0,1,.528,1.608c2.76-.24,3.12-1.224,3.12-2.856V-17.232a2.061,2.061,0,0,0,1.152-.552ZM69.384-9.216a15.981,15.981,0,0,0,4.176-5.52h7.824A42.621,42.621,0,0,1,80.016-9.12l.264.168a23.241,23.241,0,0,0,3.624-5.28,1.367,1.367,0,0,0,.984-.288l-2.352-2.256-1.32,1.344H73.872a25.989,25.989,0,0,0,1.272-3.5c.552,0,.84-.24.912-.552l-3.408-.792A28.718,28.718,0,0,1,69.072-9.432Zm.336-5.832a.574.574,0,0,0,.624-.384c-.768-.84-2.16-2.088-2.16-2.088l-1.248,1.776H62.784l.192.7ZM68.136-5.592H62.352l.192.7h8.544c.336,0,.576-.12.624-.384-.816-.912-2.28-2.208-2.28-2.208Zm6.744-7.536C74.664-7.584,73.9-2.664,66.5,1.632l.264.384C74.376-.936,76.2-4.944,76.92-9.192c.552,4.584,1.944,8.832,5.736,11.16A2.449,2.449,0,0,1,84.768-.36l.024-.288C79.7-2.832,77.784-6.456,77.184-11.064c.024-.264.048-.5.072-.744.576,0,.864-.24.936-.552ZM-58.752,39.088a18.682,18.682,0,0,1,6.552,2.64c2.184,1.512,5.928-2.688-6.456-3Zm-.312-12.528c.024-.528.072-1.056.1-1.536h3.72c-.024.48-.048.984-.072,1.536Zm-.216,2.256c.048-.456.1-.984.144-1.56h3.792c-.048.528-.072,1.032-.12,1.56Zm-5.688,0c.072-.48.168-1.008.24-1.56h3.6c-.048.576-.12,1.1-.168,1.56Zm4.008-3.792c-.048.48-.072.984-.12,1.536h-3.552c.072-.552.144-1.056.192-1.536Zm-4.416,12.552v-1.56h10.728v1.56Zm10.728-3.768V35.32H-65.376V33.808Zm0-2.184v1.488H-65.376V31.624Zm2.52-6.36a11.987,11.987,0,0,0,2.472-1.992c.48-.024.744-.072.912-.264l-2.136-2.064-1.2,1.224h-7.248c1.152-.456,1.44-2.448-2.04-2.568l-.216.144a2.7,2.7,0,0,1,.744,2.112,2.03,2.03,0,0,0,.528.312h-7.7a8.345,8.345,0,0,0-.336-1.128l-.384.024A2.843,2.843,0,0,1-70.1,23.752a1.227,1.227,0,0,0-.768,1.488,1.249,1.249,0,0,0,1.848.432,2.939,2.939,0,0,0,1.1-2.808h15.984c-.12.672-.288,1.44-.432,2.04L-54.6,23.248l-.888,1.08h-8.4l-2.472-.936c-.048.816-.144,2.04-.288,3.168h-4.2l.192.7h3.912c-.072.48-.12.912-.192,1.3a4.093,4.093,0,0,0-.792.5l2.112,1.272.72-.816h9.36l-.048.408a3.952,3.952,0,0,0,1.752-.1l-1.032,1.1H-65.232l-2.376-.984v9.1h.336c.888,0,1.9-.48,1.9-.7v-.072h2.208a22.676,22.676,0,0,1-7.416,3.384l.1.36a25.935,25.935,0,0,0,8.736-2.088c.648.192,1.056.12,1.272-.12l-2.208-1.536h8.04v.48h.384a3.273,3.273,0,0,0,1.872-.6V31.864a1.107,1.107,0,0,0,.768-.384l-2.16-1.68a1.81,1.81,0,0,0,.312-.144c.072-.7.12-1.584.144-2.4h3.744c.336,0,.576-.12.648-.384-.864-.744-2.184-1.656-2.184-1.656L-52.3,26.56H-53.3l.048-1.2a1.818,1.818,0,0,0,.888-.312l-.024.072Zm6.072,9.336c-.048,1.8-.432,3.168-1.152,3.816-1.44,2.112,3.288,3.024,1.512-3.816Zm1.128-.12a10.577,10.577,0,0,1,.216,4.2c1.032,1.32,2.64-1.32.144-4.3Zm1.344-.384A8.3,8.3,0,0,1-42.5,37.72c1.1,1.08,2.472-1.44-.768-3.768Zm-.816-5.208h1.656V31.6H-44.4Zm1.656-6.624V24.88H-44.4V22.264Zm0,5.928H-44.4V25.576h1.656Zm8.88,1.128v3.408h-1.7V29.32Zm-3.264,5.208h.264c.816,0,1.3-.336,1.3-.48v-.624h1.7v.912h.264a1.883,1.883,0,0,0,1.368-.456V29.416a1.2,1.2,0,0,0,.84-.384l-1.752-1.32-.792.912H-35.28l-1.848-.744v4.1l-1.776-1.44L-39.912,31.6H-40.92V28.888h2.88c.336,0,.576-.12.624-.384-.7-.672-1.824-1.584-1.824-1.584l-.984,1.272h-.7V25.576h2.952c.336,0,.552-.12.6-.384-.672-.672-1.824-1.608-1.824-1.608l-.984,1.3h-.744V22.264h3.36c.336,0,.576-.12.648-.384-.816-.72-2.112-1.7-2.112-1.7l-1.1,1.392h-3.96l-2.136-.864V33.76h.288a1.847,1.847,0,0,0,1.536-.576V32.3h4.728c-.048.912-.1,1.752-.144,2.5A3.748,3.748,0,0,0-42,33.448l-.264.192a4.726,4.726,0,0,1,1.536,2.5.73.73,0,0,0,.768.12c-.192,1.968-.48,3.024-.84,3.36a.989.989,0,0,1-.744.216c-.408,0-1.44-.072-2.088-.144V40.1a2.686,2.686,0,0,1,1.44.6,1.867,1.867,0,0,1,.336,1.272,3.42,3.42,0,0,0,2.352-.744c.96-.864,1.464-3.192,1.656-8.664a2.14,2.14,0,0,0,.72-.216Zm7.56-1.8V29.32h1.7v3.408Zm1.968,1.608a2.023,2.023,0,0,0,1.44-.456V29.416a1.183,1.183,0,0,0,.816-.384l-1.776-1.344-.816.936H-29.3l-1.9-.768v6.672h.264c.84,0,1.368-.36,1.368-.48v-.624h1.7v.912ZM-30.936,26.1H-35.16l.192.7h6.36c.336,0,.576-.12.624-.384-.72-.7-1.9-1.632-1.9-1.632ZM-35.28,34.72a12.226,12.226,0,0,1-3.6,7.032l.192.312a10.765,10.765,0,0,0,4.32-4.008,3.885,3.885,0,0,1,.984,2.016c1.632,1.2,3.24-1.776-.648-2.616a14.956,14.956,0,0,0,.672-1.416c.576.024.768-.12.864-.384Zm5.688,0a12.154,12.154,0,0,1-3.648,7.032l.192.312a10.2,10.2,0,0,0,4.08-3.552,11.61,11.61,0,0,1,2.4,3.192c1.92,1.128,3.144-2.424-2.016-3.816a11.56,11.56,0,0,0,.936-1.9c.576,0,.768-.168.864-.408Zm-3.432-14.9a19.3,19.3,0,0,1-5.28,7.752l.144.24a17.7,17.7,0,0,0,6.984-6.5A13.789,13.789,0,0,0-25.824,27.5a2.656,2.656,0,0,1,1.272-2.232l.024-.288a12.3,12.3,0,0,1-6.36-3.864c.648-.072.84-.216.912-.456Zm17.928.024a8.537,8.537,0,0,1,2.544,3.888c2.328,1.488,4.032-3.216-2.328-4.056Zm13.512,4.992c.36,0,.6-.12.672-.384-.96-.936-2.544-2.328-2.544-2.328L-4.9,24.16H-22.872l.192.672Zm-8.088.936a17.509,17.509,0,0,1,5.352,5.88c2.664,1.416,3.792-4.128-5.136-6.1Zm-12.336,6.7a17.6,17.6,0,0,0,7.344-5.448c.552.072.768-.048.888-.288l-3-1.536A18.031,18.031,0,0,1-22.2,32.176ZM-8.736,29.3a18.545,18.545,0,0,1-3.432,5.784,13.735,13.735,0,0,1-4.2-5.3l-.336.24a16.883,16.883,0,0,0,3.528,6.12A23.109,23.109,0,0,1-23.184,41.68l.144.36a24.191,24.191,0,0,0,11.16-4.608A22.553,22.553,0,0,0-2.736,42.04,2.638,2.638,0,0,1-.624,40.024l.048-.288a28.278,28.278,0,0,1-9.936-3.5,17.6,17.6,0,0,0,3.84-5.3c.6.072.84-.048.984-.288ZM7.512,39.712v-3.1h9.1v3.1Zm9.1-6.72v2.952h-9.1V32.992Zm-.24-.7H7.656l-2.4-1.008v10.68h.36c.912,0,1.9-.5,1.9-.72v-.864h9.1v1.44h.36a3.4,3.4,0,0,0,1.92-.6V33.4a1.7,1.7,0,0,0,.984-.5L17.5,31.048Zm5.616-5.664c.336,0,.576-.12.648-.384-.864-.816-2.256-1.9-2.256-1.9l-1.224,1.584h-1.7a18.389,18.389,0,0,0,.312-2.448h3.408c.336,0,.576-.12.648-.384-.888-.792-2.256-1.848-2.256-1.848l-1.2,1.536h-.6c.048-.7.048-1.392.072-2.136.528-.072.744-.312.792-.624L15.6,19.744v3.048H12.408l.192.7h2.976a18.657,18.657,0,0,1-.264,2.448H11.88c-.792-.72-1.824-1.512-1.824-1.512l-1.2,1.512H7.8a19.6,19.6,0,0,0,.264-2.448h2.928c.336,0,.576-.12.648-.384-.816-.768-2.112-1.776-2.112-1.776L8.376,22.792H8.088c.048-.7.048-1.392.072-2.136.528-.072.744-.312.792-.624L6,19.744c0,1.08,0,2.112-.024,3.048H2.256l.192.7H5.976c-.048.864-.1,1.656-.216,2.448H1.488l.192.7H5.664A8.606,8.606,0,0,1,1.152,32.92l.288.384C4.848,31.912,6.5,30.136,7.3,27.928a7.862,7.862,0,0,1,2.352,3c2.016,1.1,3.216-2.736-2.184-3.48.072-.264.144-.528.216-.816h3.888a.858.858,0,0,0,.456-.1l.024.1h3.1a7.54,7.54,0,0,1-4.512,5.136l.24.36c3.264-1.08,4.992-2.472,5.9-4.248a13.8,13.8,0,0,1,3.792,4.32c2.28,1.152,3.264-3.288-3.528-4.92l.216-.648ZM27.216,20.2a7.584,7.584,0,0,1,1.8,3.24c2.136,1.416,3.96-2.64-1.584-3.384Zm4.92,4.128H24.792l.192.7h9.624a.545.545,0,0,0,.6-.384c-.744-.72-2.016-1.7-2.016-1.7Zm-6.168,3.744h7.344a.574.574,0,0,0,.624-.384c-.72-.7-1.9-1.584-1.9-1.584l-1.008,1.272H25.776Zm5.064,2.4H25.776l.192.7h7.344a.574.574,0,0,0,.624-.384c-.72-.7-1.9-1.608-1.9-1.608Zm-3,8.52V34.24H31.3v4.752Zm4.056-6.528-1.008,1.1H28.152l-2.112-.912v9.12h.288c.84,0,1.7-.456,1.7-.672V39.688H31.3v1.2h.336a2.728,2.728,0,0,0,1.7-.648V34.576a1.783,1.783,0,0,0,.912-.456Zm11.088-11.64a7.008,7.008,0,0,1,1.392,3.024,1.8,1.8,0,0,0,.5.288l-1.008,1.3H42.576c-.024-1.536,0-3.072.024-4.632.6-.1.816-.384.864-.672l-3.024-.336c0,1.944.024,3.84.1,5.64h-6.7l.192.7H40.56c.048,1.392.144,2.688.264,3.96C40.152,29.416,39,28.432,39,28.432L38.016,29.8h-3.7l.192.7h1.824v7.152c-1.152.264-2.064.48-2.664.576l1.176,2.256a.852.852,0,0,0,.528-.576c2.64-1.32,4.608-2.376,5.952-3.144l-.072-.288c-.984.216-1.968.456-2.9.7V30.5h1.9a.573.573,0,0,0,.6-.36c.408,4.008,1.248,7.464,3.024,10.128.672,1.08,2.184,2.16,3.144,1.416.36-.264.264-.912-.336-2.208l.456-3.936-.264-.048c-.336.984-.768,2.112-1.056,2.712-.216.456-.336.48-.576.048C43.3,35.512,42.72,31,42.576,26.128h4.2c.336,0,.576-.12.648-.384-.552-.528-1.392-1.2-1.848-1.56,1.3-.144,1.824-2.568-2.16-3.528Zm10.248,4.488H67.8a25.915,25.915,0,0,1-.864,2.448l.288.168a17.014,17.014,0,0,0,2.928-2.208c.48-.024.744-.072.936-.264l-2.136-2.064-1.224,1.224H61.3V22.768h7.368c.336,0,.576-.12.648-.384-.96-.84-2.5-1.992-2.5-1.992l-1.368,1.68H61.3V20.656c.624-.1.84-.336.888-.672l-3.168-.264v4.9H53.784l-2.568-.984v6.792c0,3.84-.216,7.992-2.4,11.28l.288.24c4.032-3.12,4.32-7.872,4.32-11.52ZM64.3,31.84c4.416,0,5.352-.168,5.352-1.1,0-.36-.24-.552-.96-.792l-.1-.024h-.24a3.363,3.363,0,0,1-.672.144,5.588,5.588,0,0,1-.7.048c-.408.024-1.416.024-2.472.024H61.728c-.936,0-1.032-.1-1.032-.408v-1.2l5.208-.5c.312-.024.576-.192.6-.456-.816-.624-2.208-1.512-2.208-1.512l-1.032,1.512-2.568.24V26.392c.48-.072.7-.288.744-.576l-2.88-.264v2.472l-4.632.432.24.7,4.392-.432v1.32c0,1.416.48,1.8,2.808,1.8Zm3.168,4.992H57.792v-2.4H68.328c.336,0,.576-.12.648-.384-.888-.768-2.3-1.8-2.3-1.8l-1.2,1.488H58.2l-2.712-1.152v4.248h-2.4l.216.7h2.184V39.9a3.562,3.562,0,0,0-.7.624l2.4,1.464.768-1.2H69.144c.336,0,.576-.12.648-.384-.912-.816-2.424-1.9-2.424-1.9L66.048,40.1H57.792V37.528H70.3c.336,0,.576-.12.648-.384-.864-.792-2.256-1.824-2.256-1.824Z" transform="translate(1010 2045.5)" fill="#fff"/>
    </clipPath>
    <linearGradient id="linear-gradient-3" y1="0.424" x2="0.759" y2="0.636" gradientUnits="objectBoundingBox">
      <stop offset="0" stop-color="#cc3a45"/>
      <stop offset="1" stop-color="#3962b1"/>
    </linearGradient>
    <clipPath id="clip-icon-cycle">
      <rect width="480" height="294"/>
    </clipPath>
  </defs>
  <g id="icon-cycle" clip-path="url(#clip-icon-cycle)">
    <g id="Group_18434" data-name="Group 18434" transform="translate(-762 -1908)">
      <path id="Subtraction_9" data-name="Subtraction 9" d="M3187,7349a148.153,148.153,0,0,1-28.433-2.748l6.235-23.267a122.03,122.03,0,0,0,62.971-235.006l6.734-25.132A146.847,146.847,0,0,1,3334,7202a148.018,148.018,0,0,1-2.988,29.625,146.213,146.213,0,0,1-22.118,52.564,147.408,147.408,0,0,1-64.676,53.257,146.273,146.273,0,0,1-27.593,8.567A148.12,148.12,0,0,1,3187,7349Zm-47.749-7.929A146.852,146.852,0,0,1,3040,7202a148.011,148.011,0,0,1,2.988-29.624,146.174,146.174,0,0,1,22.118-52.564,147.465,147.465,0,0,1,64.676-53.259,146.326,146.326,0,0,1,27.593-8.565,148.385,148.385,0,0,1,57.806-.288l-6.746,25.176a122.03,122.03,0,0,0-62.936,234.884l-6.246,23.312Z" transform="translate(-2177 -5146.999)" fill="url(#linear-gradient)"/>
      <g id="Mask_Group_695" data-name="Mask Group 695" clip-path="url(#clip-path)">
        <circle id="Ellipse_229" data-name="Ellipse 229" cx="125" cy="125" r="125" transform="translate(885 1931)" fill="url(#linear-gradient-3)"/>
      </g>
      <g id="Group_17633" data-name="Group 17633" transform="translate(334 -2247)">
        <path id="Path_26916" data-name="Path 26916" d="M4.7,21.352l5.784-8.136v8.136Zm10.944,0H12.9V10.792H11.128l-7.776,10.9v1.44H10.48V28H12.9V23.128H15.64Zm4.512-8.16h7.92V10.936h-8.88L18.64,18.9l.7.264a8.616,8.616,0,0,1,2.616-.36c2.424,0,3.96,1.44,3.96,4.224,0,2.688-1.464,4.368-3.984,4.368a5.446,5.446,0,0,1-1.56-.216l-.408-1.8c-.288-1.272-.7-1.7-1.488-1.7a1.309,1.309,0,0,0-1.3.888c.432,2.448,2.232,3.792,5.064,3.792,3.792,0,6.36-2.184,6.36-5.64,0-3.384-2.352-5.28-5.928-5.28a9.084,9.084,0,0,0-2.832.408Zm13.824,2.592a2.318,2.318,0,0,1-2.3-2.472,2.315,2.315,0,1,1,4.608,0A2.318,2.318,0,0,1,33.976,15.784Zm0,.888a3.246,3.246,0,0,0,3.336-3.36,3.349,3.349,0,1,0-6.7,0A3.265,3.265,0,0,0,33.976,16.672Zm18.5,6.456-.816,3.624a6.273,6.273,0,0,1-2.76.576c-3.72,0-6.336-2.712-6.336-8.16,0-5.4,2.784-8.232,6.384-8.232a5.432,5.432,0,0,1,2.5.576l.816,3.672h1.392V11.176a10.31,10.31,0,0,0-5.04-1.3c-5.136,0-9.12,3.624-9.12,9.288,0,5.688,3.792,9.264,9.072,9.264a10.441,10.441,0,0,0,5.3-1.344l.024-3.96Z" transform="translate(425 4285.5)" fill="#ff444f"/>
        <path id="Path_26915" data-name="Path 26915" d="M5.7,25.744c1.224-1.1,2.328-2.136,3.072-2.808,4.152-3.576,5.616-5.5,5.616-7.8,0-2.688-1.608-4.56-5.064-4.56-2.76,0-5.184,1.368-5.5,4.032a1.472,1.472,0,0,0,1.32.84c.7,0,1.224-.408,1.512-1.7l.552-2.04a6.876,6.876,0,0,1,1.3-.144c1.968,0,3.192,1.392,3.192,3.6s-1.08,4.1-3.768,6.936c-1.176,1.2-2.568,2.688-4.008,4.176V28H15.04V25.744ZM20.152,13.192h7.92V10.936h-8.88L18.64,18.9l.7.264a8.616,8.616,0,0,1,2.616-.36c2.424,0,3.96,1.44,3.96,4.224,0,2.688-1.464,4.368-3.984,4.368a5.446,5.446,0,0,1-1.56-.216l-.408-1.8c-.288-1.272-.7-1.7-1.488-1.7a1.309,1.309,0,0,0-1.3.888c.432,2.448,2.232,3.792,5.064,3.792,3.792,0,6.36-2.184,6.36-5.64,0-3.384-2.352-5.28-5.928-5.28a9.084,9.084,0,0,0-2.832.408Zm13.824,2.592a2.318,2.318,0,0,1-2.3-2.472,2.315,2.315,0,1,1,4.608,0A2.318,2.318,0,0,1,33.976,15.784Zm0,.888a3.246,3.246,0,0,0,3.336-3.36,3.349,3.349,0,1,0-6.7,0A3.265,3.265,0,0,0,33.976,16.672Zm18.5,6.456-.816,3.624a6.273,6.273,0,0,1-2.76.576c-3.72,0-6.336-2.712-6.336-8.16,0-5.4,2.784-8.232,6.384-8.232a5.432,5.432,0,0,1,2.5.576l.816,3.672h1.392V11.176a10.31,10.31,0,0,0-5.04-1.3c-5.136,0-9.12,3.624-9.12,9.288,0,5.688,3.792,9.264,9.072,9.264a10.441,10.441,0,0,0,5.3-1.344l.024-3.96Z" transform="translate(467 4185.5)" fill="#ff444f"/>
        <path id="Path_26917" data-name="Path 26917" d="M5.7,25.744c1.224-1.1,2.328-2.136,3.072-2.808,4.152-3.576,5.616-5.5,5.616-7.8,0-2.688-1.608-4.56-5.064-4.56-2.76,0-5.184,1.368-5.5,4.032a1.472,1.472,0,0,0,1.32.84c.7,0,1.224-.408,1.512-1.7l.552-2.04a6.876,6.876,0,0,1,1.3-.144c1.968,0,3.192,1.392,3.192,3.6s-1.08,4.1-3.768,6.936c-1.176,1.2-2.568,2.688-4.008,4.176V28H15.04V25.744ZM20.152,13.192h7.92V10.936h-8.88L18.64,18.9l.7.264a8.616,8.616,0,0,1,2.616-.36c2.424,0,3.96,1.44,3.96,4.224,0,2.688-1.464,4.368-3.984,4.368a5.446,5.446,0,0,1-1.56-.216l-.408-1.8c-.288-1.272-.7-1.7-1.488-1.7a1.309,1.309,0,0,0-1.3.888c.432,2.448,2.232,3.792,5.064,3.792,3.792,0,6.36-2.184,6.36-5.64,0-3.384-2.352-5.28-5.928-5.28a9.084,9.084,0,0,0-2.832.408Zm13.824,2.592a2.318,2.318,0,0,1-2.3-2.472,2.315,2.315,0,1,1,4.608,0A2.318,2.318,0,0,1,33.976,15.784Zm0,.888a3.246,3.246,0,0,0,3.336-3.36,3.349,3.349,0,1,0-6.7,0A3.265,3.265,0,0,0,33.976,16.672Zm18.5,6.456-.816,3.624a6.273,6.273,0,0,1-2.76.576c-3.72,0-6.336-2.712-6.336-8.16,0-5.4,2.784-8.232,6.384-8.232a5.432,5.432,0,0,1,2.5.576l.816,3.672h1.392V11.176a10.31,10.31,0,0,0-5.04-1.3c-5.136,0-9.12,3.624-9.12,9.288,0,5.688,3.792,9.264,9.072,9.264a10.441,10.441,0,0,0,5.3-1.344l.024-3.96Z" transform="translate(467 4385.5)" fill="#ff444f"/>
      </g>
      <g id="Group_17632" data-name="Group 17632" transform="translate(334 -2247)">
        <path id="Path_26919" data-name="Path 26919" d="M1.056,22.12H7.392V20.536H1.056Zm11.4-8.928h7.92V10.936H11.5L10.944,18.9l.7.264a8.616,8.616,0,0,1,2.616-.36c2.424,0,3.96,1.44,3.96,4.224,0,2.688-1.464,4.368-3.984,4.368a5.446,5.446,0,0,1-1.56-.216l-.408-1.8c-.288-1.272-.7-1.7-1.488-1.7a1.309,1.309,0,0,0-1.3.888c.432,2.448,2.232,3.792,5.064,3.792,3.792,0,6.36-2.184,6.36-5.64,0-3.384-2.352-5.28-5.928-5.28a9.084,9.084,0,0,0-2.832.408ZM26.28,15.784a2.318,2.318,0,0,1-2.3-2.472,2.315,2.315,0,1,1,4.608,0A2.318,2.318,0,0,1,26.28,15.784Zm0,.888a3.246,3.246,0,0,0,3.336-3.36,3.349,3.349,0,1,0-6.7,0A3.265,3.265,0,0,0,26.28,16.672Zm18.5,6.456-.816,3.624a6.273,6.273,0,0,1-2.76.576c-3.72,0-6.336-2.712-6.336-8.16,0-5.4,2.784-8.232,6.384-8.232a5.432,5.432,0,0,1,2.5.576l.816,3.672H45.96V11.176a10.31,10.31,0,0,0-5.04-1.3c-5.136,0-9.12,3.624-9.12,9.288,0,5.688,3.792,9.264,9.072,9.264a10.441,10.441,0,0,0,5.3-1.344l.024-3.96Z" transform="translate(861 4285.5)" fill="#3178ff"/>
        <path id="Path_26918" data-name="Path 26918" d="M4.008,13.192h7.92V10.936H3.048L2.5,18.9l.7.264a8.616,8.616,0,0,1,2.616-.36c2.424,0,3.96,1.44,3.96,4.224C9.768,25.72,8.3,27.4,5.784,27.4a5.446,5.446,0,0,1-1.56-.216l-.408-1.8c-.288-1.272-.7-1.7-1.488-1.7a1.309,1.309,0,0,0-1.3.888C1.464,27.016,3.264,28.36,6.1,28.36c3.792,0,6.36-2.184,6.36-5.64,0-3.384-2.352-5.28-5.928-5.28a9.084,9.084,0,0,0-2.832.408Zm13.824,2.592a2.318,2.318,0,0,1-2.3-2.472,2.315,2.315,0,1,1,4.608,0A2.318,2.318,0,0,1,17.832,15.784Zm0,.888a3.246,3.246,0,0,0,3.336-3.36,3.349,3.349,0,1,0-6.7,0A3.265,3.265,0,0,0,17.832,16.672Zm18.5,6.456-.816,3.624a6.273,6.273,0,0,1-2.76.576c-3.72,0-6.336-2.712-6.336-8.16,0-5.4,2.784-8.232,6.384-8.232a5.432,5.432,0,0,1,2.5.576l.816,3.672h1.392V11.176a10.31,10.31,0,0,0-5.04-1.3c-5.136,0-9.12,3.624-9.12,9.288,0,5.688,3.792,9.264,9.072,9.264a10.441,10.441,0,0,0,5.3-1.344l.024-3.96Z" transform="translate(833 4185.5)" fill="#3178ff"/>
        <path id="Path_26920" data-name="Path 26920" d="M4.008,13.192h7.92V10.936H3.048L2.5,18.9l.7.264a8.616,8.616,0,0,1,2.616-.36c2.424,0,3.96,1.44,3.96,4.224C9.768,25.72,8.3,27.4,5.784,27.4a5.446,5.446,0,0,1-1.56-.216l-.408-1.8c-.288-1.272-.7-1.7-1.488-1.7a1.309,1.309,0,0,0-1.3.888C1.464,27.016,3.264,28.36,6.1,28.36c3.792,0,6.36-2.184,6.36-5.64,0-3.384-2.352-5.28-5.928-5.28a9.084,9.084,0,0,0-2.832.408Zm13.824,2.592a2.318,2.318,0,0,1-2.3-2.472,2.315,2.315,0,1,1,4.608,0A2.318,2.318,0,0,1,17.832,15.784Zm0,.888a3.246,3.246,0,0,0,3.336-3.36,3.349,3.349,0,1,0-6.7,0A3.265,3.265,0,0,0,17.832,16.672Zm18.5,6.456-.816,3.624a6.273,6.273,0,0,1-2.76.576c-3.72,0-6.336-2.712-6.336-8.16,0-5.4,2.784-8.232,6.384-8.232a5.432,5.432,0,0,1,2.5.576l.816,3.672h1.392V11.176a10.31,10.31,0,0,0-5.04-1.3c-5.136,0-9.12,3.624-9.12,9.288,0,5.688,3.792,9.264,9.072,9.264a10.441,10.441,0,0,0,5.3-1.344l.024-3.96Z" transform="translate(833 4385.5)" fill="#3178ff"/>
      </g>
    </g>
  </g>
</svg>
