<svg xmlns="http://www.w3.org/2000/svg" xmlns:xlink="http://www.w3.org/1999/xlink" width="1011" height="451" viewBox="0 0 1011 451">
  <defs>
    <linearGradient id="linear-gradient" y1="1" x2="1" y2="1" gradientUnits="objectBoundingBox">
      <stop offset="0" stop-color="#333"/>
      <stop offset="0.334" stop-color="#f05f23"/>
      <stop offset="1" stop-color="#333"/>
    </linearGradient>
    <linearGradient id="linear-gradient-2" y1="1" x2="1" y2="1" gradientUnits="objectBoundingBox">
      <stop offset="0" stop-color="#333"/>
      <stop offset="0.334" stop-color="#555046"/>
      <stop offset="1" stop-color="#333"/>
    </linearGradient>
    <clipPath id="clip-icon-service-process">
      <rect width="1011" height="451"/>
    </clipPath>
  </defs>
  <g id="icon-service-process" clip-path="url(#clip-icon-service-process)">
    <g id="Group_18422" data-name="Group 18422" transform="translate(-5587.76 -9695)">
      <g id="Group_18417" data-name="Group 18417" transform="translate(5416 9381)">
        <g id="Path_26174" data-name="Path 26174" transform="translate(-5273.5 -2742.77)">
          <path id="Path_26174-2" data-name="Path 26174" d="M6429.564,3279.77H6016.81a45.07,45.07,0,0,1-43.785-34.185,34.027,34.027,0,0,0-33.062-25.815H5692.346a34.031,34.031,0,0,0-33.063,25.815,45.068,45.068,0,0,1-43.784,34.185H5543a1.5,1.5,0,0,1,0-3h72.5a42.073,42.073,0,0,0,40.874-31.914,37.026,37.026,0,0,1,35.973-28.086h247.617a37.024,37.024,0,0,1,35.973,28.087,42.072,42.072,0,0,0,40.874,31.913h412.754a1.5,1.5,0,0,1,0,3Z" fill="url(#linear-gradient)"/>
        </g>
        <g id="Path_26174-3" data-name="Path 26174" transform="translate(268 542)">
          <path id="Path_26174-4" data-name="Path 26174" d="M6429.564,3216.77H6016.81a45.07,45.07,0,0,0-43.785,34.185,34.027,34.027,0,0,1-33.062,25.815H5692.346a34.031,34.031,0,0,1-33.063-25.815,45.068,45.068,0,0,0-43.784-34.185H5543a1.5,1.5,0,0,0,0,3h72.5a42.073,42.073,0,0,1,40.874,31.914,37.026,37.026,0,0,0,35.973,28.086h247.617a37.024,37.024,0,0,0,35.973-28.087,42.072,42.072,0,0,1,40.874-31.913h412.754a1.5,1.5,0,0,0,0-3Z" transform="translate(-5541.5 -3216.77)" stroke="rgba(0,0,0,0)" stroke-width="1" fill="url(#linear-gradient-2)"/>
        </g>
        <g id="Group_18418" data-name="Group 18418">
          <path id="Path_26883" data-name="Path 26883" d="M-34.06-14.26a18.451,18.451,0,0,0-1.54-2.56l-1.16.58a16.535,16.535,0,0,1,1.48,2.68Zm.64,10.04v3.3h-3.4v-3.3Zm1.32-1.24h-6V1.26h1.28V.32h4.72Zm-6.02-1.48h6.08V-8.12h-6.08Zm0-2.6h6.1v-1.18h-6.1Zm-.84-2.58h7.56v-1.22h-7.56Zm18.12-2.94H-30.98v1.44h5.6V-.7c0,.38-.16.5-.56.52-.44.04-1.9.04-3.44-.02a4.814,4.814,0,0,1,.6,1.52,14,14,0,0,0,3.9-.28c.72-.22.96-.74.96-1.74V-13.62h3.08Zm16.9,1.98H-7.8v-1.88h3.86Zm1.38-2.88h-6.6v3.88h6.6Zm-9.6,2.88h-3.82v-1.88h3.82Zm1.4-2.88h-6.56v3.88h6.56ZM-15.34-5.32V-7.04h4.52v1.72Zm0-4.56h4.52v1.7h-4.52Zm10.8,1.7H-9.3v-1.7h4.76Zm0,2.86H-9.3V-7.04h4.76ZM-1.18-2.6H-9.3V-4.12h6.28v-6.96H-16.78v6.96h5.96V-2.6h-7.96v1.3h7.96V1.52H-9.3V-1.3h8.12Zm12.12-.1h2.98V-.6H10.94Zm2.98-4.44H10.94V-9.16h2.98Zm0,3.28H10.94V-5.98h2.98ZM6.02-2.38H3.8V-8.22H6.02ZM19-.6H15.3V-2.7h2.86V-3.86H15.3V-5.98h2.86V-7.14H15.3V-9.16h3.12v-1.26H15.68a18.943,18.943,0,0,0-1.12-2.34l-1.24.5c.28.56.6,1.24.86,1.84h-2.6a19.782,19.782,0,0,0,1.7-3h3.96v2.1h1.34V-14.7H13.8a16.974,16.974,0,0,0,.62-1.78l-1.4-.28c-.2.7-.44,1.4-.7,2.06H8.08v3.42h1.3v-2.14h2.34a13.85,13.85,0,0,1-4.4,5.3v-1.4H3.9a36.125,36.125,0,0,0,1-4.44H7.66v-1.36H1.1v1.36H3.46c-.52,3.3-1.4,6.36-2.84,8.4a7.968,7.968,0,0,1,.86,1.28,12.821,12.821,0,0,0,1.04-1.7V.56H3.8V-1.06H7.32V-8.04a7.012,7.012,0,0,1,.86,1.18A14.887,14.887,0,0,0,9.54-8.02V1.54h1.4V.68h8.08ZM36.92-14.66c-.16,4.04-.36,5.6-.68,5.96a.739.739,0,0,1-.66.24c-.32,0-1.16-.02-2.08-.1a3.288,3.288,0,0,1,.42,1.32,20.959,20.959,0,0,0,2.26,0,1.638,1.638,0,0,0,1.26-.58c.48-.62.7-2.42.92-7.48,0-.2.02-.64.02-.64H28.64v1.28h4.12a14.691,14.691,0,0,1-.5,2.76c-.76-.66-1.8-1.52-2.64-2.18l-.78.84c.94.78,2.16,1.84,2.9,2.6a6.44,6.44,0,0,1-3.52,3.16,3.649,3.649,0,0,1,.86,1.06c3.68-1.64,4.68-4.64,5.04-8.24ZM31.96-6.4A18.4,18.4,0,0,1,34.1-3.42l.98-.68a17.827,17.827,0,0,0-2.2-2.88Zm-6.48-7.66a17.077,17.077,0,0,0-1.32-2.64l-1.26.44a16.662,16.662,0,0,1,1.24,2.72Zm2.42.64H20.86v1.24H27.9Zm-.48,2.7H21.38v1.18h6.04ZM21.38-6.86h6.04v-1.2H21.38Zm4.66,2.7V-.82h-3.4V-4.16Zm1.28-1.22H21.38v6.7h1.26V.4h4.68ZM28.44-.4a13.939,13.939,0,0,0,1.38-4.36l-1.06-.32a13,13,0,0,1-1.4,4.2Zm4.02.3c-.68,0-.82-.1-.82-.58V-5.54h-1.3V-.68c0,1.38.4,1.78,1.98,1.78h2.6c1.38,0,1.74-.64,1.88-3.36a3.449,3.449,0,0,1-1.18-.5C35.56-.44,35.44-.1,34.78-.1Zm4-5.42a23.2,23.2,0,0,1,1.68,4.2l1.14-.44a22.071,22.071,0,0,0-1.76-4.12Z" transform="translate(792 585)" fill="#333"/>
          <g id="Rectangle_6078" data-name="Rectangle 6078" transform="translate(784 524)" fill="#fff" stroke="#333" stroke-width="3">
            <rect width="15" height="28" rx="7.5" stroke="none"/>
            <rect x="1.5" y="1.5" width="12" height="25" rx="6" fill="none"/>
          </g>
        </g>
        <g id="Group_18419" data-name="Group 18419" transform="translate(123)">
          <path id="Path_26884" data-name="Path 26884" d="M-9.2-.54V-5.62h6.42V-7.06H-9.2v-4.36h7.16v-1.46H-9.2v-3.84h-1.52v3.84h-4.06a27.453,27.453,0,0,0,1.12-3.2l-1.5-.32a18.232,18.232,0,0,1-3.7,7.36,9.958,9.958,0,0,1,1.36.88,17.945,17.945,0,0,0,2.08-3.26h4.7v4.36h-5.94v1.44h5.94V-.54h-8.1V.9H-1.1V-.54Zm15-9.34c1.7-.38,3.6-.84,5.4-1.42,1.62.5,3.08.98,4.24,1.42Zm8.82-3.8a21.828,21.828,0,0,1-3.34,1.34c-1.7-.5-3.46-.96-5.02-1.34Zm4.2,5.04V-9.88h-2.9l.8-.74c-1-.36-2.36-.8-3.82-1.24a20.936,20.936,0,0,0,3.06-1.34l-.8-.48h3.06V-14.9H11.5a17.211,17.211,0,0,0-1.52-2.02l-1.06.54c.36.44.74.98,1.08,1.48H2.62v1.22h3.2l-.88.72c1.42.32,2.98.72,4.5,1.16-1.72.48-3.54.88-5.12,1.18a6.369,6.369,0,0,1,.72.74H2.52v4.2c0,2-.2,4.58-1.82,6.44a5.17,5.17,0,0,1,1.12.96C3.62-.34,3.96-3.4,3.96-5.66V-8.64ZM12.32-.38v-2h4.94v-1.2H12.32V-5.36H17.7V-6.58H12.32v-1.7H10.86v1.7H7.36c.2-.46.38-.9.56-1.36L6.64-8.3A11.158,11.158,0,0,1,4-4.12,6.924,6.924,0,0,1,4.78-2.9a11.117,11.117,0,0,0,1.9-2.46h4.18v1.78H6.2v1.2h4.66v2H4.32V.88H19.14V-.38Z" transform="translate(792 585)" fill="#333"/>
          <g id="Rectangle_6078-2" data-name="Rectangle 6078" transform="translate(784 524)" fill="#fff" stroke="#333" stroke-width="3">
            <rect width="15" height="28" rx="7.5" stroke="none"/>
            <rect x="1.5" y="1.5" width="12" height="25" rx="6" fill="none"/>
          </g>
        </g>
        <g id="Group_18420" data-name="Group 18420" transform="translate(246)">
          <path id="Path_26885" data-name="Path 26885" d="M-13.14-6.9c-.32-.52-1.56-2.58-2.06-3.32V-11.5h1.84v-.22a6.232,6.232,0,0,1,.88.92,18.728,18.728,0,0,0,2.14-1.4v1.16h5.96v-1.2h-5.9a16.494,16.494,0,0,0,2.72-2.54,24.748,24.748,0,0,0,6.14,3.84,6.4,6.4,0,0,1,.66-1.34A19.709,19.709,0,0,1-6.8-15.72c.16-.22.3-.46.44-.68l-1.44-.46a14.84,14.84,0,0,1-5.56,5V-12.9H-15.2v-3.84h-1.22v3.84H-18.8v1.4h2.18a23.783,23.783,0,0,1-2.54,7.28,9.591,9.591,0,0,1,.66,1.46A22.954,22.954,0,0,0-16.42-8.4V1.52h1.22V-8.52c.5.94,1.1,2.12,1.34,2.74Zm7.6-1.6h2.2v2.62h-2.2ZM-6.7-4.8h4.58V-9.6H-6.7Zm-4.56-3.7h2.14v2.62h-2.14ZM-12.4-4.8h4.46V-9.6H-12.4Zm1.7.46A8.494,8.494,0,0,1-14.52.62a7.976,7.976,0,0,1,1.02.98,10.338,10.338,0,0,0,2.98-3.18A13.978,13.978,0,0,1-8.48.14l.8-1A15.078,15.078,0,0,0-9.94-2.6a11.89,11.89,0,0,0,.56-1.48Zm5.56-.02A7.352,7.352,0,0,1-8.26.56a6.658,6.658,0,0,1,1,.98A7.935,7.935,0,0,0-4.82-1.28,23.187,23.187,0,0,1-1.74,1.24L-.84.22A23.184,23.184,0,0,0-4.3-2.42a11.994,11.994,0,0,0,.52-1.76Zm16.26-7.9a16.546,16.546,0,0,0,2.56-2.6,19.274,19.274,0,0,0,2.9,2.6Zm-.34,1.18h5.94v-1.08a15.222,15.222,0,0,0,1.82,1.22,5.178,5.178,0,0,1,.66-1.28,17.527,17.527,0,0,1-4.84-3.62,6.894,6.894,0,0,0,.4-.64L13.4-16.9a14.558,14.558,0,0,1-5.32,5.18,6.963,6.963,0,0,1,.96.92A17.859,17.859,0,0,0,10.78-12Zm4.48,2.6h1.9v2.52h-1.9ZM14.18-4.9h4.1V-9.5h-4.1ZM10.34-8.48h1.8v2.52h-1.8ZM9.3-4.9h3.94V-9.5H9.3ZM1.62.2a30.1,30.1,0,0,0,.86-4.44l-.86-.28A24.6,24.6,0,0,1,.72-.14ZM2.84-4.14a33.608,33.608,0,0,1,.24,3.6l.8-.1a34.083,34.083,0,0,0-.3-3.58Zm1.18-.22A26.85,26.85,0,0,1,4.78-1.1l.76-.16a26.278,26.278,0,0,0-.8-3.24ZM7-2.3A18.623,18.623,0,0,0,5.86-4.92l-.68.24A21.477,21.477,0,0,1,6.32-2.04ZM3-8.62H4.76v1.88H3Zm1.76-5.96v1.84H3v-1.84Zm0,4.78H3v-1.76H4.76ZM8.48-6.74H5.96V-8.62H8.08V-9.8H5.96v-1.76h2.1v-1.18H5.96v-1.84h2.5v-1.26H1.8V-5.48H7.24C7.12-1.62,6.98-.2,6.72.14c-.12.2-.26.22-.48.22A13.808,13.808,0,0,1,4.86.3,3.373,3.373,0,0,1,5.2,1.46a9.7,9.7,0,0,0,1.56-.02,1.179,1.179,0,0,0,1-.5c.42-.54.56-2.22.72-7.1Zm2.26,2.46A9.056,9.056,0,0,1,8.08.7a7.221,7.221,0,0,1,1,.86A8.758,8.758,0,0,0,11.1-1.32,11.714,11.714,0,0,1,12.98.26l.8-.98a13.622,13.622,0,0,0-2.22-1.72A11.149,11.149,0,0,0,12-4.04Zm4.94-.1A8.26,8.26,0,0,1,13.06.66a10.906,10.906,0,0,1,1.12.86A8.925,8.925,0,0,0,15.92-.84a15.39,15.39,0,0,1,2.22,2l.9-1.02A18.336,18.336,0,0,0,16.44-2a12.248,12.248,0,0,0,.6-2.16Z" transform="translate(792 585)" fill="#333"/>
          <g id="Rectangle_6078-3" data-name="Rectangle 6078" transform="translate(784 524)" fill="#fff" stroke="#333" stroke-width="3">
            <rect width="15" height="28" rx="7.5" stroke="none"/>
            <rect x="1.5" y="1.5" width="12" height="25" rx="6" fill="none"/>
          </g>
        </g>
        <g id="Group_18421" data-name="Group 18421" transform="translate(369)">
          <path id="Path_26886" data-name="Path 26886" d="M-3.76-6.8v5.7H-9.24V-8.06h6.3v-6.86h-1.6v5.4h-4.7v-7.2h-1.6v7.2h-4.58V-14.9h-1.54v6.84h6.12V-1.1h-5.4V-6.8h-1.6V.36H-3.76V1.5h1.6V-6.8Zm20.42-3.72a10.949,10.949,0,0,0,2.04-.12c-.06-.34-.12-.82-.16-1.24a14.828,14.828,0,0,1-1.98.12H12.14c-.72,0-.86-.24-.86-.88v-1.2h6.44v-1.24H11.28V-16.7H9.8v4.02c0,1.56.46,2.16,2.26,2.16ZM5.1-4.04H15.12v1.4H5.1Zm0-2.32H15.12V-5H5.1Zm0-2.32H15.12v1.36H5.1ZM3.66-1.66H16.6V-9.68H3.66Zm.92-8.56H6.02v-4.06a16.029,16.029,0,0,0,2.14-2.04L6.8-16.84a16.963,16.963,0,0,1-5.86,4.1,11,11,0,0,1,1.1,1.04,22.741,22.741,0,0,0,2.54-1.5ZM7.02-1.44A25.07,25.07,0,0,1,1.14.46,9.864,9.864,0,0,1,2.26,1.58,27.693,27.693,0,0,0,8.38-.84ZM11.9-.7a39.882,39.882,0,0,1,5.56,2.22l1.3-.86a48.464,48.464,0,0,0-5.88-2.18Z" transform="translate(792 585)" fill="#333"/>
          <g id="Rectangle_6078-4" data-name="Rectangle 6078" transform="translate(784 524)" fill="#fff" stroke="#333" stroke-width="3">
            <rect width="15" height="28" rx="7.5" stroke="none"/>
            <rect x="1.5" y="1.5" width="12" height="25" rx="6" fill="none"/>
          </g>
        </g>
        <g id="Group_17773" data-name="Group 17773">
          <path id="Path_26882" data-name="Path 26882" d="M-33.86-12.26h-2.26v-1.16h2.26Zm0,2.16h-2.26v-1.18h2.26Zm0,2.14h-2.26V-9.12h2.26Zm8.42-4.3h-2.14v-1.16h2.14Zm0,2.16h-2.14v-1.16h2.14Zm0,2.16h-2.14V-9.1h2.14ZM-37.4-6.92H-30V-7.96h-2.62V-9.12h1.96v-.98h-1.96v-1.18h1.96v-.22c.26.28.56.66.7.84A10.942,10.942,0,0,0-28.86-12v5.1h7.7V-7.94H-24.2V-9.1h2.32v-1H-24.2v-1.16h2.32v-1H-24.2v-1.16h2.74v-1.02H-23.7a14.755,14.755,0,0,0-1.04-2.12l-1.2.36a14.193,14.193,0,0,1,.84,1.76h-2.3c.3-.62.6-1.3.84-1.94l-1.22-.34a14.057,14.057,0,0,1-2.88,4.9v-.44h-1.96v-1.16h2.38v-1.04h-1.92a14.279,14.279,0,0,0-1.06-2.16l-1.22.34a10.778,10.778,0,0,1,.86,1.82H-35.9c.3-.62.58-1.3.82-1.94l-1.2-.32a12.925,12.925,0,0,1-2.96,4.9,7.331,7.331,0,0,1,.82,1.02A10.34,10.34,0,0,0-37.4-12ZM-25.66-4.5A11.794,11.794,0,0,1-29.6-1.94,12.678,12.678,0,0,1-33.76-4.5Zm1.44-1.32-.28.08H-37.9V-4.5h2.64l-.3.14a13.218,13.218,0,0,0,4.08,3.14A34.266,34.266,0,0,1-39,.2a5.944,5.944,0,0,1,.62,1.36A35.244,35.244,0,0,0-29.72-.42a30.648,30.648,0,0,0,7.68,1.8,5.5,5.5,0,0,1,.92-1.44A33.6,33.6,0,0,1-27.8-1.28a11.9,11.9,0,0,0,4.58-3.9Zm22.86-6.02v-1.44H-9.72l1.4-.6a20.145,20.145,0,0,0-1.46-2.96l-1.4.56a19.084,19.084,0,0,1,1.34,3h-8.72v1.44h5.4C-13.38-7.28-13.88-2.14-19,.4a5.026,5.026,0,0,1,1.08,1.18c3.76-2,5.24-5.28,5.88-8.8H-4.9C-5.24-2.72-5.62-.8-6.22-.28a1.4,1.4,0,0,1-.94.22c-.54,0-1.92-.02-3.36-.14a3.1,3.1,0,0,1,.54,1.46c1.32.08,2.64.1,3.34.06A2.3,2.3,0,0,0-4.92.62c.78-.78,1.18-2.94,1.56-8.56.04-.22.06-.72.06-.72h-8.52c.14-1.06.22-2.12.28-3.18ZM6.7-14.32a20.7,20.7,0,0,0-3.84-2.26l-.88,1.04a19.489,19.489,0,0,1,3.8,2.42ZM5.36-8.92a17.8,17.8,0,0,0-3.6-2.1L.92-9.96A17.511,17.511,0,0,1,4.5-7.72ZM2.84,1.26C4-.58,5.4-3.04,6.44-5.14L5.36-6.12A57.931,57.931,0,0,1,1.58.26Zm12.8-6.52V-.82H9.8V-5.26ZM8.32,1.6H9.8V.52h5.84V1.54h1.54V-6.6H8.32Zm3.96-18.3A15.2,15.2,0,0,1,6.14-9.46a7.146,7.146,0,0,1,1.1,1.1A16.672,16.672,0,0,0,9.36-10v1.14H16.2v-1.36H9.6a16.949,16.949,0,0,0,3.26-4.18,19.982,19.982,0,0,0,5.42,5.8A5.934,5.934,0,0,1,19.4-9.82a18.209,18.209,0,0,1-5.88-5.9,5.1,5.1,0,0,0,.26-.58ZM37.1-15.44a23.009,23.009,0,0,1-1.92,3.24l1.08.48a35.588,35.588,0,0,0,2.2-3.16Zm1.56,6.66a31.884,31.884,0,0,0-4.98-3.52,24.03,24.03,0,0,0,.4-4.42H32.7c-.1,4.96-.54,6.86-4.84,7.94a3.77,3.77,0,0,1,.82,1.2c2.54-.74,3.86-1.76,4.6-3.46A32.616,32.616,0,0,1,37.8-7.62Zm-2.48,5.8a35.218,35.218,0,0,0,2.28-3.38L37.1-6.9a22.961,22.961,0,0,1-1.98,3.48Zm-4.8-.32c-.46-.9-1.46-2.46-2.26-3.64l-1.06.64c.78,1.2,1.74,2.8,2.24,3.76Zm.2-8.7a37.839,37.839,0,0,0-2.2-3.46l-1.06.64a39.372,39.372,0,0,1,2.18,3.6Zm-6.02-2.16a18.637,18.637,0,0,0-1.32-2.58l-1.22.46a15.575,15.575,0,0,1,1.26,2.64Zm2.56.82H20.88v1.22h7.24Zm-.78,3.8v-1.18H21.66v1.18Zm0,1.42H21.66v1.18h5.68ZM26.1-4.22v3.3H23.04v-3.3ZM27.42.32V-5.46h-5.7V1.26h1.32V.32Zm6.5-8.8h-1.4v2.12c0,1.9-.38,4.82-5.18,6.86a5.172,5.172,0,0,1,.98,1.02c3.06-1.38,4.48-3.1,5.1-4.76a8.019,8.019,0,0,0,4.8,4.7A5.017,5.017,0,0,1,39.14.24c-2.86-.86-4.5-3-5.24-5.98.02-.22.02-.42.02-.62Z" transform="translate(211 547)" fill="#333"/>
          <g id="Rectangle_6084" data-name="Rectangle 6084" transform="translate(261 524)" fill="#fff" stroke="#333" stroke-width="3">
            <rect width="15" height="28" rx="7.5" stroke="none"/>
            <rect x="1.5" y="1.5" width="12" height="25" rx="6" fill="none"/>
          </g>
        </g>
        <g id="Group_17762" data-name="Group 17762" transform="translate(487 -842)">
          <circle id="Ellipse_232" data-name="Ellipse 232" cx="20" cy="20" r="20" transform="translate(655 1360)" fill="#333"/>
          <path id="Path_26109" data-name="Path 26109" d="M109.772,1029.075l6.145,6.357,9.9-11.019" transform="translate(556.774 350.33)" fill="none" stroke="#fff" stroke-miterlimit="10" stroke-width="3"/>
        </g>
        <g id="Group_17774" data-name="Group 17774">
          <path id="Path_26881" data-name="Path 26881" d="M-25.218-10.872h-3.4v.99h3.4v1.17H-29.79V-7.65h3.672l-.522.612a21.269,21.269,0,0,1,4.014,1.656l.72-.864A18.722,18.722,0,0,0-25.4-7.65h5.976V-8.712h-4.5v-1.17H-20.2v-.99h-3.726v-1.134h4.284V-13h-2.628c.36-.468.756-1.08,1.152-1.692l-1.188-.378a15.161,15.161,0,0,1-1.08,1.962l.288.108h-3.24l.486-.216a11.552,11.552,0,0,0-1.17-1.854l-.99.414A13.4,13.4,0,0,1-27.018-13H-29.34v.99h4.122Zm-4.41,5.256c-.306-.486-1.656-2.52-2.16-3.186V-9.936h2.052v-1.242h-2.052v-3.888h-1.224v3.888h-2.52v1.242h2.376a19.538,19.538,0,0,1-2.736,6.75,7.467,7.467,0,0,1,.684,1.152,18.8,18.8,0,0,0,2.2-5.022V1.35h1.224V-7.218c.54.9,1.17,2.016,1.422,2.592Zm3.042,1.8-.216.054h-3.1v.972h2.574A6.1,6.1,0,0,1-30.456.09a3.771,3.771,0,0,1,.72.882A7.169,7.169,0,0,0-25.848-3.51Zm5.922-1.422A23,23,0,0,1-23-3.1a8.461,8.461,0,0,1-.936-1.6V-5.76h-4.536v.972H-25.2V.036c0,.2-.072.252-.27.252h-1.746a5.219,5.219,0,0,1,.36,1.1,6.932,6.932,0,0,0,2.322-.2c.468-.18.594-.522.594-1.152V-2.718A9.408,9.408,0,0,0-19.908.864,4.524,4.524,0,0,1-19.1-.144,8.314,8.314,0,0,1-22.41-2.376a33.851,33.851,0,0,0,2.736-2.106ZM-5.58-9.612h-7.146v-3.4H-5.58Zm1.35-4.68h-9.792v5.958H-4.23Zm-7.362,9.144V-.882h-3.762V-5.148Zm-5.04,6.534h1.278V.414h3.762v.81h1.314V-6.444h-6.354ZM-7.02-.882V-5.148h4.086V-.882Zm-1.3-5.562v7.83h1.3V.414h4.086V1.26H-1.62v-7.7Zm15.3-3.312H9.828v2.214H6.984Zm0,3.33H9.828v2.25H6.984Zm0-6.642H9.828v2.2H6.984ZM5.832-14.256v11.25h5.2v-11.25ZM9-2.124A20.938,20.938,0,0,1,11,.738L12.06.072a21.254,21.254,0,0,0-2.052-2.754Zm-2.43-.5A9.671,9.671,0,0,1,4.176.684a9.688,9.688,0,0,1,1.044.738A12.391,12.391,0,0,0,7.812-2.3Zm8.946-12.42V-.288c0,.306-.126.4-.432.4-.27.018-1.224.036-2.286,0a4.858,4.858,0,0,1,.4,1.26,8.4,8.4,0,0,0,2.826-.252c.5-.216.7-.594.7-1.422V-15.048Zm-3.132,1.836V-2.988h1.188V-13.212Zm-10.692-.7a12.277,12.277,0,0,1,2.826,1.926L5.31-13.05a11.908,11.908,0,0,0-2.844-1.818ZM.918-9.108A12.79,12.79,0,0,1,3.87-7.326l.756-1.1A11.652,11.652,0,0,0,1.674-10.08ZM1.3.432l1.206.72C3.276-.5,4.176-2.7,4.842-4.572l-1.08-.7A51.33,51.33,0,0,1,1.3.432ZM35.28-12.456a10.926,10.926,0,0,0-1.62-2.214l-.936.522a11.856,11.856,0,0,1,1.584,2.322Zm-11.754-.378a13.5,13.5,0,0,0-1.368-2.3l-1.026.522A17.368,17.368,0,0,1,22.464-12.2ZM23.85-3.8v2.97h-2.5V-3.8Zm1.17-1.116H20.2V1.134h1.152V.288H25.02ZM20.214-6.246H25V-7.308H20.214ZM25-9.648H20.214v1.062H25Zm-5.544-1.26h5.868v-1.1H19.458Zm9.27,4.374h1.926V-7.74h-5.04v1.206H27.5v4.752c-.81.2-1.548.378-2.178.522L25.7.036c1.6-.468,3.69-1.044,5.67-1.656l-.126-1.134c-.846.216-1.71.45-2.52.666ZM35.8-10.278v-1.26H32.31c-.036-1.116-.054-2.268-.036-3.474H30.96c.018,1.188.036,2.34.072,3.474H25.776v1.26h5.31C31.374-3.744,32.2,1.4,34.218,1.4c1.116,0,1.476-.846,1.674-3.528a3.613,3.613,0,0,1-1.008-.72C34.83-.828,34.668.09,34.4.09c-.954,0-1.8-4.356-2.052-10.368Z" transform="translate(605.344 641)" fill="#333"/>
          <path id="Path_26880" data-name="Path 26880" d="M-23.472-12.708l-.774.63a14.761,14.761,0,0,1,1.854,1.764l.882-.774a14.753,14.753,0,0,0-1.782-1.62h3.87V-13.77h-5.436a9.811,9.811,0,0,0,.468-1.116l-1.224-.288a7.9,7.9,0,0,1-2.232,3.348,7.342,7.342,0,0,1,.99.792,10.013,10.013,0,0,0,1.4-1.674Zm-7.866,0-.7.522a11.488,11.488,0,0,1,1.728,1.854l.882-.756a12.46,12.46,0,0,0-1.62-1.62h3.4v-1.08h-4.608c.18-.36.342-.7.486-1.062l-1.17-.324a11.187,11.187,0,0,1-2.718,3.924,7.376,7.376,0,0,1,.936.882,11.938,11.938,0,0,0,1.854-2.34Zm4.59,6.588h4.5v2.142c0,.18-.054.252-.27.252-.2,0-.9.018-1.62-.018a4.594,4.594,0,0,1,.45,1.062,6.866,6.866,0,0,0,2.178-.18c.468-.2.594-.468.594-1.116V-7.29h-5.832V-8.676h6.858V-9.864h-6.858V-10.98h-1.4v1.116h-7.11v1.188h7.11V-7.29h-5.814v4.626h1.386V-6.12h4.428v1.548a14.282,14.282,0,0,1-7.56,4.248A4.16,4.16,0,0,1-34.866.792a15.9,15.9,0,0,0,6.714-3.78V1.368h1.4v-4.32A16.2,16.2,0,0,0-20.052.72a7.739,7.739,0,0,1,.846-1.17,15.013,15.013,0,0,1-7.542-3.978ZM-17.28.936C-14.742.828-10.818.612-7.11.414l.036-1.026c-3.816.18-7.812.36-10.314.468Zm7.974-4.572h-2.3V-4.5h2.3Zm0,1.6h-2.3V-2.9h2.3ZM-15.084-2.9h2.322v.864h-2.322Zm0-1.6h2.322v.864h-2.322Zm-1.1-.738v3.96h8.01v-3.96Zm6.858-5.04h-2.358v-.972h2.358Zm-2.358-2.772h2.358v.882h-2.358Zm3.528-.846h-3.528v-1.152h-1.224V-13.9h-3.312v.846h3.312v.882H-17.37v.918h4.464v.972H-16.29v.846h3.384v.81h-3.51v.846h3.51v.828h-4.356v.936H-7.146v-.936h-4.536v-.828H-7.9v-.846h-3.78v-.81h3.528V-11.25h1.116v-.918H-8.154Zm3.006.99H-6.372v9.9h1.224Zm2.178-1.8v14.4c0,.288-.126.378-.432.4C-3.654.108-4.59.108-5.634.072a4.7,4.7,0,0,1,.414,1.3,8.97,8.97,0,0,0,2.79-.234c.522-.234.72-.612.72-1.44v-14.4Zm17.712,2.682H8.784v-1.422h5.958Zm0,2.376H8.784v-1.44h5.958Zm1.278-4.806H7.56v5.832h8.46ZM6.246-7.218,4.428-6.66v-3.546h1.98v-1.242H4.428V-15.03H3.186v3.582H.972v1.242H3.186v3.942c-.918.288-1.746.54-2.412.7l.324,1.3c.648-.2,1.35-.414,2.088-.666V-.306c0,.27-.09.342-.306.342-.2,0-.918,0-1.692-.018a5.471,5.471,0,0,1,.4,1.242,5.149,5.149,0,0,0,2.232-.252c.45-.216.612-.558.612-1.3v-5.04c.666-.234,1.332-.432,1.98-.666ZM12.4-3.006h3.726V-4.1H12.4V-6.21h4.626V-7.344H6.75V-6.21h4.392V-.522A4.166,4.166,0,0,1,8.8-3.312,19.02,19.02,0,0,0,9.144-5.22L7.92-5.364C7.632-2.7,6.84-.684,5.238.576a7.629,7.629,0,0,1,1.008.81A8.006,8.006,0,0,0,8.388-1.908C9.558.612,11.448,1.1,14.04,1.1h3.132a3.852,3.852,0,0,1,.4-1.188c-.612.018-3.042.018-3.474.018A12.538,12.538,0,0,1,12.4-.18Zm8.892-9.558H33.84v1.44h1.3V-13.7H28.548c-.252-.45-.63-.99-.9-1.386l-1.332.324c.2.324.432.684.648,1.062h-6.93v2.574h1.26Zm8.73,3.132A6.866,6.866,0,0,1,27.72-7.7c-1.152-.234-2.322-.432-3.51-.63.342-.342.72-.7,1.1-1.1Zm5.148,3.6A53.28,53.28,0,0,0,29.5-7.326a7.4,7.4,0,0,0,2.124-2.106h3.78v-1.1H32.22a7.213,7.213,0,0,0,.36-.936l-1.3-.306a6.468,6.468,0,0,1-.54,1.242H26.316c.414-.486.81-.99,1.134-1.458l-1.3-.4a18.653,18.653,0,0,1-1.4,1.854H19.728v1.1h4.05c-.612.666-1.224,1.26-1.782,1.764,1.314.18,2.574.414,3.8.648a30.492,30.492,0,0,1-6.084.756,4.793,4.793,0,0,1,.522,1.152A24.5,24.5,0,0,0,28.026-6.57a48.685,48.685,0,0,1,5.85,1.638Zm-11.124,3.2A11.819,11.819,0,0,1,19.782-.072a7.809,7.809,0,0,1,1.1.918A14.206,14.206,0,0,0,25.362-2.2Zm5.508.666a23.479,23.479,0,0,1,4.7,2.9l.972-.972a24.507,24.507,0,0,0-4.77-2.772Zm-1.4-2.2V-5.634H26.838v1.476h-7.29v1.134h7.29V1.368h1.314V-3.024h7.416V-4.158Zm-53.37,19.286h-3.4v.99h3.4v1.17H-29.79V18.35h3.672l-.522.612a21.269,21.269,0,0,1,4.014,1.656l.72-.864a18.722,18.722,0,0,0-3.492-1.4h5.976V17.288h-4.5v-1.17H-20.2v-.99h-3.726V13.994h4.284V13h-2.628c.36-.468.756-1.08,1.152-1.692l-1.188-.378a15.161,15.161,0,0,1-1.08,1.962l.288.108h-3.24l.486-.216a11.552,11.552,0,0,0-1.17-1.854l-.99.414A13.4,13.4,0,0,1-27.018,13H-29.34v.99h4.122Zm-4.41,5.256c-.306-.486-1.656-2.52-2.16-3.186V16.064h2.052V14.822h-2.052V10.934h-1.224v3.888h-2.52v1.242h2.376a19.538,19.538,0,0,1-2.736,6.75,7.467,7.467,0,0,1,.684,1.152,18.8,18.8,0,0,0,2.2-5.022V27.35h1.224V18.782c.54.9,1.17,2.016,1.422,2.592Zm3.042,1.8-.216.054h-3.1v.972h2.574a6.1,6.1,0,0,1-3.132,2.88,3.771,3.771,0,0,1,.72.882,7.169,7.169,0,0,0,3.888-4.482Zm5.922-1.422A23,23,0,0,1-23,22.9a8.461,8.461,0,0,1-.936-1.6V20.24h-4.536v.972H-25.2v4.824c0,.2-.072.252-.27.252h-1.746a5.219,5.219,0,0,1,.36,1.1,6.932,6.932,0,0,0,2.322-.2c.468-.18.594-.522.594-1.152V23.282a9.408,9.408,0,0,0,4.032,3.582,4.524,4.524,0,0,1,.81-1.008,8.314,8.314,0,0,1-3.312-2.232,33.851,33.851,0,0,0,2.736-2.106ZM-5.58,16.388h-7.146v-3.4H-5.58Zm1.35-4.68h-9.792v5.958H-4.23Zm-7.362,9.144v4.266h-3.762V20.852Zm-5.04,6.534h1.278v-.972h3.762v.81h1.314V19.556h-6.354Zm9.612-2.268V20.852h4.086v4.266Zm-1.3-5.562v7.83h1.3v-.972h4.086v.846H-1.62v-7.7ZM7.092,12.734v1.458H3.15V12.734ZM3.15,16.694V15.146H7.092v1.548Zm5.2,1.026V11.708H1.836V27.386H3.15V17.72Zm-.5,4.176V19.952h2.52V21.9ZM14,23.03V21.9H11.556V19.952h2.052v-1.1H4.734v1.1H6.678V21.9H4.392V23.03h2.25a4.53,4.53,0,0,1-2.124,3.456,4.687,4.687,0,0,1,.882.792A5.773,5.773,0,0,0,7.812,23.03h2.556v4.014h1.188V23.03Zm-2.79-6.318V15.146H15.3v1.566ZM15.3,12.734v1.458H11.214V12.734Zm1.314-1.026H9.936v6.03H15.3v7.884c0,.288-.09.4-.378.4-.27.018-1.242.018-2.232-.018a4.422,4.422,0,0,1,.432,1.332,8.359,8.359,0,0,0,2.79-.234c.522-.234.7-.666.7-1.458ZM21.96,22.22c.09-.576.18-1.224.27-1.854h3.8v-4h-2.79a10.29,10.29,0,0,0,3.78-4.3l-.828-.432-.234.054H21.078v1.1h4.176A9.023,9.023,0,0,1,23.526,14.7a11.079,11.079,0,0,0-2.142-1.6l-.774.738a13.738,13.738,0,0,1,2.034,1.548A13.344,13.344,0,0,1,19.1,17.072a4.216,4.216,0,0,1,.72.99,12.089,12.089,0,0,0,2-.846v.216h3.006v1.89H21.258c-.162,1.278-.414,2.88-.63,3.942H24.75c-.162,1.71-.36,2.448-.63,2.682-.144.144-.324.162-.648.162-.342,0-1.332-.018-2.3-.108a2.752,2.752,0,0,1,.4,1.152,22.322,22.322,0,0,0,2.376.036,1.691,1.691,0,0,0,1.188-.45c.432-.414.666-1.476.882-4a4.185,4.185,0,0,0,.054-.522Zm11.286-.792-.216.054H26.892v.972H32.4a7.636,7.636,0,0,1-1.728,1.926c-1.062-.612-2.178-1.26-3.132-1.764l-.648.738c.882.486,1.872,1.08,2.844,1.656a12.647,12.647,0,0,1-3.69,1.4,3.505,3.505,0,0,1,.612.99,13.369,13.369,0,0,0,4.122-1.746c1.044.648,2,1.278,2.646,1.764l.666-.864c-.612-.45-1.476-.99-2.43-1.584a7.889,7.889,0,0,0,2.322-3.24Zm1.08-8.568a20.367,20.367,0,0,1-2.43,2.088,8.847,8.847,0,0,1-1.314-1.1,24.848,24.848,0,0,0,2.592-2.088l-.99-.7a21.793,21.793,0,0,1-2.268,2.088,9.76,9.76,0,0,1-1.4-2.178l-1.062.324a12.045,12.045,0,0,0,4.284,5h-4v1.4a2.747,2.747,0,0,1-1.674,2.61,4.708,4.708,0,0,1,.864.828,3.7,3.7,0,0,0,1.962-3.4v-.36h2.448v1.746c0,1.062.216,1.494,1.314,1.494h1.476a3.309,3.309,0,0,0,.918-.072,8.2,8.2,0,0,1-.072-.954,4.666,4.666,0,0,1-.864.072H32.778c-.27,0-.306-.126-.306-.522V16.748a13.189,13.189,0,0,0,2.574,1.1,5.072,5.072,0,0,1,.81-1.044,12.213,12.213,0,0,1-3.078-1.278,18.9,18.9,0,0,0,2.538-1.98Z" transform="translate(486.344 641)" fill="#333"/>
          <rect id="Rectangle_6081" data-name="Rectangle 6081" width="15" height="28" rx="7.5" transform="translate(597 589)" fill="#555046"/>
          <rect id="Rectangle_6083" data-name="Rectangle 6083" width="15" height="28" rx="7.5" transform="translate(479 589)" fill="#555046"/>
          <path id="Path_26879" data-name="Path 26879" d="M-75.006-7.434l-2.5.7V-10.17h2.484v-1.278h-2.484V-15.03h-1.314v3.582H-81.5v1.278h2.682v3.834c-1.062.27-2.052.54-2.844.738l.4,1.35c.738-.216,1.566-.468,2.448-.72V-.414c0,.27-.108.36-.36.36-.216,0-.99,0-1.854-.018a4.982,4.982,0,0,1,.432,1.26A6.2,6.2,0,0,0-78.156.936c.468-.216.648-.558.648-1.332V-5.382c.882-.252,1.782-.54,2.664-.81Zm9.792-6.1h-9.72v1.314h5.13V-.594c0,.342-.144.45-.486.468-.378.018-1.692.018-3.006-.036a6.434,6.434,0,0,1,.558,1.44,11.526,11.526,0,0,0,3.456-.27c.648-.216.882-.666.882-1.584V-12.222h3.186Zm12.456,2.664h-3.4v.99h3.4v1.17H-57.33V-7.65h3.672l-.522.612a21.269,21.269,0,0,1,4.014,1.656l.72-.864a18.722,18.722,0,0,0-3.492-1.4h5.976V-8.712h-4.5v-1.17h3.726v-.99h-3.726v-1.134h4.284V-13h-2.628c.36-.468.756-1.08,1.152-1.692l-1.188-.378a15.161,15.161,0,0,1-1.08,1.962l.288.108h-3.24l.486-.216a11.552,11.552,0,0,0-1.17-1.854l-.99.414A13.4,13.4,0,0,1-54.558-13H-56.88v.99h4.122Zm-4.41,5.256c-.306-.486-1.656-2.52-2.16-3.186V-9.936h2.052v-1.242h-2.052v-3.888h-1.224v3.888h-2.52v1.242H-60.7a19.538,19.538,0,0,1-2.736,6.75,7.467,7.467,0,0,1,.684,1.152,18.8,18.8,0,0,0,2.2-5.022V1.35h1.224V-7.218c.54.9,1.17,2.016,1.422,2.592Zm3.042,1.8-.216.054h-3.1v.972h2.574A6.1,6.1,0,0,1-58,.09a3.771,3.771,0,0,1,.72.882A7.169,7.169,0,0,0-53.388-3.51ZM-48.2-5.238A23,23,0,0,1-50.544-3.1a8.461,8.461,0,0,1-.936-1.6V-5.76h-4.536v.972h3.276V.036c0,.2-.072.252-.27.252h-1.746a5.219,5.219,0,0,1,.36,1.1,6.932,6.932,0,0,0,2.322-.2c.468-.18.594-.522.594-1.152V-2.718A9.408,9.408,0,0,0-47.448.864a4.524,4.524,0,0,1,.81-1.008A8.314,8.314,0,0,1-49.95-2.376a33.851,33.851,0,0,0,2.736-2.106Zm16.776-6.138c-.144,4.986-.342,6.8-.684,7.236a.576.576,0,0,1-.594.234,14.618,14.618,0,0,1-1.8-.072A3.65,3.65,0,0,1-34.164-2.7a13.229,13.229,0,0,0,2.088,0,1.451,1.451,0,0,0,1.134-.612c.5-.648.684-2.736.882-8.712v-.63H-40a19.374,19.374,0,0,0,1.1-2.106l-1.35-.4a15.535,15.535,0,0,1-4.788,6.228,8.476,8.476,0,0,1,1.116.972,17.468,17.468,0,0,0,3.114-3.42Zm-4.734,3.06v2.9h-4.68v-2.9ZM-38.592-.27c-1.908,0-2.25-.252-2.25-1.224V-4.212h5.994v-5.31h-7.308v8.028c0,2,.828,2.484,3.636,2.484h6.786c2.43,0,2.97-.666,3.24-3.024a4.081,4.081,0,0,1-1.278-.486c-.2,1.854-.45,2.25-1.98,2.25Zm19.62-5.85c-.45-.522-2.25-2.628-2.916-3.348v-.468h2.448v-1.278h-2.448v-3.852H-23.22v3.852h-2.988v1.278h2.79a17.99,17.99,0,0,1-3.4,6.768,5.922,5.922,0,0,1,.738,1.26A18.541,18.541,0,0,0-23.22-7.29V1.35h1.332v-9.2c.738.972,1.674,2.232,2.07,2.88Zm8.8-5.076h-1.854V-15.03h-1.368V-11.2h-5.364v1.278h4.9A19.782,19.782,0,0,1-19.8-2.556a6.034,6.034,0,0,1,.954,1.08A21.915,21.915,0,0,0-13.392-8.1V-.432c0,.324-.126.414-.45.432-.342,0-1.494.018-2.664-.018A5.937,5.937,0,0,1-16.02,1.35a10.412,10.412,0,0,0,3.168-.27c.594-.2.828-.612.828-1.53V-9.918h1.854Zm8.748,1.944-1.17,1.026a30.921,30.921,0,0,1,3.978,4L2.61-5.256A33.771,33.771,0,0,0-1.422-9.252Zm20.466,7.92V-11.664h6.462v-1.368H11.286v1.368h6.3V-1.332H10.35V0H26.406V-1.332Zm19.98-10.71h1.314v-.81H44.6V-13.86H40.338v-1.206H39.024v1.206H37.062v1.008h1.962Zm-5.958,0H34.38v-.81h2.106V-13.86H34.38v-1.206H33.066v1.206H28.908v1.008h4.158Zm.4,2.952v.342c0,.846.162,1.206.99,1.206h1.242a3.627,3.627,0,0,0,.828-.072c-.036-.234-.054-.5-.072-.738a2.824,2.824,0,0,1-.756.072H34.632c-.252,0-.27-.09-.27-.45v-.36H36.7v-.792H33.5v-.756h2.376v-.774H33.5v-.576H32.346v.576h-2.43v.774h2.43v.756H29.052v.792h2c-.252.666-.882,1.008-2.25,1.224a1.8,1.8,0,0,1,.522.7C31-7.506,31.716-8.046,32-9.09ZM32.652.18a22.809,22.809,0,0,0,2.664-1.566h4.518l-.846.54c.45.2.954.45,1.44.72ZM28.728-1.386H33.48A24.623,24.623,0,0,1,31.05,0a4.4,4.4,0,0,1-1.242.4A6.1,6.1,0,0,1,30.2,1.4c.648-.2,1.62-.234,11.628-.7a11.35,11.35,0,0,1,1.314.972l.918-.648a18.288,18.288,0,0,0-4.1-2.412h4.734V-2.25H28.728Zm2.25-2.628v.864H42.552v-.864ZM43.146-5.562c-.108,0-.2-.018-.234-.072-.072-.054-.09-.252-.09-.594v-4.41H40.248v-1.224H39.186v1.224H37.152V-9.63h2.016a5.235,5.235,0,0,1-.2,1.242c-.45-.252-.954-.486-1.386-.684l-.648.756c.54.252,1.116.558,1.692.882A6.115,6.115,0,0,1,36.666-5.22v-.45l-3.168.2V-6.3h2.628v-.774H33.5v-.918H32.346v.918h-2.61V-6.3h2.61v.9c-1.3.072-2.448.144-3.366.18l.072.882c1.944-.126,4.7-.324,7.362-.54a4.609,4.609,0,0,1,.666.612,6.3,6.3,0,0,0,2.484-2.556A11.766,11.766,0,0,1,40.7-5.9l.666-.846a8.537,8.537,0,0,0-1.422-1.08,6.466,6.466,0,0,0,.288-1.8h1.494V-6.3c0,.954.072,1.206.306,1.4a1.2,1.2,0,0,0,.864.288h.72a1.516,1.516,0,0,0,.72-.144.921.921,0,0,0,.414-.54A8.083,8.083,0,0,0,44.91-6.93a2.7,2.7,0,0,1-.81-.432c-.018.648-.036,1.152-.072,1.368a.53.53,0,0,1-.162.378.7.7,0,0,1-.324.054Zm9.738-4.194h2.844v2.214H52.884Zm0,3.33h2.844v2.25H52.884Zm0-6.642h2.844v2.2H52.884Zm-1.152-1.188v11.25h5.2v-11.25ZM54.9-2.124a20.938,20.938,0,0,1,2,2.862L57.96.072a21.254,21.254,0,0,0-2.052-2.754Zm-2.43-.5A9.671,9.671,0,0,1,50.076.684a9.688,9.688,0,0,1,1.044.738A12.391,12.391,0,0,0,53.712-2.3Zm8.946-12.42V-.288c0,.306-.126.4-.432.4-.27.018-1.224.036-2.286,0a4.858,4.858,0,0,1,.4,1.26,8.4,8.4,0,0,0,2.826-.252c.5-.216.7-.594.7-1.422V-15.048Zm-3.132,1.836V-2.988h1.188V-13.212Zm-10.692-.7a12.278,12.278,0,0,1,2.826,1.926l.792-1.062a11.908,11.908,0,0,0-2.844-1.818Zm-.774,4.806A12.79,12.79,0,0,1,49.77-7.326l.756-1.1a11.652,11.652,0,0,0-2.952-1.656ZM47.2.432l1.206.72C49.176-.5,50.076-2.7,50.742-4.572l-1.08-.7A51.331,51.331,0,0,1,47.2.432ZM81.18-12.456a10.926,10.926,0,0,0-1.62-2.214l-.936.522a11.855,11.855,0,0,1,1.584,2.322Zm-11.754-.378a13.5,13.5,0,0,0-1.368-2.3l-1.026.522A17.368,17.368,0,0,1,68.364-12.2ZM69.75-3.8v2.97h-2.5V-3.8Zm1.17-1.116H66.1V1.134h1.152V.288H70.92ZM66.114-6.246H70.9V-7.308H66.114Zm4.788-3.4H66.114v1.062H70.9Zm-5.544-1.26h5.868v-1.1H65.358Zm9.27,4.374h1.926V-7.74h-5.04v1.206H73.4v4.752c-.81.2-1.548.378-2.178.522L71.6.036c1.6-.468,3.69-1.044,5.67-1.656l-.126-1.134c-.846.216-1.71.45-2.52.666ZM81.7-10.278v-1.26H78.21c-.036-1.116-.054-2.268-.036-3.474H76.86c.018,1.188.036,2.34.072,3.474H71.676v1.26h5.31C77.274-3.744,78.1,1.4,80.118,1.4c1.116,0,1.476-.846,1.674-3.528a3.613,3.613,0,0,1-1.008-.72C80.73-.828,80.568.09,80.3.09c-.954,0-1.8-4.356-2.052-10.368Z" transform="translate(545.845 451)" fill="#333"/>
          <rect id="Rectangle_6080" data-name="Rectangle 6080" width="15" height="28" rx="7.5" transform="translate(538 460)" fill="#f05f23"/>
        </g>
        <g id="Group_17771" data-name="Group 17771" transform="translate(-139)">
          <rect id="Rectangle_6085" data-name="Rectangle 6085" width="160" height="140" rx="10" transform="translate(327 314)" fill="#f05f23"/>
          <path id="Polygon_3" data-name="Polygon 3" d="M14.03,3.881a1,1,0,0,1,1.94,0L29.689,58.757A1,1,0,0,1,28.719,60H1.281a1,1,0,0,1-.97-1.243Z" transform="translate(422 485) rotate(180)" fill="#f05f23"/>
          <path id="Path_26887" data-name="Path 26887" d="M-31.416-19.224a8.5,8.5,0,0,1,2.448,3.264c2.208,1.224,3.624-2.856-2.232-3.432Zm-10.56-1.032A38.878,38.878,0,0,1-47.424-7.872l.312.216a21.038,21.038,0,0,0,3.432-3.552V2.04h.432A2.768,2.768,0,0,0-41.4,1.368V-12.816a.882.882,0,0,0,.744-.456l-1.272-.48A37.874,37.874,0,0,0-39.5-18.7c.528.024.84-.168.936-.456ZM-24.984-4.368l-.264-.048a23.988,23.988,0,0,1-1.344,2.88c-.24.432-.408.432-.816.1-3.168-2.184-4.68-6.048-5.328-10.464l7.248-.816a.657.657,0,0,0,.624-.48c-1.08-.744-2.832-1.752-2.832-1.752l-1.248,1.944-3.864.432a44.545,44.545,0,0,1-.312-6.24c.576-.1.792-.384.84-.7l-3.24-.408a55.4,55.4,0,0,0,.456,7.608l-5.424.6.264.672,5.256-.6c.792,5.232,2.592,9.624,6.288,12.48,1.176.888,2.976,1.728,3.816.768.312-.36.216-.912-.624-2.112ZM-5.112-.624h-5.712v-15.24H-3c.36,0,.624-.12.7-.384-1.08-.936-2.784-2.256-2.784-2.256L-6.6-16.56H-21.528l.192.7h8.04V-.624h-9.84l.216.7H-1.464c.36,0,.6-.12.672-.384-1.032-.936-2.784-2.232-2.784-2.232Zm22.584-17.9c.6-.1.792-.312.84-.624L15.5-19.44v8.64h.384c.72,0,1.584-.36,1.584-.528Zm1.272,12.84a20.5,20.5,0,0,1-3.12,2.64,9.423,9.423,0,0,1-2.832-2.76h9.48c.36,0,.6-.12.672-.384-.864-.768-2.232-1.752-2.424-1.9.84-.432.984-1.128.984-2.136v-8.928c.528-.1.768-.288.84-.624l-2.952-.288v9.792c0,.312-.1.408-.432.408-.432,0-2.448-.12-2.448-.12v.312a3.249,3.249,0,0,1,1.752.648A2.062,2.062,0,0,1,18.7-7.7a6.318,6.318,0,0,0,1.776-.36L19.2-6.5H13.224c.6-.624.36-1.992-1.7-2.04,1.92-.168,2.184-.768,2.184-1.92v-1.32a1.957,1.957,0,0,0,1.032-.48L12.48-13.92l-.912,1.056H9.12v-1.68h5.112c.312,0,.576-.12.624-.384-.792-.72-2.112-1.728-2.112-1.728l-1.128,1.44H9.12v-1.992h4.272c.336,0,.576-.12.648-.384-.864-.744-2.088-1.728-2.088-1.728L10.824-17.9H9.12v-1.464c.576-.072.768-.288.816-.624L7.1-20.28V-17.9H4.824c.192-.312.384-.648.552-.984.528,0,.792-.192.888-.48l-2.712-.816a15.641,15.641,0,0,1-1.3,4.536l.36.216a8.12,8.12,0,0,0,1.728-1.776H7.1v1.992H1.2l.192.672H7.1v1.68H4.968L2.952-13.7v5.472h.264c.744,0,1.608-.408,1.608-.6v-3.336H7.1v4.56h.384c.744,0,1.632-.408,1.632-.624v-3.936h2.688v1.608c0,.24-.072.384-.36.384-.36,0-1.272-.1-1.272-.1v.36a1.742,1.742,0,0,1,1.056.432,1.5,1.5,0,0,1,.264.936,5.575,5.575,0,0,0-1.056.072l-.192.192A4.328,4.328,0,0,1,11.88-6.5H1.272l.192.7H9.432a22.273,22.273,0,0,1-8.208,4.32l.144.36A36.032,36.032,0,0,0,7.224-2.64v1.56c0,.36-.144.576-1.032,1.1L7.44,2.3a1.5,1.5,0,0,0,.6-.576C10.488.528,12.624-.7,13.776-1.344L13.7-1.656c-1.488.36-3,.7-4.248.984V-3.6a14.488,14.488,0,0,0,2.952-1.9C14.088-1.56,17.256.672,21.36,2.04A2.517,2.517,0,0,1,23.184,0l.024-.288a20.955,20.955,0,0,1-6.816-2.28,19.061,19.061,0,0,0,4.056-1.488c.528.1.744,0,.888-.24ZM38.4-15.6v3.624H32.28l.192.7h13.68a.574.574,0,0,0,.624-.384c-.888-.816-2.4-1.992-2.4-1.992l-1.3,1.68h-2.5V-15.6h4.392c.336,0,.576-.12.648-.384-.888-.84-2.328-1.944-2.328-1.944L42.024-16.3h-1.44V-19.32c.6-.1.816-.336.864-.672L38.4-20.28V-16.3H35.928a16.826,16.826,0,0,0,.84-1.9.839.839,0,0,0,.888-.5l-3-.84a24.326,24.326,0,0,1-2.016,6.96l.36.192A11.581,11.581,0,0,0,35.568-15.6ZM36.12-4.032v-4.32h6.408v4.32ZM42.888-1.8a2.86,2.86,0,0,0,1.8-.648V-7.992a1.868,1.868,0,0,0,.96-.48L43.368-10.2,42.312-9.048H36.24l-2.328-.96v8.472h.336c.888,0,1.872-.48,1.872-.672V-3.336h6.408V-1.8Zm-16.92-18a8.361,8.361,0,0,1,2.424,3.672c2.256,1.392,3.888-3.048-2.208-3.84Zm5.376,9.768-1.2,1.152H28.608c.816-1.2,1.872-2.856,2.544-3.936a1.972,1.972,0,0,0,1.392-.384l-2.136-1.92-1.056,1.08H25.128l.216.7H29.16a43.824,43.824,0,0,1-2.544,4.032,3.78,3.78,0,0,0-.936.408l1.848,1.416.792-.7h1.944A17.149,17.149,0,0,1,28.032-2.76c-.84.5-2.256,1.7-3.216,2.3L26.5,1.8a.413.413,0,0,0,.144-.5c.552-1.1,1.32-2.448,1.752-3.192.192-.36.432-.408.768-.024,2.112,2.544,4.32,3.384,9.36,3.384h7.152A2.07,2.07,0,0,1,47.28-.408V-.72c-2.88.144-5.208.168-8.016.168-4.992,0-7.824-.336-9.816-2.136a1.41,1.41,0,0,0-.384-.24A12.213,12.213,0,0,0,32.5-8.016c.5-.024.744-.1.912-.312Z" transform="translate(407 412)" fill="#fff"/>
          <path id="Path_26172" data-name="Path 26172" d="M-216.723-123.079c0-7.776,2.1-13.532,6.785-13.532,4.651,0,6.785,5.756,6.785,13.532,0,7.853-2.135,13.571-6.785,13.571C-214.626-109.509-216.723-115.226-216.723-123.079Zm6.785-14.981c-7.128,0-13.532,5.146-13.532,14.981,0,9.949,6.366,15.019,13.532,15.019,7.2,0,13.494-5.108,13.494-15.019C-196.443-132.952-202.771-138.06-209.938-138.06Zm40.6,21.347h-2.135l-1.753,6.4h-8.577c-.076-3.964-.076-8.005-.076-12.236v-.114h5.222l.534,4.041h1.906v-9.644h-1.906l-.572,4.231h-5.184c0-4.041,0-7.967.076-11.779h7.738l1.754,6.1h2.211l.038-7.586h-21.8v1.3l3.431.3c.114,3.926.114,7.853.114,11.817v1.677c0,3.964,0,7.891-.114,11.741l-3.431.343v1.3h22.6Zm40.6-19.288v-1.3h-10.064l-7.548,20.241-7.776-20.241h-10.521v1.3l4.041.5-.152,24.854-4.193.534v1.3h10.292v-1.3l-4.231-.572v-11.36c0-2.44-.076-7.357-.152-11.321l9.377,24.549h2.02l9.111-24.74-.152,12.274c-.076,3.088,0,6.938-.114,10.826l-3.355.343v1.3h13.38v-1.3l-3.393-.343c-.114-3.812-.114-7.776-.114-11.741v-1.677c0-3.964,0-7.891.114-11.817Z" transform="translate(583.47 487.06)" fill="#fff"/>
        </g>
        <g id="Group_17770" data-name="Group 17770" transform="translate(-139)">
          <rect id="Rectangle_6086" data-name="Rectangle 6086" width="160" height="140" rx="10" transform="translate(487 765) rotate(180)" fill="#555046"/>
          <path id="Polygon_4" data-name="Polygon 4" d="M14.03,3.881a1,1,0,0,1,1.94,0L29.689,58.757A1,1,0,0,1,28.719,60H1.281a1,1,0,0,1-.97-1.243Z" transform="translate(392 594)" fill="#555046"/>
          <path id="Path_26888" data-name="Path 26888" d="M-41.3-4.968h-2.568l.192.7h4.08a.545.545,0,0,0,.6-.384c-.576-.6-1.488-1.368-1.488-1.368Zm.264-9.36H-42v-3.456h.96Zm2.448.7v4.944h-.888c-.168,0-.216-.072-.216-.312v-4.632ZM-44.4-.72V-6.312l.024.024C-42.168-8.136-42-10.848-42-12.648v-.984h.96V-8.52c0,.84.168,1.2,1.152,1.2h.6a6.077,6.077,0,0,0,.7-.024V-.72Zm1.1-12.912v.984a10.885,10.885,0,0,1-1.1,5.616v-6.6Zm4.632-4.848h-8.448l.192.7h3.288v3.456h-.648l-2.04-.912V1.944h.312c.864,0,1.608-.48,1.608-.7V-.024h5.808V1.512h.312A2.516,2.516,0,0,0-36.6.864V-13.272a1.7,1.7,0,0,0,.984-.48l-2.16-1.752-1.056,1.176h-.576v-3.456h3.552c.36,0,.552-.12.624-.384-.816-.816-2.232-1.92-2.232-1.92Zm13.2,13.728h-.312a21.248,21.248,0,0,1-.936,3.432.53.53,0,0,1-.552.36c-.312.024-1.08.048-2.088.048h-2.28c-.888,0-1.032-.168-1.032-.6v-9.576h4.2V-8.88h.36a3.255,3.255,0,0,0,1.776-.576V-17.28a2.132,2.132,0,0,0,1.152-.576L-27.6-19.7l-1.128,1.248H-34.8l.216.7h6.12v5.976h-3.888l-2.424-.96V-1.008c0,1.632.528,2.112,2.712,2.112H-29.5c3.936,0,4.92-.432,4.92-1.368,0-.408-.168-.672-.84-.912Zm10.872-15.48a9.768,9.768,0,0,1,2.568,4.224C-9.7-14.4-7.824-19.152-14.4-20.4Zm9.6,4.9h-18.1l.192.7h6.984C-16.08-7.9-17.352-2.28-22.8,1.872l.192.264c5.616-2.64,7.872-6.816,8.784-12H-7.1c-.264,4.92-.768,8.328-1.536,9A1.279,1.279,0,0,1-9.6-.6c-.552,0-2.4-.144-3.552-.24l-.024.36a6.16,6.16,0,0,1,2.568.912,1.888,1.888,0,0,1,.48,1.56,4.665,4.665,0,0,0,3.12-.96c1.248-1.1,1.9-4.7,2.184-10.536a1.735,1.735,0,0,0,1.032-.408l-2.256-1.9L-7.32-10.56h-6.408c.216-1.3.336-2.664.432-4.08h11.76c.336,0,.6-.12.672-.384C-1.9-15.912-3.528-17.16-3.528-17.16Zm8.3-4.536a7.617,7.617,0,0,1,1.8,3.288c2.136,1.464,4.008-2.664-1.584-3.432ZM8.064-15.7H.792l.192.7h9.648c.312,0,.552-.12.6-.384-.768-.744-2.064-1.752-2.064-1.752Zm-6.24,3.048.192.7H9.528c.336,0,.552-.12.624-.384-.744-.72-1.944-1.656-1.944-1.656l-1.08,1.344Zm12.24-5.28H17.28v5.208c0,1.3.216,1.752,1.776,1.752h1.2c2.232,0,2.952-.432,2.952-1.248,0-.408-.192-.6-.744-.816l-.1-.024h-.216c-.168.024-.36.072-.5.1h-.432a5.882,5.882,0,0,1-.72.024h-.768c-.336,0-.408-.1-.408-.36v-4.392a1.541,1.541,0,0,0,.888-.36l-2.064-1.728-1.1,1.152H14.424L12-19.56v2.88A8.6,8.6,0,0,1,9.5-9.912l.192.24c-.72-.624-1.488-1.248-1.488-1.248L7.128-9.552h-5.3l.192.7H9.528c.336,0,.552-.12.624-.384a3.491,3.491,0,0,0-.432-.384,7.206,7.206,0,0,0,4.344-7.056ZM4.176-1.032v-4.7H7.44v4.7ZM9.456-5.4a1.873,1.873,0,0,0,.96-.456L8.232-7.536,7.2-6.432H4.272L2.16-7.344V1.728h.288c.84,0,1.728-.456,1.728-.672V-.336H7.44V.888h.336A2.727,2.727,0,0,0,9.456.264Zm8.9-3.144a16.243,16.243,0,0,1-2.64,4.752,11.589,11.589,0,0,1-3.36-4.752Zm1.272-1.944L18.288-9.24H10.416l.216.7H11.9a14.739,14.739,0,0,0,2.784,5.88A19.045,19.045,0,0,1,7.8,1.632l.192.36A20.6,20.6,0,0,0,15.72-1.536a15.933,15.933,0,0,0,5.76,3.312,2.424,2.424,0,0,1,1.944-1.92l.024-.264A19.254,19.254,0,0,1,17.16-2.784a16.209,16.209,0,0,0,3.624-5.4c.552-.024.792-.1.984-.336Zm8.688-9.6a6.805,6.805,0,0,1,1.7,3.48c2.16,1.536,4.152-2.808-1.488-3.6Zm5.184,4.3H24.816l.168.7H36.36c.336,0,.6-.12.648-.384-.864-.816-2.28-1.9-2.28-1.9ZM26.04-12.72l.192.7h8.88a.574.574,0,0,0,.624-.384c-.816-.792-2.16-1.824-2.16-1.824l-1.2,1.512Zm6.336,3.1H26.04l.192.7h8.88a.574.574,0,0,0,.624-.384c-.816-.792-2.16-1.824-2.16-1.824Zm-3.792,8.5V-5.712h4.224v4.584Zm3.984-5.28H28.68L26.52-7.32V1.656h.288c.864,0,1.776-.48,1.776-.672V-.456h4.224V.864h.336A2.853,2.853,0,0,0,34.9.24V-5.352a1.7,1.7,0,0,0,.984-.48l-2.256-1.7ZM43.8-11.52H42.024v-7.656c.624-.1.816-.36.864-.7l-3.12-.312v8.664h-4.3l.192.7h4.1V1.944h.456c.816,0,1.8-.576,1.8-.84V-10.824h4.752c.336,0,.552-.12.624-.384-.84-.816-2.3-1.992-2.3-1.992Z" transform="translate(407 723)" fill="#fff"/>
          <path id="Path_26171" data-name="Path 26171" d="M-226.263-123.079c0-7.776,2.1-13.532,6.785-13.532,4.651,0,6.785,5.756,6.785,13.532,0,7.853-2.135,13.571-6.785,13.571C-224.166-109.508-226.263-115.226-226.263-123.079Zm6.785-14.981c-7.128,0-13.532,5.146-13.532,14.981,0,9.949,6.366,15.019,13.532,15.019,7.2,0,13.494-5.108,13.494-15.019C-205.983-132.952-212.311-138.06-219.478-138.06Zm28.132,27.827c-.076-4-.076-8.043-.076-12.313V-123.8c0-4.117,0-8.119.076-12.046h1.83c5.451,0,8.729,4.422,8.729,12.77,0,8.081-3.24,12.846-8.882,12.846ZM-201.409-137.3v1.3l3.431.3c.114,3.926.114,7.891.114,11.893v1.258c0,4.269,0,8.234-.114,12.084l-3.431.343v1.3h11.817c9.606,0,15.438-5.413,15.438-14.333,0-8.767-5.451-14.142-14.752-14.142Zm67.166,1.3v-1.3h-10.064l-7.548,20.241L-159.63-137.3h-10.521v1.3l4.041.5-.152,24.854-4.193.534v1.3h10.292v-1.3l-4.231-.572v-11.36c0-2.44-.076-7.357-.152-11.321l9.377,24.549h2.02l9.111-24.74-.152,12.274c-.076,3.088,0,6.938-.114,10.826l-3.355.343v1.3h13.38v-1.3l-3.393-.343c-.114-3.812-.114-7.776-.114-11.741v-1.677c0-3.964,0-7.891.114-11.817Z" transform="translate(591.01 798.06)" fill="#fff"/>
        </g>
      </g>
    </g>
  </g>
</svg>
